<svg width="511" height="302" viewBox="0 0 511 302" fill="none" xmlns="http://www.w3.org/2000/svg">
<g clip-path="url(#clip0_2127_683)">
<path d="M308.555 48.6727C308.247 51.2155 308.125 53.7479 308.206 56.2273C308.515 65.6379 312.864 76.8687 321.691 81.437C332.69 87.1303 346.508 81.2196 358.056 84.9849C375.946 90.8186 390.816 114.504 411.138 101.481C426.123 91.8767 431.556 68.8707 428.381 52.3147C422.805 23.2335 396.478 1.14011 367.03 0.0476804C348.14 -0.652638 329.52 6.26494 318.642 22.011C313.404 29.5929 309.699 39.2039 308.553 48.6727H308.555Z" fill="#F4F7FD"/>
<path d="M26.7778 291.68H478.516C492.301 260.226 497.78 225.169 493.288 191.117C490.972 173.562 485.775 155.601 473.637 142.719C465.943 134.555 455.896 128.929 445.432 124.893C419.766 114.994 390.676 114.265 364.548 122.867C347.373 128.523 330.079 138.204 312.352 134.636C304.629 133.081 297.62 129.079 291.115 124.634C256.336 100.871 229.714 61.9807 188.567 53.0289C161.957 47.2397 133.597 55.8028 111.446 71.6584C89.2954 87.514 72.7214 110.053 59.394 133.822C32.4793 181.828 18.7961 237.211 26.7778 291.678V291.68Z" fill="#F4F7FD"/>
<mask id="mask0_2127_683" style="mask-type:luminance" maskUnits="userSpaceOnUse" x="24" y="51" width="471" height="241">
<path d="M26.7778 291.68H478.516C492.301 260.226 497.78 225.169 493.288 191.117C490.972 173.562 485.775 155.601 473.637 142.719C465.943 134.555 455.896 128.929 445.432 124.893C419.766 114.994 390.676 114.265 364.548 122.867C347.373 128.523 330.079 138.204 312.352 134.636C304.629 133.081 297.62 129.079 291.115 124.634C256.336 100.871 229.714 61.9807 188.567 53.0289C161.957 47.2397 133.597 55.8028 111.446 71.6584C89.2954 87.514 72.7214 110.053 59.394 133.822C32.4793 181.828 18.7961 237.211 26.7778 291.678V291.68Z" fill="white"/>
</mask>
<g mask="url(#mask0_2127_683)">
<path opacity="0.1" d="M406.531 165.393C383.732 179.511 364.938 199.108 346.015 218.119C334.335 229.853 321.981 241.781 306.387 247.329C294.816 251.445 282.249 251.736 269.985 251.084C248.745 249.955 227.648 246.123 207.365 239.711C182.616 231.886 159.141 220.259 134.127 213.33C97.2445 203.113 57.4848 203.532 20.8247 214.527C19.6871 243.372 18.3802 272.285 17.2427 301.132C49.3252 303.602 81.524 300.221 113.642 298.288C227.861 291.413 342.178 302.844 456.443 298.875C471.343 298.358 486.61 298.262 501.413 296.419C501.94 293.949 501.689 291.072 501.757 288.538C501.834 285.678 501.892 282.819 501.928 279.959C502.002 274.24 501.993 268.52 501.903 262.801C501.721 251.363 501.213 239.928 500.38 228.519C498.995 209.58 496.711 190.706 493.534 171.984C492.664 166.857 491.685 161.7 489.843 156.82C488.666 153.705 487.162 149.573 483.673 148.447C480.566 147.443 476.617 147.755 473.387 147.437C468.38 146.945 463.332 146.928 458.318 147.329C439.905 148.798 422.147 155.72 406.528 165.393H406.531Z" fill="#3C94F8"/>
</g>
<path d="M324.244 24.6621H115.726C113.466 24.6621 111.634 26.4958 111.634 28.7579V166.969C111.634 169.231 113.466 171.065 115.726 171.065H324.244C326.504 171.065 328.336 169.231 328.336 166.969V28.7579C328.336 26.4958 326.504 24.6621 324.244 24.6621Z" fill="#CCE6FF"/>
<mask id="mask1_2127_683" style="mask-type:luminance" maskUnits="userSpaceOnUse" x="111" y="24" width="218" height="148">
<path d="M324.244 24.6621H115.726C113.466 24.6621 111.634 26.4958 111.634 28.7579V166.969C111.634 169.231 113.466 171.065 115.726 171.065H324.244C326.504 171.065 328.336 169.231 328.336 166.969V28.7579C328.336 26.4958 326.504 24.6621 324.244 24.6621Z" fill="white"/>
</mask>
<g mask="url(#mask1_2127_683)">
<path d="M338.158 16.3389H100.972V40.6428H338.158V16.3389Z" fill="#102A54"/>
</g>
<path d="M123.104 36.2985C124.741 36.2985 126.068 34.97 126.068 33.3311C126.068 31.6923 124.741 30.3638 123.104 30.3638C121.466 30.3638 120.139 31.6923 120.139 33.3311C120.139 34.97 121.466 36.2985 123.104 36.2985Z" fill="#3C94F8"/>
<path d="M133.87 36.2985C135.507 36.2985 136.835 34.97 136.835 33.3311C136.835 31.6923 135.507 30.3638 133.87 30.3638C132.233 30.3638 130.906 31.6923 130.906 33.3311C130.906 34.97 132.233 36.2985 133.87 36.2985Z" fill="white"/>
<path d="M144.635 36.2985C146.272 36.2985 147.599 34.97 147.599 33.3311C147.599 31.6923 146.272 30.3638 144.635 30.3638C142.998 30.3638 141.67 31.6923 141.67 33.3311C141.67 34.97 142.998 36.2985 144.635 36.2985Z" fill="white"/>
<path d="M321.44 169.664H115.067C112.077 169.664 109.646 167.229 109.646 164.238V28.1737C109.646 25.1807 112.079 22.7476 115.067 22.7476H321.439C324.429 22.7476 326.86 25.1824 326.86 28.1737V164.236C326.86 167.229 324.427 169.662 321.439 169.662L321.44 169.664ZM115.067 23.2612C112.361 23.2612 110.16 25.4649 110.16 28.1737V164.236C110.16 166.945 112.361 169.148 115.067 169.148H321.439C324.145 169.148 326.346 166.945 326.346 164.236V28.1737C326.346 25.4649 324.145 23.2612 321.439 23.2612H115.067Z" fill="#102A54"/>
<path d="M177.5 53.7432H123.373C122.209 53.7432 121.265 54.6876 121.265 55.8527V154.783C121.265 155.948 122.209 156.892 123.373 156.892H177.5C178.664 156.892 179.607 155.948 179.607 154.783V55.8527C179.607 54.6876 178.664 53.7432 177.5 53.7432Z" fill="#F4F7FD"/>
<path d="M146.505 58.4912H125.759C125.224 58.4912 124.791 58.9251 124.791 59.4604V86.48C124.791 87.0152 125.224 87.4491 125.759 87.4491H146.505C147.04 87.4491 147.473 87.0152 147.473 86.48V59.4604C147.473 58.9251 147.04 58.4912 146.505 58.4912Z" fill="#CCE6FF"/>
<path d="M153.267 62.1193C154.268 62.1193 155.079 61.3074 155.079 60.306C155.079 59.3045 154.268 58.4927 153.267 58.4927C152.267 58.4927 151.456 59.3045 151.456 60.306C151.456 61.3074 152.267 62.1193 153.267 62.1193Z" fill="#CCE6FF"/>
<path d="M176.126 59.6538H158.736C158.522 59.6538 158.349 59.4809 158.349 59.2669C158.349 59.0528 158.522 58.8799 158.736 58.8799H176.126C176.34 58.8799 176.512 59.0528 176.512 59.2669C176.512 59.4809 176.34 59.6538 176.126 59.6538Z" fill="#CCE6FF"/>
<path d="M176.126 61.7305H158.736C158.522 61.7305 158.349 61.5576 158.349 61.3435C158.349 61.1295 158.522 60.9565 158.736 60.9565H176.126C176.34 60.9565 176.512 61.1295 176.512 61.3435C176.512 61.5576 176.34 61.7305 176.126 61.7305Z" fill="#CCE6FF"/>
<path d="M176.126 63.8076H158.736C158.522 63.8076 158.349 63.6347 158.349 63.4207C158.349 63.2066 158.522 63.0337 158.736 63.0337H176.126C176.34 63.0337 176.512 63.2066 176.512 63.4207C176.512 63.6347 176.34 63.8076 176.126 63.8076Z" fill="#CCE6FF"/>
<path d="M155.058 68.1938C155.244 67.2098 154.597 66.2613 153.614 66.0754C152.631 65.8894 151.684 66.5364 151.498 67.5205C151.312 68.5045 151.959 69.453 152.942 69.6389C153.925 69.8249 154.872 69.1779 155.058 68.1938Z" fill="#CCE6FF"/>
<path d="M176.126 67.1983H158.736C158.522 67.1983 158.349 67.0253 158.349 66.8113C158.349 66.5973 158.522 66.4243 158.736 66.4243H176.126C176.34 66.4243 176.512 66.5973 176.512 66.8113C176.512 67.0253 176.34 67.1983 176.126 67.1983Z" fill="#CCE6FF"/>
<path d="M176.126 69.2749H158.736C158.522 69.2749 158.349 69.102 158.349 68.888C158.349 68.6739 158.522 68.501 158.736 68.501H176.126C176.34 68.501 176.512 68.6739 176.512 68.888C176.512 69.102 176.34 69.2749 176.126 69.2749Z" fill="#CCE6FF"/>
<path d="M176.126 71.3521H158.736C158.522 71.3521 158.349 71.1791 158.349 70.9651C158.349 70.7511 158.522 70.5781 158.736 70.5781H176.126C176.34 70.5781 176.512 70.7511 176.512 70.9651C176.512 71.1791 176.34 71.3521 176.126 71.3521Z" fill="#CCE6FF"/>
<path d="M155.059 75.7383C155.244 74.7542 154.598 73.8058 153.615 73.6198C152.632 73.4339 151.684 74.0809 151.498 75.0649C151.313 76.049 151.959 76.9974 152.942 77.1833C153.925 77.3693 154.873 76.7223 155.059 75.7383Z" fill="#CCE6FF"/>
<path d="M176.126 74.7427H158.736C158.522 74.7427 158.349 74.5698 158.349 74.3557C158.349 74.1417 158.522 73.9688 158.736 73.9688H176.126C176.34 73.9688 176.512 74.1417 176.512 74.3557C176.512 74.5698 176.34 74.7427 176.126 74.7427Z" fill="#CCE6FF"/>
<path d="M176.126 76.8194H158.736C158.522 76.8194 158.349 76.6464 158.349 76.4324C158.349 76.2184 158.522 76.0454 158.736 76.0454H176.126C176.34 76.0454 176.512 76.2184 176.512 76.4324C176.512 76.6464 176.34 76.8194 176.126 76.8194Z" fill="#CCE6FF"/>
<path d="M176.126 78.8965H158.736C158.522 78.8965 158.349 78.7236 158.349 78.5095C158.349 78.2955 158.522 78.1226 158.736 78.1226H176.126C176.34 78.1226 176.512 78.2955 176.512 78.5095C176.512 78.7236 176.34 78.8965 176.126 78.8965Z" fill="#CCE6FF"/>
<path d="M154.187 84.4991C155.049 83.9903 155.335 82.8786 154.827 82.016C154.319 81.1534 153.208 80.8665 152.347 81.3753C151.485 81.884 151.198 82.9957 151.706 83.8583C152.215 84.7209 153.325 85.0078 154.187 84.4991Z" fill="#CCE6FF"/>
<path d="M176.126 82.2847H158.736C158.522 82.2847 158.349 82.1117 158.349 81.8977C158.349 81.6837 158.522 81.5107 158.736 81.5107H176.126C176.34 81.5107 176.512 81.6837 176.512 81.8977C176.512 82.1117 176.34 82.2847 176.126 82.2847Z" fill="#CCE6FF"/>
<path d="M176.126 84.3618H158.736C158.522 84.3618 158.349 84.1889 158.349 83.9749C158.349 83.7608 158.522 83.5879 158.736 83.5879H176.126C176.34 83.5879 176.512 83.7608 176.512 83.9749C176.512 84.1889 176.34 84.3618 176.126 84.3618Z" fill="#CCE6FF"/>
<path d="M176.126 86.4385H158.736C158.522 86.4385 158.349 86.2656 158.349 86.0515C158.349 85.8375 158.522 85.6646 158.736 85.6646H176.126C176.34 85.6646 176.512 85.8375 176.512 86.0515C176.512 86.2656 176.34 86.4385 176.126 86.4385Z" fill="#CCE6FF"/>
<path d="M146.29 90.4902H125.543C125.009 90.4902 124.575 90.9241 124.575 91.4594V118.479C124.575 119.014 125.009 119.448 125.543 119.448H146.29C146.824 119.448 147.258 119.014 147.258 118.479V91.4594C147.258 90.9241 146.824 90.4902 146.29 90.4902Z" fill="#CCE6FF"/>
<path d="M153.052 94.1168C154.052 94.1168 154.863 93.305 154.863 92.3035C154.863 91.3021 154.052 90.4902 153.052 90.4902C152.051 90.4902 151.24 91.3021 151.24 92.3035C151.24 93.305 152.051 94.1168 153.052 94.1168Z" fill="#CCE6FF"/>
<path d="M175.91 91.6529H158.52C158.307 91.6529 158.134 91.4799 158.134 91.2659C158.134 91.0518 158.307 90.8789 158.52 90.8789H175.91C176.124 90.8789 176.297 91.0518 176.297 91.2659C176.297 91.4799 176.124 91.6529 175.91 91.6529Z" fill="#CCE6FF"/>
<path d="M175.91 93.73H158.52C158.307 93.73 158.134 93.5571 158.134 93.343C158.134 93.129 158.307 92.9561 158.52 92.9561H175.91C176.124 92.9561 176.297 93.129 176.297 93.343C176.297 93.5571 176.124 93.73 175.91 93.73Z" fill="#CCE6FF"/>
<path d="M175.91 95.8067H158.52C158.307 95.8067 158.134 95.6337 158.134 95.4197C158.134 95.2057 158.307 95.0327 158.52 95.0327H175.91C176.124 95.0327 176.297 95.2057 176.297 95.4197C176.297 95.6337 176.124 95.8067 175.91 95.8067Z" fill="#CCE6FF"/>
<path d="M154.812 100.258C155.041 99.2836 154.437 98.3076 153.463 98.0785C152.489 97.8495 151.514 98.4542 151.285 99.4291C151.056 100.404 151.66 101.38 152.634 101.609C153.608 101.838 154.583 101.233 154.812 100.258Z" fill="#CCE6FF"/>
<path d="M175.91 99.1973H158.52C158.307 99.1973 158.134 99.0243 158.134 98.8103C158.134 98.5963 158.307 98.4233 158.52 98.4233H175.91C176.124 98.4233 176.297 98.5963 176.297 98.8103C176.297 99.0243 176.124 99.1973 175.91 99.1973Z" fill="#CCE6FF"/>
<path d="M175.91 101.274H158.52C158.307 101.274 158.134 101.101 158.134 100.887C158.134 100.673 158.307 100.5 158.52 100.5H175.91C176.124 100.5 176.297 100.673 176.297 100.887C176.297 101.101 176.124 101.274 175.91 101.274Z" fill="#CCE6FF"/>
<path d="M175.912 102.576H158.522C158.309 102.576 158.136 102.749 158.136 102.963V102.964C158.136 103.178 158.309 103.351 158.522 103.351H175.912C176.126 103.351 176.299 103.178 176.299 102.964V102.963C176.299 102.749 176.126 102.576 175.912 102.576Z" fill="#CCE6FF"/>
<path d="M154.814 107.804C155.043 106.829 154.439 105.853 153.465 105.624C152.491 105.395 151.516 106 151.287 106.975C151.058 107.949 151.662 108.925 152.636 109.154C153.61 109.383 154.585 108.779 154.814 107.804Z" fill="#CCE6FF"/>
<path d="M175.91 106.74H158.52C158.307 106.74 158.134 106.567 158.134 106.353C158.134 106.139 158.307 105.966 158.52 105.966H175.91C176.124 105.966 176.297 106.139 176.297 106.353C176.297 106.567 176.124 106.74 175.91 106.74Z" fill="#CCE6FF"/>
<path d="M175.91 108.817H158.52C158.307 108.817 158.134 108.644 158.134 108.43C158.134 108.216 158.307 108.043 158.52 108.043H175.91C176.124 108.043 176.297 108.216 176.297 108.43C176.297 108.644 176.124 108.817 175.91 108.817Z" fill="#CCE6FF"/>
<path d="M175.91 110.894H158.52C158.307 110.894 158.134 110.721 158.134 110.507C158.134 110.293 158.307 110.12 158.52 110.12H175.91C176.124 110.12 176.297 110.293 176.297 110.507C176.297 110.721 176.124 110.894 175.91 110.894Z" fill="#CCE6FF"/>
<path d="M154.333 116.218C155.04 115.51 155.04 114.361 154.333 113.653C153.625 112.945 152.478 112.945 151.771 113.653C151.063 114.361 151.063 115.51 151.771 116.218C152.478 116.926 153.625 116.926 154.333 116.218Z" fill="#CCE6FF"/>
<path d="M175.91 114.284H158.52C158.307 114.284 158.134 114.111 158.134 113.897C158.134 113.683 158.307 113.51 158.52 113.51H175.91C176.124 113.51 176.297 113.683 176.297 113.897C176.297 114.111 176.124 114.284 175.91 114.284Z" fill="#CCE6FF"/>
<path d="M175.91 116.361H158.52C158.307 116.361 158.134 116.188 158.134 115.974C158.134 115.76 158.307 115.587 158.52 115.587H175.91C176.124 115.587 176.297 115.76 176.297 115.974C176.297 116.188 176.124 116.361 175.91 116.361Z" fill="#CCE6FF"/>
<path d="M175.91 118.438H158.52C158.307 118.438 158.134 118.265 158.134 118.051C158.134 117.837 158.307 117.664 158.52 117.664H175.91C176.124 117.664 176.297 117.837 176.297 118.051C176.297 118.265 176.124 118.438 175.91 118.438Z" fill="#CCE6FF"/>
<path d="M146.074 122.489H125.328C124.793 122.489 124.359 122.923 124.359 123.458V150.478C124.359 151.013 124.793 151.447 125.328 151.447H146.074C146.609 151.447 147.042 151.013 147.042 150.478V123.458C147.042 122.923 146.609 122.489 146.074 122.489Z" fill="#CCE6FF"/>
<path d="M152.836 126.116C153.836 126.116 154.647 125.304 154.647 124.303C154.647 123.301 153.836 122.489 152.836 122.489C151.835 122.489 151.024 123.301 151.024 124.303C151.024 125.304 151.835 126.116 152.836 126.116Z" fill="#CCE6FF"/>
<path d="M175.695 123.652H158.305C158.091 123.652 157.918 123.479 157.918 123.265C157.918 123.051 158.091 122.878 158.305 122.878H175.695C175.908 122.878 176.081 123.051 176.081 123.265C176.081 123.479 175.908 123.652 175.695 123.652Z" fill="#CCE6FF"/>
<path d="M175.695 125.729H158.305C158.091 125.729 157.918 125.556 157.918 125.342C157.918 125.128 158.091 124.955 158.305 124.955H175.695C175.908 124.955 176.081 125.128 176.081 125.342C176.081 125.556 175.908 125.729 175.695 125.729Z" fill="#CCE6FF"/>
<path d="M175.695 127.806H158.305C158.091 127.806 157.918 127.633 157.918 127.419C157.918 127.205 158.091 127.032 158.305 127.032H175.695C175.908 127.032 176.081 127.205 176.081 127.419C176.081 127.633 175.908 127.806 175.695 127.806Z" fill="#CCE6FF"/>
<path d="M154.598 132.257C154.826 131.282 154.222 130.306 153.248 130.077C152.274 129.848 151.299 130.452 151.071 131.427C150.842 132.402 151.446 133.378 152.42 133.607C153.394 133.836 154.369 133.231 154.598 132.257Z" fill="#CCE6FF"/>
<path d="M175.695 130.42H158.305C158.091 130.42 157.918 130.594 157.918 130.807V130.809C157.918 131.023 158.091 131.196 158.305 131.196H175.695C175.908 131.196 176.081 131.023 176.081 130.809V130.807C176.081 130.594 175.908 130.42 175.695 130.42Z" fill="#CCE6FF"/>
<path d="M175.695 133.272H158.305C158.091 133.272 157.918 133.099 157.918 132.885C157.918 132.67 158.091 132.498 158.305 132.498H175.695C175.908 132.498 176.081 132.67 176.081 132.885C176.081 133.099 175.908 133.272 175.695 133.272Z" fill="#CCE6FF"/>
<path d="M175.695 135.349H158.305C158.091 135.349 157.918 135.176 157.918 134.962C157.918 134.748 158.091 134.575 158.305 134.575H175.695C175.908 134.575 176.081 134.748 176.081 134.962C176.081 135.176 175.908 135.349 175.695 135.349Z" fill="#CCE6FF"/>
<path d="M154.597 139.799C154.825 138.825 154.221 137.849 153.247 137.62C152.273 137.391 151.298 137.995 151.07 138.97C150.841 139.945 151.445 140.921 152.419 141.15C153.393 141.379 154.368 140.774 154.597 139.799Z" fill="#CCE6FF"/>
<path d="M175.695 138.739H158.305C158.091 138.739 157.918 138.566 157.918 138.352C157.918 138.138 158.091 137.965 158.305 137.965H175.695C175.909 137.965 176.082 138.138 176.082 138.352C176.082 138.566 175.909 138.739 175.695 138.739Z" fill="#CCE6FF"/>
<path d="M175.695 140.815H158.305C158.091 140.815 157.918 140.643 157.918 140.428C157.918 140.214 158.091 140.042 158.305 140.042H175.695C175.909 140.042 176.082 140.214 176.082 140.428C176.082 140.643 175.909 140.815 175.695 140.815Z" fill="#CCE6FF"/>
<path d="M175.695 142.893H158.305C158.091 142.893 157.918 142.72 157.918 142.506C157.918 142.292 158.091 142.119 158.305 142.119H175.695C175.909 142.119 176.082 142.292 176.082 142.506C176.082 142.72 175.909 142.893 175.695 142.893Z" fill="#CCE6FF"/>
<path d="M154.118 148.216C154.825 147.508 154.825 146.36 154.118 145.652C153.41 144.944 152.263 144.944 151.556 145.652C150.848 146.36 150.848 147.508 151.556 148.216C152.263 148.924 153.41 148.924 154.118 148.216Z" fill="#CCE6FF"/>
<path d="M175.695 146.283H158.305C158.091 146.283 157.918 146.11 157.918 145.896C157.918 145.682 158.091 145.509 158.305 145.509H175.695C175.909 145.509 176.082 145.682 176.082 145.896C176.082 146.11 175.909 146.283 175.695 146.283Z" fill="#CCE6FF"/>
<path d="M175.695 148.36H158.305C158.091 148.36 157.918 148.187 157.918 147.973C157.918 147.759 158.091 147.586 158.305 147.586H175.695C175.909 147.586 176.082 147.759 176.082 147.973C176.082 148.187 175.909 148.36 175.695 148.36Z" fill="#CCE6FF"/>
<path d="M175.695 150.437H158.305C158.091 150.437 157.918 150.264 157.918 150.05C157.918 149.836 158.091 149.663 158.305 149.663H175.695C175.909 149.663 176.082 149.836 176.082 150.05C176.082 150.264 175.909 150.437 175.695 150.437Z" fill="#CCE6FF"/>
<path d="M142.973 60.8867H128.948C128.502 60.8867 128.14 61.2486 128.14 61.6949V72.7014C128.14 73.1477 128.502 73.5096 128.948 73.5096H142.973C143.419 73.5096 143.78 73.1477 143.78 72.7014V61.6949C143.78 61.2486 143.419 60.8867 142.973 60.8867Z" fill="#F4F7FD"/>
<path d="M143.3 75.3931H128.621C128.355 75.3931 128.14 75.6085 128.14 75.8742V75.9513C128.14 76.217 128.355 76.4324 128.621 76.4324H143.3C143.565 76.4324 143.78 76.217 143.78 75.9513V75.8742C143.78 75.6085 143.565 75.3931 143.3 75.3931Z" fill="#F4F7FD"/>
<path d="M143.3 77.6021H128.621C128.355 77.6021 128.14 77.8175 128.14 78.0832V78.1603C128.14 78.426 128.355 78.6414 128.621 78.6414H143.3C143.565 78.6414 143.78 78.426 143.78 78.1603V78.0832C143.78 77.8175 143.565 77.6021 143.3 77.6021Z" fill="#F4F7FD"/>
<path d="M143.3 79.8105H128.621C128.355 79.8105 128.14 80.026 128.14 80.2917V80.3687C128.14 80.6345 128.355 80.8499 128.621 80.8499H143.3C143.565 80.8499 143.78 80.6345 143.78 80.3687V80.2917C143.78 80.026 143.565 79.8105 143.3 79.8105Z" fill="#F4F7FD"/>
<path d="M143.3 82.0195H128.621C128.355 82.0195 128.14 82.2349 128.14 82.5007V82.5777C128.14 82.8435 128.355 83.0589 128.621 83.0589H143.3C143.565 83.0589 143.78 82.8435 143.78 82.5777V82.5007C143.78 82.2349 143.565 82.0195 143.3 82.0195Z" fill="#F4F7FD"/>
<path d="M143.3 84.2285H128.621C128.355 84.2285 128.14 84.4439 128.14 84.7097V84.7867C128.14 85.0524 128.355 85.2679 128.621 85.2679H143.3C143.565 85.2679 143.78 85.0524 143.78 84.7867V84.7097C143.78 84.4439 143.565 84.2285 143.3 84.2285Z" fill="#F4F7FD"/>
<path d="M142.973 92.7793H128.948C128.502 92.7793 128.14 93.1411 128.14 93.5875V104.594C128.14 105.04 128.502 105.402 128.948 105.402H142.973C143.419 105.402 143.78 105.04 143.78 104.594V93.5875C143.78 93.1411 143.419 92.7793 142.973 92.7793Z" fill="#F4F7FD"/>
<path d="M143.3 107.286H128.621C128.355 107.286 128.14 107.501 128.14 107.767V107.844C128.14 108.11 128.355 108.325 128.621 108.325H143.3C143.565 108.325 143.78 108.11 143.78 107.844V107.767C143.78 107.501 143.565 107.286 143.3 107.286Z" fill="#F4F7FD"/>
<path d="M143.3 109.495H128.621C128.355 109.495 128.14 109.71 128.14 109.976V110.053C128.14 110.319 128.355 110.534 128.621 110.534H143.3C143.565 110.534 143.78 110.319 143.78 110.053V109.976C143.78 109.71 143.565 109.495 143.3 109.495Z" fill="#F4F7FD"/>
<path d="M143.3 111.703H128.621C128.355 111.703 128.14 111.919 128.14 112.184V112.261C128.14 112.527 128.355 112.742 128.621 112.742H143.3C143.565 112.742 143.78 112.527 143.78 112.261V112.184C143.78 111.919 143.565 111.703 143.3 111.703Z" fill="#F4F7FD"/>
<path d="M143.3 113.912H128.621C128.355 113.912 128.14 114.128 128.14 114.393V114.47C128.14 114.736 128.355 114.951 128.621 114.951H143.3C143.565 114.951 143.78 114.736 143.78 114.47V114.393C143.78 114.128 143.565 113.912 143.3 113.912Z" fill="#F4F7FD"/>
<path d="M143.3 116.121H128.621C128.355 116.121 128.14 116.337 128.14 116.602V116.679C128.14 116.945 128.355 117.16 128.621 117.16H143.3C143.565 117.16 143.78 116.945 143.78 116.679V116.602C143.78 116.337 143.565 116.121 143.3 116.121Z" fill="#F4F7FD"/>
<path d="M142.973 124.67H128.948C128.502 124.67 128.14 125.032 128.14 125.479V136.485C128.14 136.931 128.502 137.293 128.948 137.293H142.973C143.419 137.293 143.78 136.931 143.78 136.485V125.479C143.78 125.032 143.419 124.67 142.973 124.67Z" fill="#F4F7FD"/>
<path d="M143.3 139.177H128.621C128.355 139.177 128.14 139.392 128.14 139.658V139.735C128.14 140.001 128.355 140.216 128.621 140.216H143.3C143.565 140.216 143.78 140.001 143.78 139.735V139.658C143.78 139.392 143.565 139.177 143.3 139.177Z" fill="#F4F7FD"/>
<path d="M143.3 141.386H128.621C128.355 141.386 128.14 141.601 128.14 141.867V141.944C128.14 142.21 128.355 142.425 128.621 142.425H143.3C143.565 142.425 143.78 142.21 143.78 141.944V141.867C143.78 141.601 143.565 141.386 143.3 141.386Z" fill="#F4F7FD"/>
<path d="M143.3 143.594H128.621C128.355 143.594 128.14 143.81 128.14 144.075V144.152C128.14 144.418 128.355 144.634 128.621 144.634H143.3C143.565 144.634 143.78 144.418 143.78 144.152V144.075C143.78 143.81 143.565 143.594 143.3 143.594Z" fill="#F4F7FD"/>
<path d="M143.3 145.803H128.621C128.355 145.803 128.14 146.019 128.14 146.284V146.361C128.14 146.627 128.355 146.843 128.621 146.843H143.3C143.565 146.843 143.78 146.627 143.78 146.361V146.284C143.78 146.019 143.565 145.803 143.3 145.803Z" fill="#F4F7FD"/>
<path d="M143.3 148.012H128.621C128.355 148.012 128.14 148.228 128.14 148.493V148.57C128.14 148.836 128.355 149.052 128.621 149.052H143.3C143.565 149.052 143.78 148.836 143.78 148.57V148.493C143.78 148.228 143.565 148.012 143.3 148.012Z" fill="#F4F7FD"/>
<path d="M313.135 53.7432H259.008C257.844 53.7432 256.901 54.6876 256.901 55.8527V154.783C256.901 155.948 257.844 156.892 259.008 156.892H313.135C314.299 156.892 315.243 155.948 315.243 154.783V55.8527C315.243 54.6876 314.299 53.7432 313.135 53.7432Z" fill="#F4F7FD"/>
<path d="M310.087 58.4963H293.154C292.844 58.4963 292.594 58.2463 292.594 57.9364C292.594 57.6265 292.844 57.3765 293.154 57.3765H310.087C310.397 57.3765 310.646 57.6265 310.646 57.9364C310.646 58.2463 310.397 58.4963 310.087 58.4963Z" fill="#CCE6FF"/>
<path d="M310.087 61.0578H293.154C292.844 61.0578 292.594 60.8078 292.594 60.4979C292.594 60.188 292.844 59.938 293.154 59.938H310.087C310.397 59.938 310.646 60.188 310.646 60.4979C310.646 60.8078 310.397 61.0578 310.087 61.0578Z" fill="#CCE6FF"/>
<path d="M310.087 63.6193H293.154C292.844 63.6193 292.594 63.3693 292.594 63.0594C292.594 62.7495 292.844 62.4995 293.154 62.4995H310.087C310.397 62.4995 310.646 62.7495 310.646 63.0594C310.646 63.3693 310.397 63.6193 310.087 63.6193Z" fill="#CCE6FF"/>
<path d="M310.087 66.1809H293.154C292.844 66.1809 292.594 65.9309 292.594 65.6209C292.594 65.311 292.844 65.061 293.154 65.061H310.087C310.397 65.061 310.646 65.311 310.646 65.6209C310.646 65.9309 310.397 66.1809 310.087 66.1809Z" fill="#CCE6FF"/>
<path d="M310.087 68.7409H293.154C292.844 68.7409 292.594 68.4909 292.594 68.181C292.594 67.8711 292.844 67.6211 293.154 67.6211H310.087C310.397 67.6211 310.646 67.8711 310.646 68.181C310.646 68.4909 310.397 68.7409 310.087 68.7409Z" fill="#CCE6FF"/>
<path d="M310.087 71.3024H293.154C292.844 71.3024 292.594 71.0524 292.594 70.7425C292.594 70.4326 292.844 70.1826 293.154 70.1826H310.087C310.397 70.1826 310.646 70.4326 310.646 70.7425C310.646 71.0524 310.397 71.3024 310.087 71.3024Z" fill="#CCE6FF"/>
<path d="M310.087 73.864H293.154C292.844 73.864 292.594 73.614 292.594 73.3041C292.594 72.9941 292.844 72.7441 293.154 72.7441H310.087C310.397 72.7441 310.646 72.9941 310.646 73.3041C310.646 73.614 310.397 73.864 310.087 73.864Z" fill="#CCE6FF"/>
<path d="M310.087 122.566H293.154C292.844 122.566 292.594 122.316 292.594 122.006C292.594 121.696 292.844 121.446 293.154 121.446H310.087C310.397 121.446 310.646 121.696 310.646 122.006C310.646 122.316 310.397 122.566 310.087 122.566Z" fill="#CCE6FF"/>
<path d="M310.087 125.128H293.154C292.844 125.128 292.594 124.878 292.594 124.568C292.594 124.258 292.844 124.008 293.154 124.008H310.087C310.397 124.008 310.646 124.258 310.646 124.568C310.646 124.878 310.397 125.128 310.087 125.128Z" fill="#CCE6FF"/>
<path d="M310.087 127.689H293.154C292.844 127.689 292.594 127.439 292.594 127.129C292.594 126.819 292.844 126.569 293.154 126.569H310.087C310.397 126.569 310.646 126.819 310.646 127.129C310.646 127.439 310.397 127.689 310.087 127.689Z" fill="#CCE6FF"/>
<path d="M310.087 130.251H293.154C292.844 130.251 292.594 130.001 292.594 129.691C292.594 129.381 292.844 129.131 293.154 129.131H310.087C310.397 129.131 310.646 129.381 310.646 129.691C310.646 130.001 310.397 130.251 310.087 130.251Z" fill="#CCE6FF"/>
<path d="M310.087 132.812H293.154C292.844 132.812 292.594 132.562 292.594 132.252C292.594 131.942 292.844 131.692 293.154 131.692H310.087C310.397 131.692 310.646 131.942 310.646 132.252C310.646 132.562 310.397 132.812 310.087 132.812Z" fill="#CCE6FF"/>
<path d="M310.087 135.374H293.154C292.844 135.374 292.594 135.124 292.594 134.814C292.594 134.504 292.844 134.254 293.154 134.254H310.087C310.397 134.254 310.646 134.504 310.646 134.814C310.646 135.124 310.397 135.374 310.087 135.374Z" fill="#CCE6FF"/>
<path d="M310.087 137.935H293.154C292.844 137.935 292.594 137.685 292.594 137.375C292.594 137.065 292.844 136.815 293.154 136.815H310.087C310.397 136.815 310.646 137.065 310.646 137.375C310.646 137.685 310.397 137.935 310.087 137.935Z" fill="#CCE6FF"/>
<path d="M310.087 140.81H293.154C292.844 140.81 292.594 140.56 292.594 140.25C292.594 139.94 292.844 139.69 293.154 139.69H310.087C310.397 139.69 310.646 139.94 310.646 140.25C310.646 140.56 310.397 140.81 310.087 140.81Z" fill="#CCE6FF"/>
<path d="M310.087 143.372H293.154C292.844 143.372 292.594 143.122 292.594 142.812C292.594 142.502 292.844 142.252 293.154 142.252H310.087C310.397 142.252 310.646 142.502 310.646 142.812C310.646 143.122 310.397 143.372 310.087 143.372Z" fill="#CCE6FF"/>
<path d="M310.087 145.933H293.154C292.844 145.933 292.594 145.683 292.594 145.373C292.594 145.063 292.844 144.813 293.154 144.813H310.087C310.397 144.813 310.646 145.063 310.646 145.373C310.646 145.683 310.397 145.933 310.087 145.933Z" fill="#CCE6FF"/>
<path d="M310.087 148.495H293.154C292.844 148.495 292.594 148.245 292.594 147.935C292.594 147.625 292.844 147.375 293.154 147.375H310.087C310.397 147.375 310.646 147.625 310.646 147.935C310.646 148.245 310.397 148.495 310.087 148.495Z" fill="#CCE6FF"/>
<path d="M310.087 151.056H293.154C292.844 151.056 292.594 150.806 292.594 150.496C292.594 150.187 292.844 149.937 293.154 149.937H310.087C310.397 149.937 310.646 150.187 310.646 150.496C310.646 150.806 310.397 151.056 310.087 151.056Z" fill="#CCE6FF"/>
<path d="M310.087 153.618H293.154C292.844 153.618 292.594 153.368 292.594 153.058C292.594 152.748 292.844 152.498 293.154 152.498H310.087C310.397 152.498 310.646 152.748 310.646 153.058C310.646 153.368 310.397 153.618 310.087 153.618Z" fill="#CCE6FF"/>
<path d="M310.087 76.4255H293.154C292.844 76.4255 292.594 76.1755 292.594 75.8656C292.594 75.5557 292.844 75.3057 293.154 75.3057H310.087C310.397 75.3057 310.646 75.5557 310.646 75.8656C310.646 76.1755 310.397 76.4255 310.087 76.4255Z" fill="#CCE6FF"/>
<path d="M310.087 78.987H293.154C292.844 78.987 292.594 78.737 292.594 78.4271C292.594 78.1172 292.844 77.8672 293.154 77.8672H310.087C310.397 77.8672 310.646 78.1172 310.646 78.4271C310.646 78.737 310.397 78.987 310.087 78.987Z" fill="#CCE6FF"/>
<path d="M310.087 81.5485H293.154C292.844 81.5485 292.594 81.2985 292.594 80.9886C292.594 80.6787 292.844 80.4287 293.154 80.4287H310.087C310.397 80.4287 310.646 80.6787 310.646 80.9886C310.646 81.2985 310.397 81.5485 310.087 81.5485Z" fill="#CCE6FF"/>
<path d="M310.087 84.1101H293.154C292.844 84.1101 292.594 83.8601 292.594 83.5502C292.594 83.2402 292.844 82.9902 293.154 82.9902H310.087C310.397 82.9902 310.646 83.2402 310.646 83.5502C310.646 83.8601 310.397 84.1101 310.087 84.1101Z" fill="#CCE6FF"/>
<path d="M310.087 86.6716H293.154C292.844 86.6716 292.594 86.4216 292.594 86.1117C292.594 85.8017 292.844 85.5518 293.154 85.5518H310.087C310.397 85.5518 310.646 85.8017 310.646 86.1117C310.646 86.4216 310.397 86.6716 310.087 86.6716Z" fill="#CCE6FF"/>
<path d="M310.087 88.1133H293.154C292.845 88.1133 292.594 88.364 292.594 88.6732C292.594 88.9824 292.845 89.2331 293.154 89.2331H310.087C310.396 89.2331 310.646 88.9824 310.646 88.6732C310.646 88.364 310.396 88.1133 310.087 88.1133Z" fill="#CCE6FF"/>
<path d="M310.087 91.7946H293.154C292.844 91.7946 292.594 91.5446 292.594 91.2347C292.594 90.9248 292.844 90.6748 293.154 90.6748H310.087C310.397 90.6748 310.646 90.9248 310.646 91.2347C310.646 91.5446 310.397 91.7946 310.087 91.7946Z" fill="#CCE6FF"/>
<path d="M310.087 93.2363H293.154C292.845 93.2363 292.594 93.487 292.594 93.7962C292.594 94.1055 292.845 94.3561 293.154 94.3561H310.087C310.396 94.3561 310.646 94.1055 310.646 93.7962C310.646 93.487 310.396 93.2363 310.087 93.2363Z" fill="#CCE6FF"/>
<path d="M310.087 96.9182H293.154C292.844 96.9182 292.594 96.6682 292.594 96.3583C292.594 96.0483 292.844 95.7983 293.154 95.7983H310.087C310.397 95.7983 310.646 96.0483 310.646 96.3583C310.646 96.6682 310.397 96.9182 310.087 96.9182Z" fill="#CCE6FF"/>
<path d="M287.199 102.719H262.055C261.745 102.719 261.496 102.469 261.496 102.159C261.496 101.849 261.745 101.599 262.055 101.599H287.199C287.509 101.599 287.759 101.849 287.759 102.159C287.759 102.469 287.509 102.719 287.199 102.719Z" fill="#CCE6FF"/>
<path d="M287.199 105.28H262.055C261.745 105.28 261.496 105.03 261.496 104.721C261.496 104.411 261.745 104.161 262.055 104.161H287.199C287.509 104.161 287.759 104.411 287.759 104.721C287.759 105.03 287.509 105.28 287.199 105.28Z" fill="#CCE6FF"/>
<path d="M287.199 107.842H262.055C261.745 107.842 261.496 107.592 261.496 107.282C261.496 106.972 261.745 106.722 262.055 106.722H287.199C287.509 106.722 287.759 106.972 287.759 107.282C287.759 107.592 287.509 107.842 287.199 107.842Z" fill="#CCE6FF"/>
<path d="M287.199 110.404H262.055C261.745 110.404 261.496 110.154 261.496 109.844C261.496 109.534 261.745 109.284 262.055 109.284H287.199C287.509 109.284 287.759 109.534 287.759 109.844C287.759 110.154 287.509 110.404 287.199 110.404Z" fill="#CCE6FF"/>
<path d="M287.199 112.966H262.055C261.745 112.966 261.496 112.716 261.496 112.406C261.496 112.096 261.745 111.846 262.055 111.846H287.199C287.509 111.846 287.759 112.096 287.759 112.406C287.759 112.716 287.509 112.966 287.199 112.966Z" fill="#CCE6FF"/>
<path d="M287.199 115.527H262.055C261.745 115.527 261.496 115.277 261.496 114.967C261.496 114.657 261.745 114.407 262.055 114.407H287.199C287.509 114.407 287.759 114.657 287.759 114.967C287.759 115.277 287.509 115.527 287.199 115.527Z" fill="#CCE6FF"/>
<path d="M287.199 118.089H262.055C261.745 118.089 261.496 117.839 261.496 117.529C261.496 117.219 261.745 116.969 262.055 116.969H287.199C287.509 116.969 287.759 117.219 287.759 117.529C287.759 117.839 287.509 118.089 287.199 118.089Z" fill="#CCE6FF"/>
<path d="M287.199 120.65H262.055C261.745 120.65 261.496 120.4 261.496 120.09C261.496 119.78 261.745 119.53 262.055 119.53H287.199C287.509 119.53 287.759 119.78 287.759 120.09C287.759 120.4 287.509 120.65 287.199 120.65Z" fill="#CCE6FF"/>
<path d="M287.199 123.212H262.055C261.745 123.212 261.496 122.962 261.496 122.652C261.496 122.342 261.745 122.092 262.055 122.092H287.199C287.509 122.092 287.759 122.342 287.759 122.652C287.759 122.962 287.509 123.212 287.199 123.212Z" fill="#CCE6FF"/>
<path d="M287.199 125.773H262.055C261.745 125.773 261.496 125.523 261.496 125.213C261.496 124.903 261.745 124.653 262.055 124.653H287.199C287.509 124.653 287.759 124.903 287.759 125.213C287.759 125.523 287.509 125.773 287.199 125.773Z" fill="#CCE6FF"/>
<path d="M287.199 128.335H262.055C261.745 128.335 261.496 128.085 261.496 127.775C261.496 127.465 261.745 127.215 262.055 127.215H287.199C287.509 127.215 287.759 127.465 287.759 127.775C287.759 128.085 287.509 128.335 287.199 128.335Z" fill="#CCE6FF"/>
<path d="M287.199 130.896H262.055C261.745 130.896 261.496 130.646 261.496 130.336C261.496 130.026 261.745 129.776 262.055 129.776H287.199C287.509 129.776 287.759 130.026 287.759 130.336C287.759 130.646 287.509 130.896 287.199 130.896Z" fill="#CCE6FF"/>
<path d="M287.199 133.458H262.055C261.745 133.458 261.496 133.208 261.496 132.898C261.496 132.588 261.745 132.338 262.055 132.338H287.199C287.509 132.338 287.759 132.588 287.759 132.898C287.759 133.208 287.509 133.458 287.199 133.458Z" fill="#CCE6FF"/>
<path d="M287.199 136.018H262.055C261.745 136.018 261.496 135.768 261.496 135.458C261.496 135.148 261.745 134.898 262.055 134.898H287.199C287.509 134.898 287.759 135.148 287.759 135.458C287.759 135.768 287.509 136.018 287.199 136.018Z" fill="#CCE6FF"/>
<path d="M287.199 138.579H262.055C261.745 138.579 261.496 138.329 261.496 138.019C261.496 137.709 261.745 137.459 262.055 137.459H287.199C287.509 137.459 287.759 137.709 287.759 138.019C287.759 138.329 287.509 138.579 287.199 138.579Z" fill="#CCE6FF"/>
<path d="M287.199 141.141H262.055C261.745 141.141 261.496 140.891 261.496 140.581C261.496 140.271 261.745 140.021 262.055 140.021H287.199C287.509 140.021 287.759 140.271 287.759 140.581C287.759 140.891 287.509 141.141 287.199 141.141Z" fill="#CCE6FF"/>
<path d="M287.199 143.534H262.055C261.745 143.534 261.496 143.284 261.496 142.974C261.496 142.665 261.745 142.415 262.055 142.415H287.199C287.509 142.415 287.759 142.665 287.759 142.974C287.759 143.284 287.509 143.534 287.199 143.534Z" fill="#CCE6FF"/>
<path d="M287.199 146.094H262.055C261.745 146.094 261.496 145.844 261.496 145.535C261.496 145.225 261.745 144.975 262.055 144.975H287.199C287.509 144.975 287.759 145.225 287.759 145.535C287.759 145.844 287.509 146.094 287.199 146.094Z" fill="#CCE6FF"/>
<path d="M287.199 148.656H262.055C261.745 148.656 261.496 148.406 261.496 148.096C261.496 147.786 261.745 147.536 262.055 147.536H287.199C287.509 147.536 287.759 147.786 287.759 148.096C287.759 148.406 287.509 148.656 287.199 148.656Z" fill="#CCE6FF"/>
<path d="M287.199 151.217H262.055C261.745 151.217 261.496 150.967 261.496 150.658C261.496 150.348 261.745 150.098 262.055 150.098H287.199C287.509 150.098 287.759 150.348 287.759 150.658C287.759 150.967 287.509 151.217 287.199 151.217Z" fill="#CCE6FF"/>
<path d="M287.199 153.779H262.055C261.745 153.779 261.496 153.529 261.496 153.219C261.496 152.909 261.745 152.659 262.055 152.659H287.199C287.509 152.659 287.759 152.909 287.759 153.219C287.759 153.529 287.509 153.779 287.199 153.779Z" fill="#CCE6FF"/>
<path d="M310.167 101.459H293.073C292.809 101.459 292.594 101.674 292.594 101.938V117.748C292.594 118.013 292.809 118.227 293.073 118.227H310.167C310.432 118.227 310.646 118.013 310.646 117.748V101.938C310.646 101.674 310.432 101.459 310.167 101.459Z" fill="#CCE6FF"/>
<path d="M287.114 57.3765H262.142C261.785 57.3765 261.496 57.6662 261.496 58.0237V96.2707C261.496 96.6281 261.785 96.9179 262.142 96.9179H287.114C287.471 96.9179 287.76 96.6281 287.76 96.2707V58.0237C287.76 57.6662 287.471 57.3765 287.114 57.3765Z" fill="#CCE6FF"/>
<path d="M284.9 59.8403H264.356C264.14 59.8403 263.966 60.0151 263.966 60.2307V70.9136C263.966 71.1292 264.14 71.304 264.356 71.304H284.9C285.116 71.304 285.29 71.1292 285.29 70.9136V60.2307C285.29 60.0151 285.116 59.8403 284.9 59.8403Z" fill="#F4F7FD"/>
<path d="M284.9 72.6963H264.356C264.14 72.6963 263.966 72.8711 263.966 73.0867V83.7695C263.966 83.9852 264.14 84.1599 264.356 84.1599H284.9C285.116 84.1599 285.29 83.9852 285.29 83.7695V73.0867C285.29 72.8711 285.116 72.6963 284.9 72.6963Z" fill="#F4F7FD"/>
<path d="M273.665 85.5518H264.305C264.117 85.5518 263.966 85.7035 263.966 85.8908V94.7295C263.966 94.9168 264.117 95.0686 264.305 95.0686H273.665C273.852 95.0686 274.004 94.9168 274.004 94.7295V85.8908C274.004 85.7035 273.852 85.5518 273.665 85.5518Z" fill="#F4F7FD"/>
<path d="M284.946 85.5518H275.352C275.162 85.5518 275.008 85.7058 275.008 85.8959V94.7244C275.008 94.9145 275.162 95.0686 275.352 95.0686H284.946C285.136 95.0686 285.29 94.9145 285.29 94.7244V85.8959C285.29 85.7058 285.136 85.5518 284.946 85.5518Z" fill="#F4F7FD"/>
<path d="M245.319 53.7432H191.191C190.028 53.7432 189.084 54.6876 189.084 55.8527V154.783C189.084 155.948 190.028 156.892 191.191 156.892H245.319C246.482 156.892 247.426 155.948 247.426 154.783V55.8527C247.426 54.6876 246.482 53.7432 245.319 53.7432Z" fill="#F4F7FD"/>
<path d="M215.729 58.4966H194.68C194.143 58.4966 193.708 58.932 193.708 59.4692V80.5386C193.708 81.0758 194.143 81.5112 194.68 81.5112H215.729C216.265 81.5112 216.7 81.0758 216.7 80.5386V59.4692C216.7 58.932 216.265 58.4966 215.729 58.4966Z" fill="#CCE6FF"/>
<path d="M242.913 58.4966H226.597C226.317 58.4966 226.089 58.7243 226.089 59.0051V59.387C226.089 59.6678 226.317 59.8955 226.597 59.8955H242.913C243.194 59.8955 243.421 59.6678 243.421 59.387V59.0051C243.421 58.7243 243.194 58.4966 242.913 58.4966Z" fill="#CCE6FF"/>
<path d="M242.913 60.9346H226.597C226.317 60.9346 226.089 61.1623 226.089 61.4431V61.825C226.089 62.1058 226.317 62.3335 226.597 62.3335H242.913C243.194 62.3335 243.421 62.1058 243.421 61.825V61.4431C243.421 61.1623 243.194 60.9346 242.913 60.9346Z" fill="#CCE6FF"/>
<path d="M242.913 63.3745H226.597C226.317 63.3745 226.089 63.6022 226.089 63.8831V64.2649C226.089 64.5458 226.317 64.7734 226.597 64.7734H242.913C243.194 64.7734 243.421 64.5458 243.421 64.2649V63.8831C243.421 63.6022 243.194 63.3745 242.913 63.3745Z" fill="#CCE6FF"/>
<path d="M242.913 65.813H226.597C226.317 65.813 226.089 66.0407 226.089 66.3215V66.7034C226.089 66.9842 226.317 67.2119 226.597 67.2119H242.913C243.194 67.2119 243.421 66.9842 243.421 66.7034V66.3215C243.421 66.0407 243.194 65.813 242.913 65.813Z" fill="#CCE6FF"/>
<path d="M242.913 68.2515H226.597C226.317 68.2515 226.089 68.4791 226.089 68.76V69.1418C226.089 69.4227 226.317 69.6504 226.597 69.6504H242.913C243.194 69.6504 243.421 69.4227 243.421 69.1418V68.76C243.421 68.4791 243.194 68.2515 242.913 68.2515Z" fill="#CCE6FF"/>
<path d="M242.913 70.6914H226.597C226.317 70.6914 226.089 70.9191 226.089 71.2V71.5818C226.089 71.8626 226.317 72.0903 226.597 72.0903H242.913C243.194 72.0903 243.421 71.8626 243.421 71.5818V71.2C243.421 70.9191 243.194 70.6914 242.913 70.6914Z" fill="#CCE6FF"/>
<path d="M242.913 73.1294H226.597C226.317 73.1294 226.089 73.3571 226.089 73.6379V74.0198C226.089 74.3006 226.317 74.5283 226.597 74.5283H242.913C243.194 74.5283 243.421 74.3006 243.421 74.0198V73.6379C243.421 73.3571 243.194 73.1294 242.913 73.1294Z" fill="#CCE6FF"/>
<path d="M242.913 75.5693H226.597C226.317 75.5693 226.089 75.797 226.089 76.0779V76.4597C226.089 76.7406 226.317 76.9683 226.597 76.9683H242.913C243.194 76.9683 243.421 76.7406 243.421 76.4597V76.0779C243.421 75.797 243.194 75.5693 242.913 75.5693Z" fill="#CCE6FF"/>
<path d="M242.913 78.0078H226.597C226.317 78.0078 226.089 78.2355 226.089 78.5164V78.8982C226.089 79.1791 226.317 79.4067 226.597 79.4067H242.913C243.194 79.4067 243.421 79.1791 243.421 78.8982V78.5164C243.421 78.2355 243.194 78.0078 242.913 78.0078Z" fill="#CCE6FF"/>
<path d="M242.913 80.4458H226.597C226.317 80.4458 226.089 80.6735 226.089 80.9543V81.3362C226.089 81.617 226.317 81.8447 226.597 81.8447H242.913C243.194 81.8447 243.421 81.617 243.421 81.3362V80.9543C243.421 80.6735 243.194 80.4458 242.913 80.4458Z" fill="#CCE6FF"/>
<path d="M221.09 61.969C221.762 61.969 222.307 61.4232 222.307 60.7499C222.307 60.0766 221.762 59.5308 221.09 59.5308C220.417 59.5308 219.872 60.0766 219.872 60.7499C219.872 61.4232 220.417 61.969 221.09 61.969Z" fill="#CCE6FF"/>
<path d="M221.09 71.5579C221.762 71.5579 222.307 71.0121 222.307 70.3388C222.307 69.6655 221.762 69.1196 221.09 69.1196C220.417 69.1196 219.872 69.6655 219.872 70.3388C219.872 71.0121 220.417 71.5579 221.09 71.5579Z" fill="#CCE6FF"/>
<path d="M222.309 79.9271C222.309 80.6001 221.764 81.1463 221.091 81.1463C220.419 81.1463 219.874 80.6001 219.874 79.9271C219.874 79.2542 220.419 78.708 221.091 78.708C221.764 78.708 222.309 79.2542 222.309 79.9271Z" fill="#CCE6FF"/>
<path d="M243.42 85.2676H193.708V88.1134H243.42V85.2676Z" fill="#CCE6FF"/>
<path d="M243.42 90.2026H193.708V93.0484H243.42V90.2026Z" fill="#CCE6FF"/>
<path d="M219.872 95.1392H193.708V97.985H219.872V95.1392Z" fill="#CCE6FF"/>
<path d="M243.042 101.661H194.086C193.877 101.661 193.708 101.831 193.708 102.04V102.973C193.708 103.182 193.877 103.351 194.086 103.351H243.042C243.251 103.351 243.42 103.182 243.42 102.973V102.04C243.42 101.831 243.251 101.661 243.042 101.661Z" fill="#CCE6FF"/>
<path d="M243.042 105.12H194.086C193.877 105.12 193.708 105.289 193.708 105.498V106.431C193.708 106.64 193.877 106.81 194.086 106.81H243.042C243.251 106.81 243.42 106.64 243.42 106.431V105.498C243.42 105.289 243.251 105.12 243.042 105.12Z" fill="#CCE6FF"/>
<path d="M243.042 108.581H194.086C193.877 108.581 193.708 108.75 193.708 108.959V109.892C193.708 110.101 193.877 110.271 194.086 110.271H243.042C243.251 110.271 243.42 110.101 243.42 109.892V108.959C243.42 108.75 243.251 108.581 243.042 108.581Z" fill="#CCE6FF"/>
<path d="M243.042 112.039H194.086C193.877 112.039 193.708 112.208 193.708 112.417V113.351C193.708 113.56 193.877 113.729 194.086 113.729H243.042C243.251 113.729 243.42 113.56 243.42 113.351V112.417C243.42 112.208 243.251 112.039 243.042 112.039Z" fill="#CCE6FF"/>
<path d="M243.042 115.498H194.086C193.877 115.498 193.708 115.667 193.708 115.876V116.81C193.708 117.019 193.877 117.188 194.086 117.188H243.042C243.251 117.188 243.42 117.019 243.42 116.81V115.876C243.42 115.667 243.251 115.498 243.042 115.498Z" fill="#CCE6FF"/>
<path d="M243.042 118.958H194.086C193.877 118.958 193.708 119.128 193.708 119.337V120.27C193.708 120.479 193.877 120.649 194.086 120.649H243.042C243.251 120.649 243.42 120.479 243.42 120.27V119.337C243.42 119.128 243.251 118.958 243.042 118.958Z" fill="#CCE6FF"/>
<path d="M218.592 122.417H193.977C193.828 122.417 193.708 122.537 193.708 122.686V123.838C193.708 123.987 193.828 124.107 193.977 124.107H218.592C218.741 124.107 218.861 123.987 218.861 123.838V122.686C218.861 122.537 218.741 122.417 218.592 122.417Z" fill="#CCE6FF"/>
<path d="M207.064 129.131H195.065C194.315 129.131 193.708 129.739 193.708 130.489V143.276C193.708 144.026 194.315 144.634 195.065 144.634H207.064C207.814 144.634 208.421 144.026 208.421 143.276V130.489C208.421 129.739 207.814 129.131 207.064 129.131Z" fill="#CCE6FF"/>
<path d="M224.564 129.064H212.564C211.815 129.064 211.208 129.672 211.208 130.422V143.21C211.208 143.959 211.815 144.567 212.564 144.567H224.564C225.313 144.567 225.92 143.959 225.92 143.21V130.422C225.92 129.672 225.313 129.064 224.564 129.064Z" fill="#CCE6FF"/>
<path d="M230.062 128.998H242.064C242.811 128.998 243.42 129.605 243.42 130.355V143.144C243.42 143.893 242.813 144.502 242.064 144.502H230.062C229.315 144.502 228.706 143.894 228.706 143.144V130.355C228.706 129.607 229.313 128.998 230.062 128.998Z" fill="#CCE6FF"/>
<path d="M243.198 147.584H193.93C193.808 147.584 193.708 147.684 193.708 147.807V148.829C193.708 148.952 193.808 149.051 193.93 149.051H243.198C243.32 149.051 243.42 148.952 243.42 148.829V147.807C243.42 147.684 243.32 147.584 243.198 147.584Z" fill="#CCE6FF"/>
<path d="M243.198 150.324H193.93C193.808 150.324 193.708 150.423 193.708 150.546V151.569C193.708 151.691 193.808 151.791 193.93 151.791H243.198C243.32 151.791 243.42 151.691 243.42 151.569V150.546C243.42 150.423 243.32 150.324 243.198 150.324Z" fill="#CCE6FF"/>
<path d="M223.269 153.062H193.881C193.785 153.062 193.708 153.139 193.708 153.234V154.356C193.708 154.452 193.785 154.529 193.881 154.529H223.269C223.364 154.529 223.442 154.452 223.442 154.356V153.234C223.442 153.139 223.364 153.062 223.269 153.062Z" fill="#CCE6FF"/>
<path d="M130.995 67.2495H92.2736C91.1975 67.2495 90.3252 68.1227 90.3252 69.1998V94.5962C90.3252 95.6733 91.1975 96.5465 92.2736 96.5465H130.995C132.071 96.5465 132.943 95.6733 132.943 94.5962V69.1998C132.943 68.1227 132.071 67.2495 130.995 67.2495Z" fill="#3C94F8"/>
<path d="M101.3 84.461C101.3 85.4866 101.148 86.2845 100.845 86.853C100.283 87.8906 99.2117 88.4095 97.6345 88.4095C96.7244 88.4095 95.9461 88.1629 95.3012 87.668C94.6563 87.1749 94.333 86.2965 94.333 85.0329V84.1647H95.8794V85.0329C95.8794 85.6955 96.0265 86.1921 96.3224 86.526C96.6184 86.8598 97.0785 87.0259 97.7029 87.0259C98.5804 87.0259 99.1552 86.7246 99.4255 86.1236C99.5914 85.7537 99.6735 85.0568 99.6735 84.0295V75.9287H101.302V84.461H101.3Z" fill="#102A54"/>
<path d="M113.801 77.6668C114.605 78.7421 115.009 80.1188 115.009 81.7968C115.009 83.6118 114.549 85.1203 113.629 86.3241C112.547 87.7367 111.008 88.4421 109.007 88.4421C107.139 88.4421 105.669 87.824 104.6 86.5877C103.647 85.396 103.17 83.8892 103.17 82.0691C103.17 80.4253 103.577 79.0178 104.393 77.8483C105.44 76.3484 106.99 75.5967 109.039 75.5967C111.088 75.5967 112.77 76.2867 113.801 77.6651V77.6668ZM112.351 85.4148C112.999 84.3738 113.322 83.1769 113.322 81.8242C113.322 80.3945 112.949 79.2421 112.202 78.3706C111.454 77.4973 110.435 77.0624 109.138 77.0624C107.842 77.0624 106.856 77.4939 106.063 78.3586C105.269 79.2233 104.872 80.4972 104.872 82.1804C104.872 83.5279 105.212 84.6632 105.893 85.5878C106.574 86.5124 107.677 86.9747 109.205 86.9747C110.733 86.9747 111.702 86.4542 112.351 85.4131V85.4148Z" fill="#102A54"/>
<path d="M116.925 75.9287H122.177C123.608 75.9287 124.626 76.3534 125.23 77.2026C125.584 77.7043 125.762 78.2848 125.762 78.9406C125.762 79.7077 125.545 80.3361 125.109 80.8275C124.883 81.0861 124.558 81.3241 124.134 81.5398C124.756 81.7778 125.222 82.0449 125.531 82.3429C126.077 82.872 126.349 83.6031 126.349 84.5363C126.349 85.3205 126.102 86.0294 125.608 86.6629C124.871 87.6115 123.697 88.0858 122.089 88.0858H116.923V75.9287H116.925ZM121.561 81.0672C122.262 81.0672 122.808 80.9713 123.198 80.7779C123.81 80.4748 124.116 79.9286 124.116 79.1392C124.116 78.3499 123.791 77.8105 123.14 77.5331C122.772 77.379 122.226 77.3019 121.503 77.3019H118.536V81.0672H121.561ZM122.117 86.6783C123.135 86.6783 123.862 86.3855 124.294 85.8017C124.566 85.4318 124.703 84.9849 124.703 84.461C124.703 83.5791 124.305 82.9764 123.509 82.6562C123.087 82.485 122.527 82.3994 121.831 82.3994H118.535V86.6783H122.115H122.117Z" fill="#102A54"/>
<path d="M127.589 103.787C127.346 103.787 127.115 103.676 126.958 103.471L121.053 95.7535H91.1464C89.9301 95.7535 88.9414 94.7638 88.9414 93.5464V68.15C88.9414 66.9326 89.9301 65.9429 91.1464 65.9429H129.868C131.084 65.9429 132.073 66.9326 132.073 68.15V93.5464C132.073 94.7638 131.084 95.7535 129.868 95.7535H128.397V102.983C128.397 103.332 128.183 103.63 127.853 103.743C127.765 103.772 127.676 103.787 127.589 103.787ZM91.1464 66.4566C90.2141 66.4566 89.4546 67.2168 89.4546 68.15V93.5464C89.4546 94.4796 90.2141 95.2398 91.1464 95.2398H121.308L127.367 103.159C127.483 103.311 127.642 103.272 127.688 103.257C127.735 103.241 127.883 103.174 127.883 102.983V95.2398H129.868C130.8 95.2398 131.56 94.4796 131.56 93.5464V68.15C131.56 67.2168 130.8 66.4566 129.868 66.4566H91.1464Z" fill="#102A54"/>
<path d="M220.989 15.7153H182.267C181.191 15.7153 180.319 16.5885 180.319 17.6656V43.062C180.319 44.1391 181.191 45.0123 182.267 45.0123H220.989C222.065 45.0123 222.937 44.1391 222.937 43.062V17.6656C222.937 16.5885 222.065 15.7153 220.989 15.7153Z" fill="#3C94F8"/>
<path d="M191.294 32.9248C191.294 33.9505 191.142 34.7484 190.839 35.3169C190.276 36.3545 189.206 36.8733 187.628 36.8733C186.718 36.8733 185.94 36.6268 185.293 36.1319C184.647 35.6371 184.325 34.7604 184.325 33.4967V32.6286H185.872V33.4967C185.872 34.1594 186.019 34.6559 186.315 34.9898C186.611 35.3237 187.071 35.4898 187.695 35.4898C188.573 35.4898 189.147 35.1884 189.418 34.5874C189.584 34.2176 189.666 33.5207 189.666 32.4933V24.3926H191.294V32.9248Z" fill="#102A54"/>
<path d="M203.796 26.1307C204.599 27.206 205.003 28.5827 205.003 30.2607C205.003 32.0757 204.543 33.5842 203.623 34.7879C202.542 36.2005 201.002 36.906 199.001 36.906C197.133 36.906 195.663 36.2879 194.594 35.0516C193.641 33.8599 193.164 32.3531 193.164 30.5329C193.164 28.8892 193.571 27.4817 194.387 26.3122C195.434 24.8122 196.984 24.0605 199.033 24.0605C201.082 24.0605 202.764 24.7506 203.796 26.129V26.1307ZM202.345 33.8787C202.993 32.8376 203.317 31.6408 203.317 30.2881C203.317 28.8583 202.944 27.706 202.196 26.8344C201.449 25.9612 200.429 25.5263 199.132 25.5263C197.836 25.5263 196.85 25.9577 196.057 26.8224C195.263 27.6871 194.866 28.9611 194.866 30.6442C194.866 31.9918 195.207 33.127 195.887 34.0516C196.568 34.9763 197.672 35.4386 199.199 35.4386C200.727 35.4386 201.697 34.9181 202.345 33.877V33.8787Z" fill="#102A54"/>
<path d="M206.921 24.3926H212.172C213.604 24.3926 214.622 24.8172 215.226 25.6665C215.58 26.1682 215.758 26.7487 215.758 27.4045C215.758 28.1716 215.54 28.8 215.104 29.2914C214.878 29.5499 214.553 29.7879 214.129 30.0037C214.752 30.2417 215.217 30.5088 215.527 30.8067C216.072 31.3358 216.344 32.067 216.344 33.0002C216.344 33.7844 216.098 34.4933 215.604 35.1268C214.866 36.0754 213.693 36.5497 212.085 36.5497H206.919V24.3926H206.921ZM211.556 29.5311C212.258 29.5311 212.803 29.4352 213.193 29.2417C213.806 28.9387 214.112 28.3924 214.112 27.6031C214.112 26.8137 213.787 26.2744 213.135 25.997C212.768 25.8429 212.222 25.7658 211.498 25.7658H208.532V29.5311H211.556ZM212.112 35.1422C213.13 35.1422 213.857 34.8494 214.29 34.2655C214.562 33.8957 214.699 33.4488 214.699 32.9248C214.699 32.043 214.3 31.4403 213.505 31.1201C213.082 30.9489 212.523 30.8632 211.827 30.8632H208.53V35.1422H212.111H212.112Z" fill="#102A54"/>
<path d="M217.583 52.2533C217.34 52.2533 217.109 52.142 216.952 51.9365L211.047 44.2193H181.14C179.924 44.2193 178.935 43.2296 178.935 42.0122V16.6158C178.935 15.3984 179.924 14.4087 181.14 14.4087H219.861C221.078 14.4087 222.066 15.3984 222.066 16.6158V42.0122C222.066 43.2296 221.078 44.2193 219.861 44.2193H218.39V51.4485C218.39 51.7978 218.176 52.0958 217.846 52.2088C217.759 52.2379 217.67 52.2533 217.583 52.2533ZM181.14 14.9224C180.208 14.9224 179.448 15.6826 179.448 16.6158V42.0122C179.448 42.9454 180.208 43.7056 181.14 43.7056H211.301L217.36 51.6249C217.477 51.7773 217.636 51.7379 217.682 51.7225C217.728 51.7071 217.879 51.6403 217.879 51.4485V43.7056H219.863C220.795 43.7056 221.555 42.9454 221.555 42.0122V16.6158C221.555 15.6826 220.795 14.9224 219.863 14.9224H181.142H181.14Z" fill="#102A54"/>
<path d="M304.855 61.2119L343.576 61.2119C344.652 61.2119 345.524 60.3387 345.524 59.2616V33.8652C345.524 32.7881 344.652 31.915 343.576 31.915L304.855 31.915C303.779 31.915 302.906 32.7881 302.906 33.8652V59.2616C302.906 60.3387 303.779 61.2119 304.855 61.2119Z" fill="#3C94F8"/>
<path d="M316.468 49.125C316.468 50.1507 316.316 50.9486 316.013 51.5171C315.45 52.5547 314.379 53.0735 312.802 53.0735C311.892 53.0735 311.114 52.8269 310.467 52.3321C309.821 51.8373 309.499 50.9606 309.499 49.6969V48.8288H311.045V49.6969C311.045 50.3596 311.193 50.8561 311.488 51.19C311.784 51.5239 312.245 51.69 312.869 51.69C313.746 51.69 314.321 51.3886 314.592 50.7876C314.757 50.4178 314.84 49.7209 314.84 48.6935V40.5928H316.468V49.125Z" fill="#102A54"/>
<path d="M328.967 42.3309C329.771 43.4062 330.175 44.7828 330.175 46.4609C330.175 48.2759 329.715 49.7844 328.795 50.9881C327.713 52.4007 326.174 53.1062 324.173 53.1062C322.305 53.1062 320.835 52.4881 319.766 51.2518C318.813 50.0601 318.336 48.5533 318.336 46.7331C318.336 45.0893 318.743 43.6819 319.559 42.5124C320.606 41.0124 322.156 40.2607 324.205 40.2607C326.254 40.2607 327.936 40.9508 328.967 42.3292V42.3309ZM327.517 50.0789C328.165 49.0378 328.488 47.841 328.488 46.4883C328.488 45.0585 328.115 43.9062 327.368 43.0346C326.62 42.1614 325.601 41.7264 324.304 41.7264C323.008 41.7264 322.022 42.1579 321.229 43.0226C320.435 43.8873 320.038 45.1613 320.038 46.8444C320.038 48.192 320.378 49.3272 321.059 50.2518C321.74 51.1765 322.843 51.6388 324.371 51.6388C325.899 51.6388 326.868 51.1182 327.517 50.0772V50.0789Z" fill="#102A54"/>
<path d="M332.093 40.5928H337.344C338.776 40.5928 339.794 41.0174 340.398 41.8667C340.752 42.3684 340.93 42.9489 340.93 43.6047C340.93 44.3718 340.712 45.0002 340.276 45.4916C340.05 45.7501 339.725 45.9881 339.301 46.2039C339.924 46.4419 340.389 46.709 340.699 47.0069C341.244 47.536 341.516 48.2672 341.516 49.2004C341.516 49.9846 341.27 50.6935 340.776 51.327C340.038 52.2756 338.865 52.7499 337.257 52.7499H332.091V40.5928H332.093ZM336.728 45.7313C337.43 45.7313 337.975 45.6354 338.365 45.4419C338.978 45.1389 339.284 44.5926 339.284 43.8033C339.284 43.0139 338.959 42.4746 338.307 42.1972C337.939 42.0431 337.394 41.966 336.67 41.966H333.704V45.7313H336.728ZM337.284 51.3424C338.302 51.3424 339.029 51.0496 339.462 50.4657C339.734 50.0959 339.871 49.649 339.871 49.125C339.871 48.2432 339.472 47.6405 338.677 47.3203C338.254 47.1491 337.695 47.0634 336.999 47.0634H333.702V51.3424H337.283H337.284Z" fill="#102A54"/>
<path d="M308.259 68.4515C308.172 68.4515 308.083 68.4378 307.995 68.407C307.665 68.294 307.451 67.9961 307.451 67.6468V60.4176H305.98C304.764 60.4176 303.775 59.4279 303.775 58.2104V32.8141C303.775 31.5966 304.764 30.6069 305.98 30.6069H344.702C345.918 30.6069 346.907 31.5966 346.907 32.8141V58.2104C346.907 59.4279 345.918 60.4176 344.702 60.4176H314.795L308.89 68.1348C308.734 68.3385 308.502 68.4515 308.259 68.4515ZM305.98 31.1206C305.048 31.1206 304.289 31.8809 304.289 32.8141V58.2104C304.289 59.1436 305.048 59.9039 305.98 59.9039H307.965V67.6468C307.965 67.8385 308.115 67.9053 308.16 67.9207C308.206 67.9361 308.365 67.9755 308.481 67.8231L314.54 59.9039H344.7C345.632 59.9039 346.392 59.1436 346.392 58.2104V32.8141C346.392 31.8809 345.632 31.1206 344.7 31.1206H305.979H305.98Z" fill="#102A54"/>
<path d="M236.764 183.002C243.019 172.179 244.691 159.565 241.47 147.483C238.247 135.401 230.518 125.299 219.705 119.037C208.893 112.775 196.291 111.102 184.221 114.326C172.151 117.552 162.058 125.288 155.802 136.112C149.547 146.935 147.875 159.549 151.096 171.631C153.739 181.54 159.415 190.117 167.337 196.336C166.547 196.38 165.792 196.808 165.366 197.546L131.635 255.9C130.962 257.065 131.359 258.554 132.523 259.229L141.731 264.563C142.894 265.236 144.382 264.838 145.056 263.674L178.788 205.32C179.214 204.582 179.21 203.714 178.854 203.005C188.189 206.78 198.446 207.431 208.347 204.787C220.417 201.561 230.51 193.825 236.765 183.002H236.764ZM176.03 194.594C166.68 189.18 159.997 180.444 157.212 169.997C154.425 159.551 155.871 148.644 161.281 139.284C166.69 129.925 175.418 123.235 185.854 120.448C196.291 117.658 207.187 119.105 216.537 124.521C225.888 129.935 232.571 138.671 235.356 149.118C238.142 159.565 236.697 170.472 231.286 179.831C225.877 189.19 217.15 195.88 206.713 198.668C196.277 201.457 185.38 200.01 176.03 194.594Z" fill="#102A54"/>
<path d="M223.615 188.907C239.113 173.394 239.113 148.243 223.615 132.73C208.117 117.217 182.99 117.217 167.493 132.73C151.995 148.243 151.995 173.394 167.493 188.907C182.99 204.42 208.117 204.42 223.615 188.907Z" fill="white"/>
<path opacity="0.61" d="M223.615 188.907C239.113 173.394 239.113 148.243 223.615 132.73C208.117 117.217 182.99 117.217 167.493 132.73C151.995 148.243 151.995 173.394 167.493 188.907C182.99 204.42 208.117 204.42 223.615 188.907Z" fill="#CCE6FF"/>
<mask id="mask2_2127_683" style="mask-type:luminance" maskUnits="userSpaceOnUse" x="155" y="121" width="81" height="80">
<path d="M223.615 188.907C239.113 173.394 239.113 148.243 223.615 132.73C208.117 117.217 182.99 117.217 167.493 132.73C151.995 148.243 151.995 173.394 167.493 188.907C182.99 204.42 208.117 204.42 223.615 188.907Z" fill="white"/>
</mask>
<g mask="url(#mask2_2127_683)">
<path opacity="0.26" d="M214.668 121.426L148.168 149.315L149.229 168.537L231.704 136.172L214.668 121.426Z" fill="#3C94F8"/>
<path opacity="0.18" d="M242.814 138.733L153.649 174.472L161.661 190.646L248.998 156.373L242.814 138.733Z" fill="#3C94F8"/>
<path opacity="0.1" d="M249.96 161.604L160.792 197.343L168.165 205.832L253.699 172.273L249.96 161.604Z" fill="#3C94F8"/>
</g>
<path opacity="0.14" d="M240.551 187.11C246.806 176.287 248.478 163.673 245.257 151.591C242.034 139.509 234.305 129.407 223.493 123.145C212.68 116.883 200.078 115.21 188.008 118.434C175.938 121.66 165.845 129.396 159.589 140.22C153.334 151.043 151.662 163.657 154.883 175.739C157.526 185.648 163.202 194.225 171.124 200.444C170.334 200.488 169.579 200.916 169.153 201.654L135.422 260.008C134.75 261.173 135.146 262.662 136.31 263.337L145.518 268.671C146.681 269.344 148.169 268.946 148.843 267.782L182.575 209.428C183.001 208.69 182.997 207.822 182.642 207.113C191.976 210.888 202.233 211.539 212.134 208.895C224.204 205.669 234.297 197.933 240.552 187.11H240.551ZM179.817 198.702C170.467 193.288 163.784 184.552 160.999 174.105C158.212 163.659 159.658 152.752 165.068 143.392C170.477 134.033 179.205 127.343 189.641 124.556C200.078 121.766 210.974 123.213 220.325 128.629C229.675 134.043 236.358 142.779 239.143 153.226C241.93 163.673 240.484 174.58 235.073 183.939C229.664 193.298 220.937 199.988 210.501 202.776C200.064 205.565 189.167 204.118 179.817 198.702Z" fill="#3C94F8"/>
<path d="M397.582 91.4116H265.109C255.852 91.4116 248.348 98.9225 248.348 108.188C248.348 117.453 255.852 124.964 265.109 124.964H397.582C406.838 124.964 414.342 117.453 414.342 108.188C414.342 98.9225 406.838 91.4116 397.582 91.4116Z" fill="#F4F7FD"/>
<path d="M395.241 124.71H262.768C253.244 124.71 245.495 116.953 245.495 107.419C245.495 97.8855 253.244 90.1289 262.768 90.1289H395.241C404.766 90.1289 412.515 97.8855 412.515 107.419C412.515 116.953 404.766 124.71 395.241 124.71ZM262.768 91.158C253.81 91.158 246.521 98.454 246.521 107.421C246.521 116.388 253.81 123.684 262.768 123.684H395.241C404.2 123.684 411.489 116.388 411.489 107.421C411.489 98.454 404.2 91.158 395.241 91.158H262.768Z" fill="#102A54"/>
<path d="M265.559 105.007H263.957C263.453 105.007 263.044 105.416 263.044 105.921V107.524C263.044 108.029 263.453 108.438 263.957 108.438H265.559C266.063 108.438 266.472 108.029 266.472 107.524V105.921C266.472 105.416 266.063 105.007 265.559 105.007Z" fill="#102A54"/>
<path d="M271.568 105.007H269.967C269.462 105.007 269.053 105.416 269.053 105.921V107.524C269.053 108.029 269.462 108.438 269.967 108.438H271.568C272.072 108.438 272.481 108.029 272.481 107.524V105.921C272.481 105.416 272.072 105.007 271.568 105.007Z" fill="#102A54"/>
<path d="M277.579 105.007H275.978C275.473 105.007 275.064 105.416 275.064 105.921V107.524C275.064 108.029 275.473 108.438 275.978 108.438H277.579C278.084 108.438 278.493 108.029 278.493 107.524V105.921C278.493 105.416 278.084 105.007 277.579 105.007Z" fill="#102A54"/>
<path d="M283.588 105.007H281.987C281.483 105.007 281.074 105.416 281.074 105.921V107.524C281.074 108.029 281.483 108.438 281.987 108.438H283.588C284.093 108.438 284.502 108.029 284.502 107.524V105.921C284.502 105.416 284.093 105.007 283.588 105.007Z" fill="#102A54"/>
<path d="M289.6 105.007H287.998C287.494 105.007 287.085 105.416 287.085 105.921V107.524C287.085 108.029 287.494 108.438 287.998 108.438H289.6C290.104 108.438 290.513 108.029 290.513 107.524V105.921C290.513 105.416 290.104 105.007 289.6 105.007Z" fill="#102A54"/>
<path d="M295.609 105.007H294.008C293.503 105.007 293.094 105.416 293.094 105.921V107.524C293.094 108.029 293.503 108.438 294.008 108.438H295.609C296.113 108.438 296.522 108.029 296.522 107.524V105.921C296.522 105.416 296.113 105.007 295.609 105.007Z" fill="#102A54"/>
<path d="M301.62 105.007H300.019C299.514 105.007 299.105 105.416 299.105 105.921V107.524C299.105 108.029 299.514 108.438 300.019 108.438H301.62C302.125 108.438 302.534 108.029 302.534 107.524V105.921C302.534 105.416 302.125 105.007 301.62 105.007Z" fill="#102A54"/>
<path d="M307.629 105.007H306.028C305.524 105.007 305.115 105.416 305.115 105.921V107.524C305.115 108.029 305.524 108.438 306.028 108.438H307.629C308.134 108.438 308.543 108.029 308.543 107.524V105.921C308.543 105.416 308.134 105.007 307.629 105.007Z" fill="#102A54"/>
<path d="M313.641 105.007H312.039C311.535 105.007 311.126 105.416 311.126 105.921V107.524C311.126 108.029 311.535 108.438 312.039 108.438H313.641C314.145 108.438 314.554 108.029 314.554 107.524V105.921C314.554 105.416 314.145 105.007 313.641 105.007Z" fill="#102A54"/>
<path d="M319.65 105.007H318.049C317.544 105.007 317.135 105.416 317.135 105.921V107.524C317.135 108.029 317.544 108.438 318.049 108.438H319.65C320.154 108.438 320.563 108.029 320.563 107.524V105.921C320.563 105.416 320.154 105.007 319.65 105.007Z" fill="#102A54"/>
<path d="M325.661 105.007H324.059C323.555 105.007 323.146 105.416 323.146 105.921V107.524C323.146 108.029 323.555 108.438 324.059 108.438H325.661C326.165 108.438 326.574 108.029 326.574 107.524V105.921C326.574 105.416 326.165 105.007 325.661 105.007Z" fill="#102A54"/>
<path d="M331.67 105.007H330.069C329.565 105.007 329.156 105.416 329.156 105.921V107.524C329.156 108.029 329.565 108.438 330.069 108.438H331.67C332.175 108.438 332.584 108.029 332.584 107.524V105.921C332.584 105.416 332.175 105.007 331.67 105.007Z" fill="#102A54"/>
<path d="M337.681 105.007H336.08C335.575 105.007 335.167 105.416 335.167 105.921V107.524C335.167 108.029 335.575 108.438 336.08 108.438H337.681C338.186 108.438 338.595 108.029 338.595 107.524V105.921C338.595 105.416 338.186 105.007 337.681 105.007Z" fill="#102A54"/>
<path d="M343.69 105.007H342.089C341.585 105.007 341.176 105.416 341.176 105.921V107.524C341.176 108.029 341.585 108.438 342.089 108.438H343.69C344.195 108.438 344.604 108.029 344.604 107.524V105.921C344.604 105.416 344.195 105.007 343.69 105.007Z" fill="#102A54"/>
<path d="M349.702 105.007H348.1C347.596 105.007 347.187 105.416 347.187 105.921V107.524C347.187 108.029 347.596 108.438 348.1 108.438H349.702C350.206 108.438 350.615 108.029 350.615 107.524V105.921C350.615 105.416 350.206 105.007 349.702 105.007Z" fill="#102A54"/>
<path d="M355.711 105.007H354.11C353.605 105.007 353.196 105.416 353.196 105.921V107.524C353.196 108.029 353.605 108.438 354.11 108.438H355.711C356.215 108.438 356.624 108.029 356.624 107.524V105.921C356.624 105.416 356.215 105.007 355.711 105.007Z" fill="#102A54"/>
<path d="M361.722 105.007H360.121C359.617 105.007 359.208 105.416 359.208 105.921V107.524C359.208 108.029 359.617 108.438 360.121 108.438H361.722C362.227 108.438 362.636 108.029 362.636 107.524V105.921C362.636 105.416 362.227 105.007 361.722 105.007Z" fill="#102A54"/>
<path d="M367.731 105.007H366.13C365.626 105.007 365.217 105.416 365.217 105.921V107.524C365.217 108.029 365.626 108.438 366.13 108.438H367.731C368.236 108.438 368.645 108.029 368.645 107.524V105.921C368.645 105.416 368.236 105.007 367.731 105.007Z" fill="#102A54"/>
<path d="M373.743 105.007H372.142C371.637 105.007 371.228 105.416 371.228 105.921V107.524C371.228 108.029 371.637 108.438 372.142 108.438H373.743C374.247 108.438 374.656 108.029 374.656 107.524V105.921C374.656 105.416 374.247 105.007 373.743 105.007Z" fill="#102A54"/>
<path d="M379.752 105.007H378.151C377.646 105.007 377.237 105.416 377.237 105.921V107.524C377.237 108.029 377.646 108.438 378.151 108.438H379.752C380.256 108.438 380.665 108.029 380.665 107.524V105.921C380.665 105.416 380.256 105.007 379.752 105.007Z" fill="#102A54"/>
<path d="M385.763 105.007H384.162C383.658 105.007 383.249 105.416 383.249 105.921V107.524C383.249 108.029 383.658 108.438 384.162 108.438H385.763C386.268 108.438 386.677 108.029 386.677 107.524V105.921C386.677 105.416 386.268 105.007 385.763 105.007Z" fill="#102A54"/>
<path d="M391.772 105.007H390.171C389.667 105.007 389.258 105.416 389.258 105.921V107.524C389.258 108.029 389.667 108.438 390.171 108.438H391.772C392.277 108.438 392.686 108.029 392.686 107.524V105.921C392.686 105.416 392.277 105.007 391.772 105.007Z" fill="#102A54"/>
<path d="M397.784 105.007H396.183C395.678 105.007 395.269 105.416 395.269 105.921V107.524C395.269 108.029 395.678 108.438 396.183 108.438H397.784C398.288 108.438 398.697 108.029 398.697 107.524V105.921C398.697 105.416 398.288 105.007 397.784 105.007Z" fill="#102A54"/>
<path d="M86.0045 269.833H72.7438C72.152 269.833 71.726 270.405 71.8954 270.973L77.6961 290.368C77.809 290.743 78.1528 291 78.5445 291H89.7644C90.1561 291 90.5 290.743 90.6129 290.368L96.4135 270.973C96.5829 270.405 96.1587 269.833 95.5651 269.833H86.0045Z" fill="#102A54"/>
<path d="M93.5003 260.381C93.8647 259.417 94.3368 258.453 95.1271 257.791C95.9174 257.128 97.0892 256.834 98.001 257.313C98.6715 257.666 99.366 258.414 100.026 258.044C100.439 257.815 100.529 257.27 100.557 256.799C100.649 255.263 100.628 253.534 101.722 252.454C102.799 251.389 104.542 251.411 106.008 251.786C106.701 251.962 107.466 252.195 108.097 251.858C108.434 251.678 108.673 251.359 108.874 251.032C109.577 249.883 110.023 248.411 111.253 247.861C113.232 246.978 115.538 249.212 117.574 248.469C118.369 248.178 119.052 247.445 119.895 247.526C120.312 247.565 120.687 247.81 120.976 248.113C121.958 249.142 121.968 250.948 120.99 251.983C119.691 253.356 117.309 253.164 115.995 254.524C114.732 255.83 114.837 258.198 113.297 259.161C112.001 259.97 110.251 259.306 108.809 259.818C107.652 260.227 106.898 261.309 106.149 262.282C105.399 263.255 104.448 264.246 103.223 264.321C102.58 264.361 101.94 264.136 101.299 264.195C99.4533 264.362 98.4252 266.698 96.5931 266.974C95.3632 267.159 94.3112 266.34 93.4593 265.558C93.1206 265.248 92.8058 264.897 92.6844 264.443C92.5373 263.898 92.6604 263.308 92.7802 262.77C92.9632 261.958 93.2027 261.16 93.4986 260.381H93.5003Z" fill="#6CB597"/>
<path d="M80.2667 256.554C79.2609 255.806 78.6519 254.364 79.2472 253.26C79.5363 252.722 80.0529 252.353 80.46 251.897C80.8671 251.443 81.1802 250.793 80.939 250.233C80.8192 249.955 80.5832 249.748 80.3539 249.55C79.5311 248.836 78.6947 248.094 78.1763 247.134C77.658 246.173 77.5109 244.94 78.0857 244.012C78.5185 243.312 79.2745 242.896 79.9314 242.401C80.5883 241.906 81.211 241.199 81.1562 240.377C81.0878 239.353 79.9845 238.421 80.395 237.481C80.8192 236.507 82.5162 236.56 82.7933 235.535C82.9318 235.024 82.6239 234.514 82.4973 234C82.2151 232.858 82.9883 231.56 84.1275 231.266C85.2668 230.971 86.5703 231.73 86.8782 232.867C87.0903 233.653 86.8748 234.528 87.1861 235.281C87.5898 236.259 88.7462 236.726 89.2525 237.654C90.1848 239.362 88.4913 241.384 88.6333 243.324C88.7838 245.375 90.9734 247.122 90.4089 249.099C90.1882 249.873 89.5656 250.486 89.35 251.264C89.0934 252.19 89.4544 253.157 89.7127 254.084C89.971 255.01 90.0941 256.106 89.4732 256.839C89.0148 257.381 88.2672 257.572 87.5659 257.681C85.6192 257.984 83.6845 257.895 81.8028 257.306C81.2554 257.135 80.7269 256.899 80.265 256.554H80.2667Z" fill="#6CB597"/>
<path d="M84.1105 274.711C84.066 274.711 84.0198 274.699 83.9788 274.674C83.8624 274.602 83.8265 274.448 83.9001 274.331C85.6877 271.458 87.9046 268.895 90.4928 266.713C93.3426 264.311 96.603 262.412 99.7557 260.578L121.167 248.116C121.285 248.046 121.438 248.087 121.506 248.205C121.575 248.324 121.535 248.476 121.417 248.544L100.005 261.006C96.8716 262.83 93.63 264.717 90.8126 267.092C88.2655 269.239 86.0811 271.763 84.3226 274.592C84.2764 274.667 84.1943 274.708 84.1122 274.708L84.1105 274.711Z" fill="#102A54"/>
<path d="M84.7984 273.653C84.665 273.653 84.5538 273.547 84.5504 273.412C84.1843 260.948 84.458 243.838 84.7522 231.679C84.7557 231.542 84.8668 231.434 85.0071 231.436C85.144 231.439 85.2517 231.552 85.25 231.691C84.9558 243.844 84.6821 260.945 85.0482 273.396C85.0516 273.533 84.9438 273.648 84.807 273.652H84.8001L84.7984 273.653Z" fill="#102A54"/>
<path d="M72.4511 266.931C71.0057 266.775 69.538 265.816 69.2779 264.383C69.071 263.241 69.538 261.77 68.5903 261.099C68.2584 260.864 67.8308 260.815 67.4254 260.794C65.9542 260.724 64.3428 260.917 63.1403 260.065C61.392 258.825 61.5665 256.255 61.4245 254.116C61.3886 253.567 61.2962 252.974 60.8994 252.592C60.4752 252.185 59.8354 252.14 59.264 252.012C57.1771 251.539 55.5469 249.519 55.5246 247.378C55.5178 246.724 55.6615 246.036 56.0977 245.546C56.3936 245.214 56.8025 245 57.2284 244.868C58.5849 244.45 60.1655 244.904 61.0961 245.976C61.6777 246.646 62.0113 247.517 62.6664 248.115C64.5173 249.803 67.5571 248.416 69.9382 249.195C71.2691 249.632 72.3331 250.803 72.641 252.171C72.9079 253.358 72.6496 254.678 73.2295 255.746C74.225 257.582 76.8388 257.479 78.7633 258.286C79.2268 258.479 79.6802 258.755 79.9419 259.183C80.1454 259.515 80.2156 259.911 80.2481 260.298C80.3781 261.864 79.882 263.455 78.9549 264.715C78.5392 265.28 77.9849 265.934 77.3281 266.222C76.8286 266.439 76.2435 266.361 75.7184 266.487C74.6304 266.749 73.587 267.051 72.4528 266.927L72.4511 266.931Z" fill="#6CB597"/>
<path d="M83.4882 275.067C83.3992 275.067 83.3137 275.02 83.2692 274.936C79.8446 268.523 72.4291 260.054 68.8659 255.984C67.7985 254.765 66.6934 253.503 65.4071 252.484C64.3499 251.647 63.1302 250.943 61.9499 250.262C59.786 249.012 57.5485 247.721 56.2177 245.558C56.1458 245.442 56.1817 245.288 56.2981 245.216C56.4144 245.144 56.5683 245.18 56.6402 245.296C57.9043 247.353 59.9896 248.556 62.198 249.83C63.3937 250.52 64.6287 251.234 65.715 252.092C67.0373 253.138 68.156 254.417 69.2388 255.654C72.814 259.738 80.2551 268.236 83.7072 274.699C83.7722 274.821 83.726 274.97 83.6045 275.035C83.5669 275.055 83.5275 275.064 83.4882 275.064V275.067Z" fill="#102A54"/>
<path d="M385.048 152.941C385.048 152.941 373.779 174.088 371.969 175.793C370.159 177.499 344.623 184.534 344.623 184.534L345.632 188.238C345.632 188.238 377.267 188.973 378.878 188.238C380.489 187.504 389.775 179.252 389.775 179.252L385.048 152.941Z" fill="#3C94F8"/>
<path d="M369.485 279.792L370.257 284.437H376.131L375.792 279.115L369.485 279.792Z" fill="#FFC0B1"/>
<path d="M348.363 278.853L348.686 285.18L353.927 284.776L354.706 278.901L348.363 278.853Z" fill="#FFC0B1"/>
<path d="M393.776 202.371C393.776 202.371 356.478 214.869 350.918 220.434C345.359 225.999 347.567 279.072 347.567 279.072H355.544L366.774 235.399C366.774 235.399 411.982 234.394 416.867 225.802C423.313 214.467 418.392 199.708 418.392 199.708L393.774 202.369L393.776 202.371Z" fill="#0C203F"/>
<path d="M396.063 205.315C396.063 205.315 365.046 223.398 361.107 229.401C357.169 235.404 368.914 279.853 368.914 279.853L376.179 279.076L378.045 239.836C378.045 239.836 418.257 230.557 421.033 221.972C424.695 210.647 417.567 198.373 417.567 198.373L396.061 205.315H396.063Z" fill="#102A54"/>
<path d="M354.803 283.547C354.803 283.547 350.054 284.867 347.856 283.547L338.344 288.519C337.055 289.192 336.248 290.526 336.248 291.981V292.084H354.964C355.528 292.084 355.961 291.584 355.881 291.024L354.803 283.545V283.547Z" fill="#0C203F"/>
<path d="M376.389 283.547C376.389 283.547 371.641 284.867 369.443 283.547L359.93 288.519C358.642 289.192 357.834 290.526 357.834 291.981V292.084H376.55C377.115 292.084 377.548 291.584 377.467 291.024L376.389 283.545V283.547Z" fill="#102A54"/>
<path d="M394.193 147.287L390.613 132.682C390.608 129.928 390.069 126.637 388.7 122.778C387.794 120.222 384.881 119.002 382.417 120.133L375.474 123.316C373.584 124.182 372.571 126.269 373.065 128.291C373.651 130.687 374.348 133.808 374.571 135.897C374.766 137.721 375.269 139.848 376.471 141.428C378.574 144.193 382.279 145.132 385.327 143.733L386.193 153.21L394.195 147.287H394.193Z" fill="#FFC0B1"/>
<path d="M377.031 134.983C376.812 134.983 376.6 134.901 376.435 134.749C376.232 134.56 376.131 134.293 376.158 134.017L376.711 128.345C376.721 128.235 376.82 128.155 376.93 128.165C377.039 128.175 377.12 128.273 377.109 128.384L376.557 134.057C376.541 134.208 376.598 134.353 376.709 134.456C376.82 134.559 376.969 134.603 377.118 134.577L378.844 134.276C378.953 134.257 379.056 134.329 379.075 134.439C379.094 134.548 379.022 134.651 378.912 134.67L377.186 134.971C377.135 134.98 377.084 134.985 377.032 134.985L377.031 134.983Z" fill="#102A54"/>
<path d="M381.245 134.971C381.245 134.971 379.136 136.894 376.438 137.576C376.438 137.576 380.357 139.969 381.245 134.971Z" fill="white"/>
<path d="M377.94 137.257C377.862 137.257 377.788 137.211 377.756 137.134C377.713 137.031 377.762 136.915 377.863 136.874C379.967 136.005 381.237 134.569 381.25 134.555C381.324 134.473 381.449 134.463 381.533 134.536C381.616 134.608 381.625 134.735 381.551 134.819C381.498 134.881 380.212 136.338 378.016 137.243C377.99 137.254 377.964 137.259 377.939 137.259L377.94 137.257Z" fill="#102A54"/>
<path d="M375.585 129.43C375.585 129.906 375.275 130.291 374.892 130.291C374.509 130.291 374.199 129.906 374.199 129.43C374.199 128.954 374.509 128.569 374.892 128.569C375.275 128.569 375.585 128.954 375.585 129.43Z" fill="#102A54"/>
<path d="M379.535 128.879C379.917 128.879 380.227 128.493 380.227 128.018C380.227 127.542 379.917 127.156 379.535 127.156C379.152 127.156 378.842 127.542 378.842 128.018C378.842 128.493 379.152 128.879 379.535 128.879Z" fill="#102A54"/>
<path d="M372.939 126.309C372.939 126.309 380.612 126.953 383.97 124.377C383.97 124.377 384.042 129.485 385.257 130.292C386.471 131.098 390.195 130.278 391.357 135.439C391.357 135.439 393.401 129.812 392.472 123.234C391.543 116.655 387.4 113.508 383.399 113.866C379.398 114.224 364.644 119.71 372.939 126.309Z" fill="#102A54"/>
<path d="M389.467 129.04C389.925 127.122 389.385 125.349 388.262 125.08C387.138 124.811 385.856 126.148 385.397 128.065C384.939 129.983 385.479 131.756 386.603 132.025C387.726 132.294 389.009 130.957 389.467 129.04Z" fill="#FFC0B1"/>
<path d="M386.524 130.042C386.418 130.042 386.329 129.958 386.324 129.852C386.216 127.59 388.023 125.737 388.1 125.66C388.177 125.581 388.303 125.581 388.382 125.66C388.461 125.737 388.461 125.864 388.382 125.943C388.365 125.96 386.622 127.749 386.721 129.833C386.726 129.943 386.64 130.037 386.531 130.042C386.528 130.042 386.524 130.042 386.521 130.042H386.524Z" fill="#102A54"/>
<path d="M394.198 145.12C394.198 145.12 416.422 154.506 420.485 202.974C420.485 202.974 410.904 208.789 387.46 205.412C387.46 205.412 388.088 200.178 387.869 198.025C387.65 195.875 380.683 163.009 385.048 152.941L394.198 145.12Z" fill="#3C94F8"/>
<path d="M385.325 143.933C385.247 143.933 385.173 143.887 385.141 143.812C385.098 143.711 385.146 143.593 385.247 143.55C385.278 143.536 387.491 142.552 388.76 139.091C388.798 138.987 388.913 138.934 389.017 138.973C389.121 139.011 389.174 139.125 389.135 139.23C387.797 142.872 385.498 143.879 385.401 143.92C385.375 143.93 385.349 143.935 385.324 143.935L385.325 143.933Z" fill="#102A54"/>
<path d="M393.627 156.423C393.627 156.423 386.644 174.307 384.574 177.035C382.505 179.763 350.951 184.896 350.951 184.896L352.815 190.031C352.815 190.031 385.178 191.898 389.126 190.031C393.074 188.165 401.935 181.785 404.423 172.76C406.91 163.734 401.484 152.377 393.627 156.423Z" fill="#3C94F8"/>
<path d="M377.875 191.063C367.43 191.063 353.674 190.281 352.805 190.229C352.695 190.223 352.61 190.128 352.617 190.019C352.623 189.909 352.712 189.825 352.827 189.831C353.15 189.849 385.185 191.673 389.042 189.849C392.388 188.267 401.641 182.101 404.231 172.706C404.26 172.6 404.371 172.537 404.477 172.566C404.583 172.595 404.646 172.704 404.617 172.812C401.988 182.353 392.607 188.606 389.215 190.211C387.862 190.851 383.32 191.063 377.879 191.063H377.875Z" fill="#102A54"/>
<path d="M350.951 185.096C350.855 185.096 350.769 185.026 350.754 184.928C350.737 184.819 350.81 184.716 350.918 184.699C361.804 182.927 382.818 179.021 384.415 176.913C386.444 174.239 393.37 156.529 393.44 156.349C393.482 156.246 393.596 156.195 393.699 156.236C393.801 156.277 393.853 156.392 393.812 156.494C393.526 157.226 386.795 174.437 384.732 177.155C382.638 179.913 352.273 184.882 350.98 185.093C350.969 185.094 350.958 185.096 350.947 185.096H350.951Z" fill="#102A54"/>
<path d="M385.325 176.003C385.219 176.003 385.13 175.919 385.125 175.813C385.118 175.672 384.465 161.741 385.125 156.397C385.139 156.287 385.238 156.21 385.347 156.222C385.457 156.236 385.534 156.335 385.522 156.445C384.865 161.755 385.517 175.652 385.522 175.792C385.527 175.902 385.442 175.996 385.332 176.001C385.329 176.001 385.325 176.001 385.322 176.001L385.325 176.003Z" fill="#102A54"/>
<path d="M351.534 185.757C351.534 185.757 347.723 184.873 346.065 185.526C345.467 185.76 338.746 191.192 338.746 191.192H348.676L352.518 189.212L351.534 185.759V185.757Z" fill="#FFC0B1"/>
<path d="M344.827 185.286C344.827 185.286 341.653 185.047 340.624 185.286C339.592 185.526 334.315 187.94 334.315 188.238C334.315 188.536 334.85 188.95 335.552 188.784C336.253 188.62 342.189 187 342.189 187C342.189 187 338.809 188.661 338.313 189.361C337.818 190.063 337.365 191.19 337.365 191.19H343.59L345.629 188.238L344.825 185.286H344.827Z" fill="#FFC0B1"/>
<path d="M339.005 191.363C338.988 191.363 338.971 191.361 338.954 191.354C338.863 191.325 338.814 191.229 338.841 191.14C338.85 191.115 339.043 190.512 339.642 189.911C340.223 189.329 344.784 186.195 344.979 186.062C345.057 186.009 345.163 186.028 345.216 186.106C345.269 186.185 345.251 186.291 345.172 186.344C345.124 186.377 340.442 189.594 339.884 190.154C339.344 190.695 339.169 191.238 339.168 191.243C339.146 191.317 339.077 191.363 339.005 191.363Z" fill="#102A54"/>
<path d="M402.185 237.805L389.126 292.086H390.211L406.845 237.514L402.185 237.805Z" fill="#102A54"/>
<path d="M420.528 237.805L433.587 292.086H432.502L415.868 237.514L420.528 237.805Z" fill="#102A54"/>
<path d="M390.768 235.602C390.768 235.602 409.941 225.941 419.074 211.489C423.865 203.909 424.425 184.085 428.38 183.781C432.335 183.477 435.985 189.872 437.201 196.875C438.418 203.878 438.418 230.788 429.596 235.603C420.774 240.418 390.269 242.55 388.182 241.636C386.095 240.723 385.401 238.706 390.767 235.603L390.768 235.602Z" fill="#7FC0FF"/>
<path d="M399.173 196.611H263.525C262.669 196.611 261.977 195.918 261.977 195.062C261.977 194.206 262.669 193.512 263.525 193.512H399.173C400.028 193.512 400.721 194.206 400.721 195.062C400.721 195.918 400.028 196.611 399.173 196.611Z" fill="#7FC0FF"/>
<path d="M271.469 292.086H269.072L287.518 196.611H289.914L271.469 292.086Z" fill="#7FC0FF"/>
<path d="M391.23 292.086H393.627L375.18 196.611H372.785L391.23 292.086Z" fill="#7FC0FF"/>
<path d="M312.86 191.192L297.184 154.575C297.024 154.197 296.652 153.954 296.242 153.954C295.505 153.954 295.008 154.707 295.299 155.385L311.622 193.514H350.374C351.014 193.514 351.534 192.993 351.534 192.353C351.534 191.713 351.014 191.192 350.374 191.192H312.859H312.86Z" fill="#102A54"/>
<path d="M510.316 292.365H0.684244C0.306199 292.365 0 292.058 0 291.68C0 291.302 0.306199 290.995 0.684244 290.995H510.316C510.694 290.995 511 291.302 511 291.68C511 292.058 510.694 292.365 510.316 292.365Z" fill="#102A54"/>
<path d="M213.722 159.556C213.722 149.916 205.914 142.1 196.282 142.1C186.649 142.1 178.842 149.914 178.842 159.556C178.842 164.791 181.145 169.486 184.79 172.686C185.108 167.659 188.642 163.506 193.359 162.272C191.186 161.193 189.693 158.952 189.693 156.359C189.693 152.716 192.643 149.764 196.282 149.764C199.92 149.764 202.871 152.717 202.871 156.359C202.871 158.952 201.378 161.193 199.205 162.272C203.922 163.506 207.456 167.659 207.774 172.686C211.419 169.487 213.722 164.791 213.722 159.556Z" fill="#80C0FF"/>
<path d="M199.205 162.272C201.378 161.193 202.871 158.952 202.871 156.359C202.871 152.716 199.92 149.764 196.282 149.764C192.643 149.764 189.693 152.717 189.693 156.359C189.693 158.952 191.186 161.193 193.358 162.272C188.642 163.506 185.108 167.659 184.79 172.686C187.859 175.379 191.879 177.013 196.282 177.013C200.685 177.013 204.705 175.379 207.774 172.686C207.456 167.659 203.921 163.506 199.205 162.272Z" fill="#3C94F8"/>
<path d="M384.336 43.4097C381.016 43.0159 378.007 45.3908 377.614 48.7143C378.007 45.3908 375.634 42.3789 372.314 41.9851C368.994 41.5913 365.985 43.9662 365.591 47.2897C365.545 47.6732 365.538 48.0534 365.564 48.4249C365.692 58.4708 375.975 62.5631 375.975 62.5631C375.975 62.5631 386.928 60.9879 389.396 51.2502C389.508 50.894 389.59 50.5242 389.636 50.1406C390.029 46.8171 387.657 43.8052 384.336 43.4114V43.4097Z" fill="#80C0FF"/>
</g>
<defs>
<clipPath id="clip0_2127_683">
<rect width="511" height="302" fill="white"/>
</clipPath>
</defs>
</svg>
