<svg width="39" height="32" viewBox="0 0 39 32" fill="none" xmlns="http://www.w3.org/2000/svg">
<path d="M21.2143 17.0597L20.3572 15.3454L21.2143 17.0597ZM36.75 6.41683H34.8334V25.5835H36.75H38.6667V6.41683H36.75ZM32.9167 29.4168V27.5002H6.08336V29.4168V31.3335H32.9167V29.4168ZM2.25003 25.5835H4.1667V6.41683H2.25003H0.333363V25.5835H2.25003ZM6.08336 2.5835V4.50016H32.9167V2.5835V0.666829H6.08336V2.5835ZM36.75 9.29183L35.8929 7.57751L20.3572 15.3454L21.2143 17.0597L22.0715 18.774L37.6072 11.0061L36.75 9.29183ZM17.7857 17.0597L18.6428 15.3454L3.10719 7.57751L2.25003 9.29183L1.39287 11.0061L16.9285 18.774L17.7857 17.0597ZM2.25003 6.41683H4.1667C4.1667 5.35828 5.02482 4.50016 6.08336 4.50016V2.5835V0.666829C2.90772 0.666829 0.333363 3.2412 0.333363 6.41683H2.25003ZM6.08336 29.4168V27.5002C5.02482 27.5002 4.1667 26.642 4.1667 25.5835H2.25003H0.333363C0.333363 28.7591 2.90773 31.3335 6.08336 31.3335V29.4168ZM36.75 25.5835H34.8334C34.8334 26.642 33.9752 27.5002 32.9167 27.5002V29.4168V31.3335C36.0923 31.3335 38.6667 28.7591 38.6667 25.5835H36.75ZM21.2143 17.0597L20.3572 15.3454C19.8176 15.6152 19.1824 15.6152 18.6428 15.3454L17.7857 17.0597L16.9285 18.774C18.5473 19.5834 20.4527 19.5834 22.0715 18.774L21.2143 17.0597ZM36.75 6.41683H38.6667C38.6667 3.24119 36.0923 0.666829 32.9167 0.666829V2.5835V4.50016C33.9752 4.50016 34.8334 5.35828 34.8334 6.41683H36.75Z" fill="#002496"/>
</svg>
