<svg width="65" height="65" viewBox="0 0 65 65" fill="none" xmlns="http://www.w3.org/2000/svg">
<g clip-path="url(#clip0_1_139)">
<path d="M55.1242 55.6013C67.6228 43.1028 67.6228 22.8386 55.1242 10.3401C42.6257 -2.15844 22.3616 -2.15844 9.86303 10.3401C-2.63551 22.8386 -2.63551 43.1028 9.86303 55.6013C22.3616 68.0998 42.6257 68.0998 55.1242 55.6013Z" fill="#75A2A3"/>
<path d="M32.4923 63.26C49.2216 63.26 62.7834 49.6982 62.7834 32.9688C62.7834 16.2395 49.2216 2.67773 32.4923 2.67773C15.763 2.67773 2.20117 16.2395 2.20117 32.9688C2.20117 49.6982 15.763 63.26 32.4923 63.26Z" fill="#B7D3DB"/>
<path d="M32.4919 60.0151C47.4283 60.0151 59.5366 47.9068 59.5366 32.9704C59.5366 18.0341 47.4283 5.92578 32.4919 5.92578C17.5556 5.92578 5.44727 18.0341 5.44727 32.9704C5.44727 47.9068 17.5556 60.0151 32.4919 60.0151Z" fill="#134157"/>
<path d="M30.4922 4.43555L32.4942 30.0103V4.43555H30.4922Z" fill="#B7D3DB"/>
<path d="M32.4941 4.43555V30.0103L34.4871 4.43555H32.4941Z" fill="#75A2A3"/>
<path d="M23.1777 5.93319L31.7267 30.1102L25.1076 5.41016L23.1777 5.93319Z" fill="#B7D3DB"/>
<path d="M25.1074 5.4105L31.7266 30.1105L27.0373 4.89648L25.1074 5.4105Z" fill="#75A2A3"/>
<path d="M16.4941 9.26075L31.0129 30.4077L18.2256 8.25977L16.4941 9.26075Z" fill="#B7D3DB"/>
<path d="M18.2246 8.26075L31.012 30.4087L19.956 7.25977L18.2246 8.26075Z" fill="#75A2A3"/>
<path d="M10.9043 14.2107L30.401 30.8758L12.3201 12.7949L10.9043 14.2107Z" fill="#B7D3DB"/>
<path d="M12.3204 12.7947L30.4013 30.8756L13.7362 11.3789L12.3204 12.7947Z" fill="#75A2A3"/>
<path d="M6.7832 20.4346L29.9321 31.4905L7.78419 18.7031L6.7832 20.4346Z" fill="#B7D3DB"/>
<path d="M7.7832 18.7041L29.9312 31.4915L8.78419 16.9727L7.7832 18.7041Z" fill="#75A2A3"/>
<path d="M4.42188 27.5138L29.6359 32.2031L4.93589 25.584L4.42188 27.5138Z" fill="#B7D3DB"/>
<path d="M4.93555 25.5841L29.6356 32.2033L5.45859 23.6543L4.93555 25.5841Z" fill="#75A2A3"/>
<path d="M3.96094 34.9637L29.5357 32.9707H3.96094V34.9637Z" fill="#B7D3DB"/>
<path d="M3.96094 32.9707H29.5357L3.96094 30.9688V32.9707Z" fill="#75A2A3"/>
<path d="M5.45859 42.2845L29.6356 33.7266L4.93555 40.3457L5.45859 42.2845Z" fill="#B7D3DB"/>
<path d="M4.93589 40.3457L29.6359 33.7266L4.42188 38.4159L4.93589 40.3457Z" fill="#75A2A3"/>
<path d="M8.78419 48.9583L29.9312 34.4395L7.7832 47.2268L8.78419 48.9583Z" fill="#B7D3DB"/>
<path d="M7.78419 47.2268L29.9321 34.4395L6.7832 45.4954L7.78419 47.2268Z" fill="#75A2A3"/>
<path d="M13.7362 54.5475L30.4013 35.0508L12.3204 53.1317L13.7362 54.5475Z" fill="#B7D3DB"/>
<path d="M12.3201 53.1317L30.401 35.0508L10.9043 51.7158L12.3201 53.1317Z" fill="#75A2A3"/>
<path d="M19.956 58.6685L31.012 35.5195L18.2246 57.6675L19.956 58.6685Z" fill="#B7D3DB"/>
<path d="M18.2256 57.6675L31.0129 35.5195L16.4941 56.6665L18.2256 57.6675Z" fill="#75A2A3"/>
<path d="M27.0373 61.0324L31.7266 35.8184L25.1074 60.5184L27.0373 61.0324Z" fill="#B7D3DB"/>
<path d="M25.1076 60.5184L31.7267 35.8184L23.1777 60.0044L25.1076 60.5184Z" fill="#75A2A3"/>
<path d="M34.4871 61.4947L32.4941 35.9199V61.4947H34.4871Z" fill="#B7D3DB"/>
<path d="M32.4942 61.4947V35.9199L30.4922 61.4947H32.4942Z" fill="#75A2A3"/>
<path d="M41.808 60.0044L33.25 35.8184L39.8691 60.5184L41.808 60.0044Z" fill="#B7D3DB"/>
<path d="M39.8691 60.5184L33.25 35.8184L37.9393 61.0324L39.8691 60.5184Z" fill="#75A2A3"/>
<path d="M48.4817 56.6665L33.9629 35.5195L46.7503 57.6675L48.4817 56.6665Z" fill="#B7D3DB"/>
<path d="M46.7503 57.6675L33.9629 35.5195L45.0188 58.6685L46.7503 57.6675Z" fill="#75A2A3"/>
<path d="M54.0729 51.7158L34.5762 35.0508L52.657 53.1317L54.0729 51.7158Z" fill="#B7D3DB"/>
<path d="M52.657 53.1317L34.5762 35.0508L51.2412 54.5475L52.657 53.1317Z" fill="#75A2A3"/>
<path d="M58.1939 45.4954L35.0449 34.4395L57.1929 47.2268L58.1939 45.4954Z" fill="#B7D3DB"/>
<path d="M57.1929 47.2268L35.0449 34.4395L56.1919 48.9583L57.1929 47.2268Z" fill="#75A2A3"/>
<path d="M60.5558 38.4159L35.3418 33.7266L60.0418 40.3457L60.5558 38.4159Z" fill="#B7D3DB"/>
<path d="M60.0418 40.3457L35.3418 33.7266L59.5278 42.2845L60.0418 40.3457Z" fill="#75A2A3"/>
<path d="M61.0181 30.9688L35.4434 32.9707H61.0181V30.9688Z" fill="#B7D3DB"/>
<path d="M61.0181 32.9707H35.4434L61.0181 34.9637V32.9707Z" fill="#75A2A3"/>
<path d="M59.5278 23.6543L35.3418 32.2033L60.0418 25.5841L59.5278 23.6543Z" fill="#B7D3DB"/>
<path d="M60.0418 25.584L35.3418 32.2031L60.5558 27.5138L60.0418 25.584Z" fill="#75A2A3"/>
<path d="M56.1919 16.9727L35.0449 31.4915L57.1929 18.7041L56.1919 16.9727Z" fill="#B7D3DB"/>
<path d="M57.1929 18.7031L35.0449 31.4905L58.1939 20.4346L57.1929 18.7031Z" fill="#75A2A3"/>
<path d="M51.2412 11.3789L34.5762 30.8756L52.657 12.7947L51.2412 11.3789Z" fill="#B7D3DB"/>
<path d="M52.657 12.7949L34.5762 30.8758L54.0729 14.2107L52.657 12.7949Z" fill="#75A2A3"/>
<path d="M45.0188 7.25977L33.9629 30.4087L46.7503 8.26075L45.0188 7.25977Z" fill="#B7D3DB"/>
<path d="M46.7503 8.25977L33.9629 30.4077L48.4817 9.26075L46.7503 8.25977Z" fill="#75A2A3"/>
<path d="M37.9393 4.89648L33.25 30.1105L39.8691 5.4105L37.9393 4.89648Z" fill="#B7D3DB"/>
<path d="M39.8691 5.41016L33.25 30.1102L41.808 5.93319L39.8691 5.41016Z" fill="#75A2A3"/>
<path d="M38.9673 32.969C38.9673 29.3889 36.0635 26.4941 32.4924 26.4941C28.9213 26.4941 26.0176 29.3979 26.0176 32.969C26.0176 36.5401 28.9213 39.4438 32.4924 39.4438C36.0635 39.4438 38.9673 36.5401 38.9673 32.969Z" fill="#FCC947"/>
<g style="mix-blend-mode:multiply">
<path d="M32.493 5.41211C17.2798 5.41211 4.94336 17.7486 4.94336 32.9618C4.94336 48.175 17.2798 60.5114 32.493 60.5114C47.7062 60.5114 60.0427 48.175 60.0427 32.9618C60.0427 17.7486 47.7062 5.41211 32.493 5.41211ZM32.493 57.5716C18.9031 57.5716 7.88319 46.5517 7.88319 32.9618C7.88319 19.3718 18.9031 8.35194 32.493 8.35194C46.083 8.35194 57.1029 19.3718 57.1029 32.9618C57.1029 46.5517 46.083 57.5716 32.493 57.5716Z" fill="#B7D3DB"/>
</g>
<path d="M32.4923 2.67773C15.7641 2.67773 2.20117 16.2406 2.20117 32.9688C2.20117 49.697 15.7641 63.26 32.4923 63.26C49.2205 63.26 62.7834 49.697 62.7834 32.9688C62.7834 16.2406 49.2115 2.67773 32.4923 2.67773ZM32.4923 60.0135C17.5496 60.0135 5.44761 47.9025 5.44761 32.9688C5.44761 18.0352 17.5496 5.91516 32.4923 5.91516C47.4349 5.91516 59.5369 18.0262 59.5369 32.9598C59.5369 47.8935 47.4259 60.0045 32.4923 60.0045V60.0135Z" fill="#B7D3DB"/>
<g style="mix-blend-mode:screen">
<path d="M37.904 32.9713H36.2357C36.2357 30.9062 34.5583 29.2198 32.4842 29.2198C30.4101 29.2198 28.7328 30.8972 28.7328 32.9713H27.0645C27.0645 29.9864 29.4903 27.5605 32.4752 27.5605C35.4601 27.5605 37.8859 29.9864 37.8859 32.9713H37.904Z" fill="#B7D3DB"/>
</g>
</g>
<defs>
<clipPath id="clip0_1_139">
<rect width="64" height="64" fill="white" transform="translate(0.484375 0.964844)"/>
</clipPath>
</defs>
</svg>
