<svg width="77" height="65" viewBox="0 0 77 65" fill="none" xmlns="http://www.w3.org/2000/svg">
<g clip-path="url(#clip0_1_230)">
<path d="M57.1916 20.0813H23.2498V52.8582H57.1916V20.0813Z" fill="#75A2A3"/>
<path d="M57.1877 35.2273H23.2459V37.7091H57.1877V35.2273Z" fill="#2D6873"/>
<path d="M57.1877 31.0906H23.2459V33.5724H57.1877V31.0906Z" fill="#2D6873"/>
<path d="M57.1877 26.9536H23.2459V29.4354H57.1877V26.9536Z" fill="#2D6873"/>
<path d="M57.1877 22.8132H23.2459V25.2951H57.1877V22.8132Z" fill="#2D6873"/>
<path d="M57.1877 39.3757H23.2459V41.8576H57.1877V39.3757Z" fill="#2D6873"/>
<path d="M57.1877 43.5125H23.2459V45.9943H57.1877V43.5125Z" fill="#2D6873"/>
<path d="M57.1877 47.6514H23.2459V50.1332H57.1877V47.6514Z" fill="#2D6873"/>
<g style="mix-blend-mode:multiply" opacity="0.5">
<path d="M49.3876 20.0808H24.9295V29.4328H49.3876V20.0808Z" fill="#75A2A3"/>
</g>
<path d="M70.2769 18.7512H57.1952V54.1902H70.2769C73.8888 54.1902 76.8143 51.2646 76.8143 47.6528V25.2955C76.8143 21.6837 73.8888 18.7582 70.2769 18.7582V18.7512Z" fill="#2D6873"/>
<path d="M47.4266 12.5442H26.8924V26.5478H47.4266V12.5442Z" fill="#2D6873"/>
<path d="M42.456 9.23169H31.8561L26.8924 12.5454H47.4266L42.456 9.23169Z" fill="#2D6873"/>
<path d="M43.7828 17.5899C43.7828 15.6211 42.1883 14.0266 40.2194 14.0266C38.2506 14.0266 36.6561 15.6211 36.6561 17.5899C36.6561 19.5587 38.2506 21.1532 40.2194 21.1532C42.1883 21.1532 43.7828 19.5587 43.7828 17.5899Z" fill="#134157"/>
<path d="M1.81259 35.4758H15.6292C16.1768 35.4758 16.6275 35.9195 16.6275 36.4741C16.6275 37.0287 16.1838 37.4724 15.6292 37.4724H1.81259C1.26492 37.4724 0.814301 37.0287 0.814301 36.4741C0.814301 35.9195 1.25798 35.4758 1.81259 35.4758Z" fill="#75A2A3"/>
<g style="mix-blend-mode:multiply" opacity="0.5">
<path d="M57.1982 20.0808H51.2362V52.8577H57.1982V20.0808Z" fill="#75A2A3"/>
</g>
<path d="M23.2539 18.7512H18.4081V54.1902H23.2539V18.7512Z" fill="#2D6873"/>
<path d="M18.4102 21.1555H13.5643V51.7972H18.4102V21.1555Z" fill="#2D6873"/>
<path d="M8.7186 43.9245L13.5645 48.8951V24.0559L8.7186 29.0265V43.9245Z" fill="#2D6873"/>
<g style="mix-blend-mode:multiply" opacity="0.5">
<path d="M18.4077 21.1589H16.5428V51.8006H18.4077V21.1589Z" fill="#75A2A3"/>
</g>
<g style="mix-blend-mode:multiply" opacity="0.5">
<path d="M13.5625 24.0535L12.0096 25.6479V47.2981L13.5625 48.8926V24.0535Z" fill="#75A2A3"/>
</g>
<path d="M42.6253 45.9871H28.7186V52.8572H42.6253V45.9871Z" fill="#B7D3DB"/>
<path d="M47.4311 52.864H23.9159V55.5261H47.4311V52.864Z" fill="#B7D3DB"/>
<path d="M32.6918 50.7927C33.446 50.7927 34.0575 50.1812 34.0575 49.427C34.0575 48.6727 33.446 48.0613 32.6918 48.0613C31.9375 48.0613 31.326 48.6727 31.326 49.427C31.326 50.1812 31.9375 50.7927 32.6918 50.7927Z" fill="#75A2A3"/>
<path d="M38.6526 50.7927C39.4069 50.7927 40.0183 50.1812 40.0183 49.427C40.0183 48.6727 39.4069 48.0613 38.6526 48.0613C37.8983 48.0613 37.2869 48.6727 37.2869 49.427C37.2869 50.1812 37.8983 50.7927 38.6526 50.7927Z" fill="#75A2A3"/>
</g>
<defs>
<clipPath id="clip0_1_230">
<rect width="76" height="64" fill="white" transform="translate(0.814301 0.378906)"/>
</clipPath>
</defs>
</svg>
