<svg width="63" height="65" viewBox="0 0 63 65" fill="none" xmlns="http://www.w3.org/2000/svg">
<g clip-path="url(#clip0_1_270)">
<g clip-path="url(#clip1_1_270)">
<path d="M14.9617 24.0098H6.47083V36.3748H14.9617V24.0098Z" fill="#134157"/>
<path d="M48.5949 39.875V46.24C48.5949 48.5582 47.7061 50.6647 46.254 52.2401H55.6126V39.875H48.5949Z" fill="#134157"/>
<path d="M48.28 21.3317H14.9591V46.2232C14.9591 51.0975 18.8865 55.0498 23.7301 55.0498H39.8215C42.3631 55.0498 44.6505 53.9615 46.2532 52.2232C47.7053 50.6479 48.5941 48.5414 48.5941 46.2232V21.3008C48.4921 21.3203 48.3869 21.3317 48.28 21.3317ZM44.6101 22.7442C45.2965 22.7442 45.8534 23.3046 45.8534 23.9954C45.8534 24.6861 45.2965 25.2465 44.6101 25.2465C43.9237 25.2465 43.3668 24.6861 43.3668 23.9954C43.3668 23.3046 43.9237 22.7442 44.6101 22.7442ZM17.3032 23.9954C17.3032 23.3046 17.8601 22.7442 18.5465 22.7442C19.2329 22.7442 19.7898 23.3046 19.7898 23.9954C19.7898 24.6861 19.2329 25.2465 18.5465 25.2465C17.8601 25.2465 17.3032 24.6861 17.3032 23.9954ZM18.5465 52.2249C17.8601 52.2249 17.3032 51.6644 17.3032 50.9737C17.3032 50.2829 17.8601 49.7225 18.5465 49.7225C19.2329 49.7225 19.7898 50.2829 19.7898 50.9737C19.7898 51.6644 19.2329 52.2249 18.5465 52.2249ZM44.6101 52.2249C43.9237 52.2249 43.3668 51.6644 43.3668 50.9737C43.3668 50.2829 43.9237 49.7225 44.6101 49.7225C45.2965 49.7225 45.8534 50.2829 45.8534 50.9737C45.8534 51.6644 45.2965 52.2249 44.6101 52.2249ZM40.9838 51.6612C38.3661 53.4728 35.1948 54.535 31.7774 54.535C22.7911 54.535 15.5079 47.2039 15.5079 38.1622C15.5079 37.5529 15.5419 36.9534 15.6066 36.3621C16.1328 31.5268 18.7505 27.3253 22.5289 24.6926C25.1547 22.8631 28.3422 21.7895 31.7774 21.7895C40.7637 21.7895 48.0469 29.1206 48.0469 38.1622C48.0469 38.7357 48.0178 39.3026 47.9595 39.8614C47.4576 44.7569 44.8124 49.0138 40.9822 51.6628L40.9838 51.6612Z" fill="#134157"/>
<path d="M31.7774 21.8005C28.3406 21.8005 25.1547 22.8741 22.5289 24.7036C18.7489 27.3362 16.1312 31.5377 15.6067 36.373C15.5419 36.9644 15.5079 37.5655 15.5079 38.1732C15.5079 47.2165 22.7928 54.5459 31.7774 54.5459C35.1948 54.5459 38.3662 53.4853 40.9839 51.6721C44.8125 49.0232 47.4593 44.7662 47.9611 39.8707C48.0178 39.3119 48.0486 38.745 48.0486 38.1715C48.0486 29.1283 40.7637 21.7988 31.7791 21.7988L31.7774 21.8005ZM40.9839 48.8896C38.5151 51.0384 35.2968 52.3401 31.7774 52.3401C24.0037 52.3401 17.7015 45.9979 17.7015 38.1748C17.7015 37.5655 17.7403 36.9644 17.8148 36.3746C18.26 32.8459 19.9954 29.7229 22.5289 27.4975C25.0025 25.3259 28.237 24.0096 31.7774 24.0096C39.5512 24.0096 45.8534 30.3517 45.8534 38.1748C45.8534 38.7499 45.8178 39.3168 45.753 39.874C45.3273 43.4646 43.5659 46.6414 40.9855 48.8912L40.9839 48.8896Z" fill="#75A2A3"/>
<path d="M13.0183 15.5344V12.615C13.0183 12.5873 13.0216 12.5612 13.0216 12.5352H11.3315C9.63168 12.5352 8.25403 13.9215 8.25403 15.6321V16.7367C8.25403 18.4473 9.63168 19.8336 11.3315 19.8336H13.0313C13.0232 19.7652 13.0167 19.6952 13.0167 19.6235V15.5344H13.0183Z" fill="#75A2A3"/>
<path d="M42.9291 9.48047H39.0406C38.2069 9.48047 37.5173 10.0914 37.3829 10.8929H44.5852C44.4525 10.0914 43.7612 9.48047 42.9275 9.48047H42.9291Z" fill="#75A2A3"/>
<path d="M34.5328 9.48047C33.6991 9.48047 33.0095 10.0914 32.8751 10.8929H36.1889C36.0562 10.0914 35.3649 9.48047 34.5312 9.48047H34.5328Z" fill="#75A2A3"/>
<path d="M49.9357 20.0554C50.5751 19.8159 51.03 19.1968 51.03 18.4702C51.03 17.7436 50.601 17.1604 49.9923 16.9062V19.622C49.9923 19.7719 49.9713 19.9152 49.9357 20.0537V20.0554Z" fill="#75A2A3"/>
<path d="M31.7772 24.0094C28.2368 24.0094 25.0023 25.3258 22.5287 27.4974C19.9936 29.7228 18.2598 32.8458 17.8146 36.3745C17.7401 36.9643 17.7013 37.5654 17.7013 38.1747C17.7013 45.9978 24.0035 52.3399 31.7772 52.3399C35.2983 52.3399 38.5165 51.0399 40.9837 48.8895C43.5658 46.6413 45.3255 43.4628 45.7512 39.8722C45.8176 39.3151 45.8516 38.7481 45.8516 38.1731C45.8516 30.35 39.5494 24.0078 31.7756 24.0078L31.7772 24.0094ZM31.7772 42.6401C29.3263 42.6401 27.34 40.6412 27.34 38.1747C27.34 35.7082 29.3263 33.7093 31.7772 33.7093C34.2282 33.7093 36.2145 35.7082 36.2145 38.1747C36.2145 40.6412 34.2282 42.6401 31.7772 42.6401Z" fill="#91BFC0"/>
<path d="M13.0197 15.5352V19.6243C13.0197 20.5643 13.7773 21.3462 14.7308 21.3462H48.2816C49.0554 21.3462 49.7402 20.8184 49.936 20.056C50.0137 19.7546 49.9927 20.0478 49.9927 15.5352H13.0197Z" fill="#48797A"/>
<path d="M32.9615 42.4795C35.3232 41.8213 36.7076 39.361 36.0535 36.9842C35.3994 34.6075 32.9546 33.2144 30.5928 33.8726C28.2311 34.5309 26.8468 36.9912 27.5008 39.3679C28.1549 41.7446 30.5997 43.1377 32.9615 42.4795Z" fill="#B7D3DB"/>
<path d="M18.7488 52.2207C19.4266 52.11 19.8868 51.4673 19.7768 50.7852C19.6668 50.1032 19.0282 49.64 18.3504 49.7507C17.6726 49.8614 17.2124 50.5041 17.3224 51.1862C17.4324 51.8682 18.071 52.3314 18.7488 52.2207Z" fill="#75A2A3"/>
<path d="M45.8539 50.9875C45.8539 50.2967 45.297 49.7363 44.6106 49.7363C43.9242 49.7363 43.3673 50.2967 43.3673 50.9875C43.3673 51.6782 43.9242 52.2387 44.6106 52.2387C45.297 52.2387 45.8539 51.6782 45.8539 50.9875Z" fill="#75A2A3"/>
<path d="M44.6106 25.2621C45.297 25.2621 45.8539 24.7017 45.8539 24.0109C45.8539 23.3202 45.297 22.7598 44.6106 22.7598C43.9242 22.7598 43.3673 23.3202 43.3673 24.0109C43.3673 24.7017 43.9242 25.2621 44.6106 25.2621Z" fill="#75A2A3"/>
<path d="M18.5461 22.7578C17.8597 22.7578 17.3029 23.3182 17.3029 24.009H19.7894C19.7894 23.3182 19.2325 22.7578 18.5461 22.7578Z" fill="#75A2A3"/>
<path d="M18.5461 25.2609C19.2325 25.2609 19.7894 24.7005 19.7894 24.0098H17.3029C17.3029 24.7005 17.8597 25.2609 18.5461 25.2609Z" fill="#75A2A3"/>
<path d="M48.2804 10.8923H14.7296C13.8117 10.8923 13.0638 11.6221 13.0217 12.5344C13.0153 12.6599 13.0185 12.2135 13.0185 15.5336H49.9916V12.6142C49.9916 11.6628 49.2258 10.8906 48.2804 10.8906V10.8923Z" fill="#609D9E"/>
<path d="M6.46967 24.0098H4.44934V36.3748H6.46967V24.0098Z" fill="#91BFC0"/>
<path d="M2.61424 20.1641H1.83557C0.820548 20.1641 -0.00183105 20.9917 -0.00183105 22.0131V37.1656C-0.00183105 38.1871 0.820548 39.0147 1.83557 39.0147H2.61424C3.62926 39.0147 4.45164 38.1871 4.45164 37.1656V22.0131C4.45164 20.9917 3.62926 20.1641 2.61424 20.1641Z" fill="#B7D3DB"/>
<path d="M57.781 39.875H55.6134V52.2401H57.781V39.875Z" fill="#91BFC0"/>
<path d="M60.3955 36.6309H59.6168C58.6018 36.6309 57.7794 37.4585 57.7794 38.4799V53.6324C57.7794 54.6539 58.6018 55.4815 59.6168 55.4815H60.3955C61.4105 55.4815 62.2329 54.6539 62.2329 53.6324V38.4799C62.2329 37.4585 61.4105 36.6309 60.3955 36.6309Z" fill="#B7D3DB"/>
</g>
</g>
<defs>
<clipPath id="clip0_1_270">
<rect width="62.2353" height="64" fill="white" transform="translate(0 0.480469)"/>
</clipPath>
<clipPath id="clip1_1_270">
<rect width="62.2353" height="46" fill="white" transform="translate(0 9.48047)"/>
</clipPath>
</defs>
</svg>
