<svg width="82" height="65" viewBox="0 0 82 65" fill="none" xmlns="http://www.w3.org/2000/svg">
<g clip-path="url(#clip0_1_302)">
<g clip-path="url(#clip1_1_302)">
<path d="M28.4395 43.0709L31.1195 46.2009L50.2695 46.2009L52.9495 43.0709L52.9495 37.0609L28.4395 37.0609L28.4395 43.0709Z" fill="#134157"/>
<path d="M28.4395 21.8803L28.4395 37.0603L52.9495 37.0603L52.9495 21.8803L50.2695 18.7503L31.1195 18.7503L28.4395 21.8803Z" fill="#75A2A3"/>
<path d="M74.14 21.8806L7.25 21.8806L7.25 43.0706L74.14 43.0706L74.14 21.8806Z" fill="#75A2A3"/>
<path d="M74.14 37.0603L7.25 37.0603L7.25 43.0803L74.14 43.0803L74.14 37.0603Z" fill="#134157"/>
<g opacity="0.5">
<path d="M11.33 24.6306L11.33 27.6306L70.07 27.6306L70.07 24.6306L11.33 24.6306Z" fill="white"/>
</g>
<g style="mix-blend-mode:multiply" opacity="0.5">
<path d="M7.25 21.8801L7.25 37.0601L7.25 43.0701L28.44 43.0701L7.25 21.8801Z" fill="#B7D3DB"/>
</g>
<path d="M7.24997 16.8101L3.15997 16.8101L3.15997 48.1401L7.24997 48.1401L7.24997 16.8101Z" fill="#FCC947"/>
<path d="M9.08 17.9392L7.25 17.9392L7.25 20.6892L9.08 20.6892L9.08 17.9392Z" fill="#FCC947"/>
<path d="M9.08 44.2693L7.25 44.2693L7.25 47.0193L9.08 47.0193L9.08 44.2693Z" fill="#FCC947"/>
<path d="M9.08 38.9998L7.25 38.9998L7.25 41.7498L9.08 41.7498L9.08 38.9998Z" fill="#FCC947"/>
<path d="M9.08 33.7402L7.25 33.7402L7.25 36.4902L9.08 36.4902L9.08 33.7402Z" fill="#FCC947"/>
<path d="M9.08 28.4705L7.25 28.4705L7.25 31.2205L9.08 31.2205L9.08 28.4705Z" fill="#FCC947"/>
<path d="M9.08 23.2107L7.25 23.2107L7.25 25.9607L9.08 25.9607L9.08 23.2107Z" fill="#FCC947"/>
<path d="M3.16 18.7498L0 18.7498L4.89568e-08 19.8698L3.16 19.8698L3.16 18.7498Z" fill="#FCC947"/>
<path d="M3.16 24.0193L0 24.0193L4.89568e-08 25.1393L3.16 25.1393L3.16 24.0193Z" fill="#FCC947"/>
<path d="M3.16 29.281L0 29.281L4.89568e-08 30.401L3.16 30.401L3.16 29.281Z" fill="#FCC947"/>
<path d="M3.16 34.5505L0 34.5505L4.89568e-08 35.6705L3.16 35.6705L3.16 34.5505Z" fill="#FCC947"/>
<path d="M3.16 39.8201L0 39.8201L4.89568e-08 40.9401L3.16 40.9401L3.16 39.8201Z" fill="#FCC947"/>
<path d="M3.16 45.0798L0 45.0798L4.89568e-08 46.1998L3.16 46.1998L3.16 45.0798Z" fill="#FCC947"/>
<g style="mix-blend-mode:multiply" opacity="0.5">
<path d="M7.24906 16.8201L5.78906 16.8201L5.78906 48.1501L7.24906 48.1501L7.24906 16.8201Z" fill="#FCC947"/>
</g>
<path d="M74.1405 48.1501L78.2305 48.1501L78.2305 16.8201L74.1405 16.8201L74.1405 48.1501Z" fill="#FCC947"/>
<path d="M72.3204 20.6892L74.1504 20.6892L74.1504 17.9392L72.3204 17.9392L72.3204 20.6892Z" fill="#FCC947"/>
<path d="M72.3204 47.0193L74.1504 47.0193L74.1504 44.2693L72.3204 44.2693L72.3204 47.0193Z" fill="#FCC947"/>
<path d="M72.3106 41.7595L74.1406 41.7595L74.1406 39.0095L72.3106 39.0095L72.3106 41.7595Z" fill="#FCC947"/>
<path d="M72.3106 36.4902L74.1406 36.4902L74.1406 33.7402L72.3106 33.7402L72.3106 36.4902Z" fill="#FCC947"/>
<path d="M72.3106 31.2205L74.1406 31.2205L74.1406 28.4705L72.3106 28.4705L72.3106 31.2205Z" fill="#FCC947"/>
<path d="M72.3106 25.9607L74.1406 25.9607L74.1406 23.2107L72.3106 23.2107L72.3106 25.9607Z" fill="#FCC947"/>
<path d="M78.2306 19.8806L81.3906 19.8806L81.3906 18.7606L78.2306 18.7606L78.2306 19.8806Z" fill="#FCC947"/>
<path d="M78.2306 25.1401L81.3906 25.1401L81.3906 24.0201L78.2306 24.0201L78.2306 25.1401Z" fill="#FCC947"/>
<path d="M78.2406 30.4102L81.4006 30.4102L81.4006 29.2902L78.2406 29.2902L78.2406 30.4102Z" fill="#FCC947"/>
<path d="M78.2306 35.6697L81.3906 35.6697L81.3906 34.5497L78.2306 34.5497L78.2306 35.6697Z" fill="#FCC947"/>
<path d="M78.2404 40.9392L81.4004 40.9392L81.4004 39.8192L78.2404 39.8192L78.2404 40.9392Z" fill="#FCC947"/>
<path d="M78.2306 46.2009L81.3906 46.2009L81.3906 45.0809L78.2306 45.0809L78.2306 46.2009Z" fill="#FCC947"/>
<g style="mix-blend-mode:multiply" opacity="0.5">
<path d="M74.1513 48.1404L75.6113 48.1404L75.6113 16.8104L74.1513 16.8104L74.1513 48.1404Z" fill="#FCC947"/>
</g>
<g style="mix-blend-mode:multiply" opacity="0.5">
<path d="M23.039 33.9807L36.239 33.9807C36.919 37.0107 39.629 39.2807 42.869 39.2807C43.569 39.2807 44.249 39.1707 44.889 38.9807L49.059 46.2107L50.279 46.2107L51.619 44.6407L47.479 37.4707C48.819 36.2307 49.669 34.4607 49.669 32.4807C49.669 30.5007 48.819 28.7307 47.479 27.4907L51.619 20.3207L50.279 18.7507L49.059 18.7507L44.889 25.9807C44.249 25.7807 43.569 25.6807 42.869 25.6807C39.629 25.6807 36.919 27.9507 36.239 30.9807L23.039 30.9807C23.289 27.6507 24.369 24.5607 26.049 21.8807L21.999 21.8807C20.379 25.0607 19.459 28.6607 19.459 32.4807C19.459 36.3007 20.379 39.8907 21.999 43.0807L26.049 43.0807C24.369 40.4107 23.289 37.3107 23.039 33.9807Z" fill="#B7D3DB"/>
</g>
<g style="mix-blend-mode:multiply" opacity="0.5">
<path d="M62.769 32.4798C62.769 36.3798 61.649 40.0098 59.709 43.0798L63.729 43.0798C65.349 39.8998 66.269 36.2998 66.269 32.4798C66.269 28.6598 65.349 25.0698 63.729 21.8798L59.709 21.8798C61.649 24.9498 62.769 28.5798 62.769 32.4798Z" fill="#B7D3DB"/>
</g>
<path d="M50.4795 12.5214L39.8295 30.9814L18.5195 30.9814L18.5195 33.9814L39.8295 33.9814L50.4795 52.4314L53.0795 50.9314L42.4295 32.4814L53.0795 14.0214L50.4795 12.5214Z" fill="#FCC947"/>
<g style="mix-blend-mode:multiply" opacity="0.5">
<path d="M39.8285 30.9813L31.6085 30.9813C31.5285 31.4713 31.4785 31.9713 31.4785 32.4813C31.4785 32.9913 31.5285 33.4913 31.6085 33.9813L39.8285 33.9813L43.9385 41.1013C44.8885 40.7413 45.7685 40.2413 46.5385 39.6113L42.4285 32.4813L46.5385 25.3513C45.7685 24.7213 44.8885 24.2113 43.9385 23.8613L39.8285 30.9813Z" fill="#B7D3DB"/>
</g>
<g style="mix-blend-mode:multiply" opacity="0.5">
<path d="M50.4795 52.4314L53.0795 50.9314L50.3695 46.2314C49.5495 46.8014 48.6795 47.3014 47.7695 47.7314L50.4895 52.4314L50.4795 52.4314Z" fill="#B7D3DB"/>
</g>
<g style="mix-blend-mode:multiply" opacity="0.5">
<path d="M23.9495 30.9822L18.5195 30.9822L18.5195 33.9822L23.9495 33.9822C23.9095 33.4922 23.8695 32.9922 23.8695 32.4822C23.8695 31.9722 23.8995 31.4722 23.9495 30.9822Z" fill="#B7D3DB"/>
</g>
<g style="mix-blend-mode:multiply" opacity="0.5">
<path d="M50.4798 12.5205L47.7598 17.2205C48.6698 17.6405 49.5398 18.1405 50.3598 18.7205L53.0698 14.0205L50.4698 12.5205L50.4798 12.5205Z" fill="#B7D3DB"/>
</g>
<path d="M17.2891 32.4806C17.2891 45.4006 27.7691 55.8806 40.6991 55.8806C53.6291 55.8806 64.0991 45.4006 64.0991 32.4806C64.0991 19.5606 53.6191 9.08061 40.6991 9.08061C27.7791 9.08062 17.2991 19.5606 17.2991 32.4806L17.2891 32.4806ZM60.5891 32.4806C60.5891 43.4706 51.6791 52.3806 40.6891 52.3806C29.6991 52.3806 20.7891 43.4706 20.7891 32.4806C20.7891 21.4906 29.6991 12.5806 40.6891 12.5806C51.6791 12.5806 60.5891 21.4906 60.5891 32.4806Z" fill="#FCC947"/>
<path d="M47.4984 32.481C47.4984 28.7255 44.454 25.681 40.6984 25.681C36.9429 25.681 33.8984 28.7255 33.8984 32.481C33.8984 36.2365 36.9429 39.281 40.6984 39.281C44.454 39.281 47.4984 36.2365 47.4984 32.481Z" fill="#FCC947"/>
<g style="mix-blend-mode:multiply" opacity="0.5">
<path d="M40.6984 29.0913C38.8284 29.0913 37.3184 30.6113 37.3184 32.4713C37.3184 34.3313 38.8384 35.8513 40.6984 35.8513C42.5584 35.8513 44.0784 34.3313 44.0784 32.4713C44.0784 30.6113 42.5584 29.0913 40.6984 29.0913Z" fill="#B7D3DB"/>
</g>
</g>
</g>
<defs>
<clipPath id="clip0_1_302">
<rect width="81.39" height="64" fill="white" transform="translate(0 0.480713)"/>
</clipPath>
<clipPath id="clip1_1_302">
<rect width="46.8" height="81.39" fill="white" transform="translate(0 55.8806) rotate(-90)"/>
</clipPath>
</defs>
</svg>
