<svg width="64" height="65" viewBox="0 0 64 65" fill="none" xmlns="http://www.w3.org/2000/svg">
<g clip-path="url(#clip0_1_375)">
<g clip-path="url(#clip1_1_375)">
<path d="M37.9374 46.1838H27.2323V64.4813H37.9374V46.1838Z" fill="#F2654E"/>
<path d="M32.7742 46.1838H27.0429V64.4813H32.7742V46.1838Z" fill="#39BBE2"/>
<path d="M50.3797 0.482666H13.62C10.2 0.482666 7.42754 3.25514 7.42754 6.67515V53.3494C7.42754 56.7694 10.2 59.5419 13.62 59.5419H50.3797C53.7997 59.5419 56.5722 56.7694 56.5722 53.3494V6.67515C56.5722 3.25514 53.7997 0.482666 50.3797 0.482666Z" fill="#B8BDC0"/>
<path d="M13.6199 3.87524H50.3796C51.9194 3.87524 53.1794 5.12692 53.1794 6.67504V53.3493C53.1794 54.8891 51.9277 56.149 50.3796 56.149H13.6199C12.08 56.149 10.8201 54.8974 10.8201 53.3493V6.67504C10.8201 5.13515 12.0718 3.88348 13.6117 3.88348L13.6199 3.87524Z" fill="#9F9FA0"/>
<path d="M50.3791 4.18774H13.6195C12.246 4.18774 11.1326 5.30116 11.1326 6.67462V53.3488C11.1326 54.7223 12.246 55.8357 13.6195 55.8357H50.3791C51.7526 55.8357 52.866 54.7223 52.866 53.3488V6.67462C52.866 5.30116 51.7526 4.18774 50.3791 4.18774Z" fill="#C9CED1"/>
<path d="M50.3791 4.18774H13.6195C12.2443 4.18774 11.1326 5.29943 11.1326 6.67462V8.32156C11.1326 6.94637 12.2443 5.83468 13.6195 5.83468H50.3791C51.7543 5.83468 52.866 6.94637 52.866 8.32156V6.67462C52.866 5.29943 51.7543 4.18774 50.3791 4.18774Z" fill="#E3E6E8"/>
<path d="M50.3791 54.6004H13.6195C12.2443 54.6004 11.1326 53.4887 11.1326 52.1135V53.3487C11.1326 54.7239 12.2443 55.8356 13.6195 55.8356H50.3791C51.7543 55.8356 52.866 54.7239 52.866 53.3487V52.1135C52.866 53.4887 51.7543 54.6004 50.3791 54.6004Z" fill="#9F9FA0"/>
<path d="M16.4041 8.6936C16.8323 9.44296 17.6228 9.95351 18.5451 9.95351H45.2996C46.2219 9.95351 47.0124 9.44296 47.4406 8.6936H16.4041Z" fill="#9F9FA0"/>
<path d="M48.7078 7.74634C48.2467 8.49569 47.3903 9.00625 46.3939 9.00625H17.4407C16.4443 9.00625 15.5879 8.49569 15.1268 7.74634H48.716H48.7078Z" fill="#E3E6E8"/>
<path d="M16.4041 11.5256C16.8323 12.275 17.6228 12.7855 18.5451 12.7855H45.2996C46.2219 12.7855 47.0124 12.275 47.4406 11.5256H16.4041Z" fill="#9F9FA0"/>
<path d="M48.7077 10.5862C48.2466 11.3355 47.3902 11.8461 46.3938 11.8461H17.4406C16.4442 11.8461 15.5878 11.3355 15.1266 10.5862H48.7159H48.7077Z" fill="#E3E6E8"/>
<path d="M16.4041 14.3577C16.8323 15.107 17.6228 15.6176 18.5451 15.6176H45.2996C46.2219 15.6176 47.0124 15.107 47.4406 14.3577H16.4041Z" fill="#9F9FA0"/>
<path d="M48.7077 13.4202C48.2466 14.1695 47.3902 14.6801 46.3938 14.6801H17.4406C16.4442 14.6801 15.5878 14.1695 15.1266 13.4202H48.7159H48.7077Z" fill="#E3E6E8"/>
<path d="M16.4041 17.1995C16.8323 17.9488 17.6228 18.4594 18.5451 18.4594H45.2996C46.2219 18.4594 47.0124 17.9488 47.4406 17.1995H16.4041Z" fill="#9F9FA0"/>
<path d="M48.7077 16.2524C48.2466 17.0018 47.3902 17.5123 46.3938 17.5123H17.4406C16.4442 17.5123 15.5878 17.0018 15.1266 16.2524H48.7159H48.7077Z" fill="#E3E6E8"/>
<path d="M16.4041 20.0315C16.8323 20.7809 17.6228 21.2914 18.5451 21.2914H45.2996C46.2219 21.2914 47.0124 20.7809 47.4406 20.0315H16.4041Z" fill="#9F9FA0"/>
<path d="M48.7078 19.0842C48.2467 19.8336 47.3903 20.3441 46.3939 20.3441H17.4407C16.4443 20.3441 15.5879 19.8336 15.1268 19.0842H48.716H48.7078Z" fill="#E3E6E8"/>
<path d="M16.4041 22.8635C16.8323 23.6129 17.6228 24.1234 18.5451 24.1234H45.2996C46.2219 24.1234 47.0124 23.6129 47.4406 22.8635H16.4041Z" fill="#9F9FA0"/>
<path d="M48.7078 21.9163C48.2467 22.6656 47.3903 23.1762 46.3939 23.1762H17.4407C16.4443 23.1762 15.5879 22.6656 15.1268 21.9163H48.716H48.7078Z" fill="#E3E6E8"/>
<path d="M12.7068 30.0773C12.7068 28.9327 13.6374 28.0022 14.782 28.0022C15.9266 28.0022 16.8571 28.9327 16.8571 30.0773C16.8571 31.222 15.9266 32.1525 14.782 32.1525C13.6374 32.1525 12.7068 31.222 12.7068 30.0773Z" fill="#9F9FA0"/>
<path d="M13.1502 30.0795C13.1502 29.1819 13.8748 28.4573 14.7724 28.4573C15.67 28.4573 16.3947 29.1819 16.3947 30.0795C16.3947 30.9771 15.67 31.7017 14.7724 31.7017C13.8748 31.7017 13.1502 30.9771 13.1502 30.0795Z" fill="#E3E6E8"/>
<path d="M14.5021 29.3284C14.4527 29.5342 14.4197 29.7895 14.4197 30.0695C14.4197 30.72 14.5844 31.2471 14.7821 31.2471C14.9797 31.2471 15.1444 30.72 15.1444 30.0695C15.1444 29.7813 15.1114 29.526 15.062 29.3284H14.5103H14.5021Z" fill="#9F9FA0"/>
<path d="M31.7775 25.7053L15.6951 53.555H47.8516L31.7775 25.7053ZM31.7775 31.659L43.1166 51.2987H20.4383L31.7775 31.659Z" fill="#F7B541"/>
<path d="M33.4322 28.4573L26.2928 41.1634L31.3077 41.1716L28.9196 46.2771L26.6551 46.343L27.6268 53.5566L35.178 46.5983L31.67 46.5901L35.6309 38.5283H30.723L36.2073 28.5643L33.4322 28.4573Z" fill="#364A5D"/>
</g>
</g>
<defs>
<clipPath id="clip0_1_375">
<rect width="64" height="64" fill="white" transform="translate(-0.000152588 0.480713)"/>
</clipPath>
<clipPath id="clip1_1_375">
<rect width="49.1446" height="64" fill="white" transform="translate(7.42754 0.480713)"/>
</clipPath>
</defs>
</svg>
