<svg width="80" height="65" viewBox="0 0 80 65" fill="none" xmlns="http://www.w3.org/2000/svg">
<g clip-path="url(#clip0_1_649)">
<g clip-path="url(#clip1_1_649)">
<path d="M54.308 46.8745H28.9844V56.616H54.308V46.8745Z" fill="#084777"/>
<path d="M24.5907 20.9103C24.5907 20.9103 21.6899 23.5743 22.7541 27.8934C22.7541 27.8934 25.086 35.1066 31.0086 40.7002V46.8749H52.5499V41.0837L55.4832 38.5406C55.4832 38.5406 57.591 36.9151 57.5792 34.1006V18.1106H46.188" fill="#F7A483"/>
<path d="M46.1834 18.1128L25.3379 20.8123C25.3585 21.3492 25.4971 21.8861 25.786 22.3995C26.4552 23.5943 27.5371 24.5147 28.6957 25.2169C31.57 26.9545 34.7569 27.3882 38.0734 27.3587C40.3729 27.3351 42.6605 27.1286 44.9482 26.925C46.7671 26.7628 48.6657 26.456 50.4876 26.7687C52.8283 27.1699 55.4609 28.645 55.3046 31.3739C54.945 37.646 47.0501 38.0236 42.3038 38.2154C42.3598 39.3129 43.6717 39.3571 44.5178 39.6462C45.2695 39.9029 45.98 40.3749 46.437 41.0417C46.9882 41.8471 47.2123 42.8265 47.4187 43.7676C47.6427 44.7884 47.7783 45.8298 47.8432 46.8712H52.5453V41.08L55.4786 38.537C55.4786 38.537 57.5864 36.9114 57.5746 34.0969V18.1069H46.1834V18.1128Z" fill="#E1967E"/>
<path d="M21.7466 24.7138C21.8056 24.7138 21.8646 24.7227 21.9265 24.7227H57.4532C57.7097 24.7227 57.9426 24.6991 58.1637 24.6548C59.906 29.0123 64.16 32.0893 69.1333 32.0893C74.1066 32.0893 78.1543 29.1627 79.9703 24.9764H69.1333V15.5565H79.9703C78.1543 11.3702 73.9858 8.44357 69.1333 8.44357C64.2808 8.44357 59.906 11.5236 58.1637 15.878C57.9455 15.8367 57.7097 15.8102 57.4532 15.8102H21.9265C21.8911 15.8102 21.8616 15.8131 21.8262 15.8161C20.0898 11.438 15.827 8.34326 10.8389 8.34326C5.85085 8.34326 1.82089 11.2698 0.00195312 15.4562H10.8389V24.8761H0.00195312C1.82089 29.0624 5.98646 31.989 10.8389 31.989C15.6914 31.989 19.966 28.9887 21.7466 24.7168V24.7138Z" fill="#BCBEC0"/>
<path d="M21.7466 24.7127C21.8056 24.7127 21.8646 24.7216 21.9265 24.7216H26.437C26.1333 24.6065 25.8356 24.4797 25.5466 24.3321C22.177 22.6151 21.6847 19.2047 21.897 15.8091C21.8734 15.8091 21.8528 15.8091 21.8262 15.812C20.762 13.1273 18.7455 10.9294 16.1955 9.62842C17.3747 10.7849 18.2797 12.1921 18.6895 13.8767C19.4737 17.0953 18.7278 20.6503 17.2981 23.5946C16.6082 25.0077 15.6825 26.415 14.1997 27.0817C12.6667 27.7721 10.9686 27.9697 9.2971 27.8311C6.17513 27.5714 3.01779 26.533 0.332133 24.872H0.00195312C1.82089 29.0583 5.98646 31.9849 10.8389 31.9849C15.6914 31.9849 19.966 28.9846 21.7466 24.7127Z" fill="#A3A5A8"/>
<path d="M58.1638 15.8744C57.9456 15.8331 57.7098 15.8065 57.4533 15.8065H52.4004C52.9723 15.9747 53.5354 16.1665 54.0808 16.3877C55.6933 17.0427 57.3619 18.1313 58.0812 19.7893C58.7799 21.3971 58.5854 23.0846 58.0282 24.6748C58.0724 24.6659 58.1196 24.663 58.1638 24.6541C59.9061 29.0116 64.1601 32.0886 69.1334 32.0886C70.519 32.0886 71.8486 31.8437 73.0838 31.4042C71.7277 31.2921 70.3893 31.0767 69.0833 30.7227C66.3328 29.9704 63.6353 28.451 62.4266 25.7339C61.7574 24.2293 61.5069 22.5802 61.5806 20.9399C61.6602 19.155 61.9019 17.258 62.8659 15.7151C64.446 13.1868 67.4589 11.6143 70.4512 11.8916C72.9334 12.1218 74.8644 13.4936 75.9139 15.5558H79.9733C78.1544 11.3695 73.9859 8.44287 69.1334 8.44287C64.281 8.44287 59.9061 11.5229 58.1638 15.8773V15.8744Z" fill="#A3A5A8"/>
<path d="M24.7416 21.6414C24.0989 21.6414 23.5801 21.0041 23.5801 20.2164C23.5801 19.4317 24.0989 18.7944 24.7416 18.7944H55.2331C55.8758 18.7944 56.3946 19.4317 56.3946 20.2164C56.3946 21.0012 55.8728 21.6414 55.2331 21.6414H24.7416Z" fill="#A3A5A8"/>
<path d="M37.5426 19.7396C37.5426 21.5451 36.0804 23.0084 34.2762 23.0084C32.472 23.0084 31.0098 21.5451 31.0098 19.7396V13.6179C31.0098 11.8124 32.472 10.3491 34.2762 10.3491C36.0804 10.3491 37.5426 11.8124 37.5426 13.6179V19.7396Z" fill="#E59375"/>
<path d="M44.5094 19.2765C44.5094 21.0821 43.0472 22.5453 41.243 22.5453C39.4388 22.5453 37.9766 21.0821 37.9766 19.2765V12.1902C37.9766 10.3847 39.4388 8.92139 41.243 8.92139C43.0472 8.92139 44.5094 10.3847 44.5094 12.1902V19.2765Z" fill="#E59375"/>
<path d="M51.0397 18.1013C51.0397 19.9068 49.5774 21.3701 47.7732 21.3701C45.969 21.3701 44.5098 19.9068 44.5098 18.1013V13.614C44.5098 11.8085 45.972 10.3452 47.7732 10.3452C49.5774 10.3452 51.0397 11.8085 51.0397 13.614V18.1013Z" fill="#E59375"/>
<path d="M57.5758 18.1118C57.5758 19.9173 56.1136 21.3806 54.3094 21.3806C52.5052 21.3806 51.043 19.9173 51.043 18.1118V15.0554C51.043 13.2499 52.5052 11.7866 54.3094 11.7866C56.1136 11.7866 57.5758 13.2499 57.5758 15.0554V18.1118Z" fill="#E59375"/>
<path d="M37.6841 35.1041C38.9193 25.2623 30.7149 23.0054 30.7149 23.0054H40.2046C44.5058 22.079 44.5058 16.6772 44.5058 16.6772H29.5976L24.586 20.9108C24.586 20.9108 21.8767 23.8639 22.7493 27.8939C22.7493 27.8939 24.7923 34.5259 31.0038 40.7006" fill="#F7A483"/>
<path d="M43.6528 16.6772C44.1982 18.7689 42.3645 20.3591 40.8551 20.9108C38.9536 21.6041 35.5811 21.1379 33.6029 21.0111C32.4886 20.9403 31.3919 20.9698 30.2952 21.191C29.7086 21.309 28.889 21.4329 28.4645 21.902C27.2764 23.2149 32.2881 25.6812 33.031 26.2978C35.4307 28.2892 36.9991 31.0683 37.7832 34.0568C38.3345 25.103 30.7197 23.0054 30.7197 23.0054H40.2095C44.5106 22.079 44.5106 16.6772 44.5106 16.6772H43.6528Z" fill="#E59375"/>
<path d="M52.1222 51.743C52.1222 52.7018 51.3468 53.4807 50.3887 53.4807C49.4306 53.4807 48.6523 52.7048 48.6523 51.743C48.6523 50.7813 49.4306 50.0054 50.3887 50.0054C51.3468 50.0054 52.1222 50.7813 52.1222 51.743Z" fill="white" stroke="#21409A" stroke-width="3.53747" stroke-miterlimit="10"/>
</g>
</g>
<defs>
<clipPath id="clip0_1_649">
<rect width="79.9713" height="64" fill="white" transform="translate(0 0.480713)"/>
</clipPath>
<clipPath id="clip1_1_649">
<rect width="79.9713" height="48.2709" fill="white" transform="translate(0 8.34521)"/>
</clipPath>
</defs>
</svg>
