<svg width="64" height="65" viewBox="0 0 64 65" fill="none" xmlns="http://www.w3.org/2000/svg">
<g clip-path="url(#clip0_1_672)">
<path fill-rule="evenodd" clip-rule="evenodd" d="M30.2648 5.89432C30.2648 5.89432 30.6275 5.44142 30.8268 5.532C31.0261 5.62258 30.9174 7.12575 30.3555 7.45135C29.7936 7.77696 30.0835 6.27379 30.2648 5.89351V5.89432Z" fill="#E79D6C"/>
<path fill-rule="evenodd" clip-rule="evenodd" d="M24.4263 7.03613C24.4263 7.03613 24.508 10.4228 24.0792 11.1572C23.6504 11.8916 22.854 12.2589 22.854 12.2589C22.854 12.2589 22.7111 12.8913 23.0582 14.299C23.4053 15.7067 25.9169 15.9719 28.3468 15.7475C30.7767 15.5231 31.9814 12.6057 31.9814 12.6057C31.9814 12.6057 31.0013 12.1365 30.7358 10.892C30.4704 9.6475 30.307 7.38296 30.307 7.38296L24.4263 7.03613Z" fill="#E79D6C"/>
<path fill-rule="evenodd" clip-rule="evenodd" d="M24.3637 4.74228C24.3637 4.74228 24.3277 6.93338 24.9436 8.98004C25.5602 11.0267 27.01 12.9281 28.0791 12.9281C29.1483 12.9281 29.8883 10.9745 30.2256 9.85077C30.5629 8.72625 30.7443 5.90107 30.3996 5.04993C30.0549 4.19879 24.7083 4.41586 24.3637 4.74228Z" fill="#F5E5A7"/>
<path fill-rule="evenodd" clip-rule="evenodd" d="M25.0881 5.03221C25.0881 5.03221 24.4902 7.11478 25.3053 8.41883C26.1213 9.72288 26.8858 10.0844 28.5316 9.75879C30.1774 9.43319 30.7973 6.82508 30.2901 5.53898C29.7829 4.25288 25.5414 4.88696 25.0881 5.03221Z" fill="#FDBA76"/>
<path fill-rule="evenodd" clip-rule="evenodd" d="M24.7503 8.2499C24.3451 8.32825 23.7832 6.37217 23.8012 5.88335C23.8191 5.39454 24.5624 5.61161 24.689 6.4807C24.8156 7.3498 25.0149 8.07445 24.7494 8.2499H24.7503Z" fill="#FDBA76"/>
<path fill-rule="evenodd" clip-rule="evenodd" d="M27.6805 9.17896C27.6805 9.17896 26.2487 10.3198 26.5567 10.5915C26.8646 10.8633 27.8619 10.1207 28.1698 10.1386C28.4777 10.1566 29.3664 10.5548 29.6375 10.3378C29.9095 10.1207 28.967 9.21486 28.967 9.21486C28.967 9.21486 28.5316 9.75835 27.6805 9.17896Z" fill="white"/>
<path fill-rule="evenodd" clip-rule="evenodd" d="M28.6106 7.0728C28.5984 7.00588 28.6433 6.94223 28.7103 6.92999C28.7772 6.91775 28.841 6.96263 28.8532 7.02955C28.854 7.03526 29.2036 8.94646 29.0827 9.25982C29.0648 9.30634 29.0353 9.34877 28.9978 9.38631C28.8973 9.48424 28.7258 9.55034 28.5314 9.56911C28.3468 9.58788 28.1361 9.56584 27.945 9.49158C27.8151 9.44099 27.6934 9.36672 27.5937 9.26472C27.5464 9.21575 27.5472 9.13823 27.5962 9.0909C27.6452 9.04357 27.7228 9.04438 27.7702 9.09335C27.8437 9.16842 27.9352 9.22392 28.034 9.26227C28.1875 9.32184 28.3582 9.33898 28.5077 9.32429C28.6482 9.31042 28.7658 9.2688 28.8263 9.21004C28.8393 9.19699 28.8491 9.18393 28.854 9.17169C28.9504 8.92361 28.6131 7.07851 28.6123 7.07362L28.6106 7.0728Z" fill="#D77C63"/>
<path fill-rule="evenodd" clip-rule="evenodd" d="M27.2906 6.82459C27.4409 6.82459 27.5626 6.98699 27.5626 7.18692C27.5626 7.38685 27.4409 7.54925 27.2906 7.54925C27.1403 7.54925 27.0186 7.38685 27.0186 7.18692C27.0186 6.98699 27.1403 6.82459 27.2906 6.82459ZM29.5653 6.80664C29.7156 6.80664 29.8373 6.96904 29.8373 7.16897C29.8373 7.3689 29.7156 7.5313 29.5653 7.5313C29.415 7.5313 29.2933 7.3689 29.2933 7.16897C29.2933 6.96904 29.415 6.80664 29.5653 6.80664Z" fill="black"/>
<path fill-rule="evenodd" clip-rule="evenodd" d="M26.7282 7.06704C26.6939 7.09642 26.6425 7.09316 26.6123 7.05888C26.582 7.02461 26.5861 6.9732 26.6196 6.94382C26.6212 6.943 27.117 6.5056 27.7868 6.72838C27.8301 6.74225 27.8529 6.78877 27.8391 6.83202C27.8252 6.87445 27.7786 6.89812 27.7353 6.88425C27.1546 6.69084 26.7282 7.06623 26.7274 7.06704H26.7282ZM29.1059 6.82223C29.0618 6.83365 29.0177 6.80754 29.0062 6.76347C28.9948 6.7194 29.0209 6.67534 29.065 6.66391C29.0667 6.66391 29.7658 6.49254 30.0933 6.77734C30.1276 6.80672 30.1317 6.85895 30.1015 6.89322C30.0721 6.9275 30.0198 6.93158 29.9863 6.90138C29.7217 6.67126 29.1075 6.82223 29.1059 6.82304V6.82223Z" fill="#F5E5A7"/>
<path fill-rule="evenodd" clip-rule="evenodd" d="M24.1273 5.04972C24.1273 5.04972 26.0541 5.84701 28.4047 5.6838C30.7562 5.52059 30.8877 5.08645 30.8877 5.08645C30.8877 5.08645 30.9963 1.9169 29.2566 1.26487C27.5169 0.612845 24.0726 0.431682 24.1273 5.04972Z" fill="#FAC747"/>
<path fill-rule="evenodd" clip-rule="evenodd" d="M26.8843 5.66649C26.8843 5.66649 27.046 4.63337 26.6286 3.36522C26.2121 2.09789 25.927 1.79595 25.6951 1.64498C25.4631 1.4932 25.312 1.61316 25.312 1.61316C25.312 1.61316 25.2058 1.21982 25.7049 0.957049C26.2039 0.69428 27.327 0.377651 28.3063 0.513116C29.2848 0.649397 29.6205 1.06558 29.7021 1.17412C29.7838 1.28265 30.1399 2.90578 30.0828 3.83608C30.0256 4.76638 29.8287 5.31232 29.8287 5.31232L26.8843 5.66649Z" fill="#E9B739"/>
<path fill-rule="evenodd" clip-rule="evenodd" d="M25.3302 5.41563C25.3302 5.41563 26.5292 6.28147 28.4601 6.22761C30.3901 6.17293 30.7364 5.22468 30.7364 5.22468C30.7364 5.22468 29.0857 4.47065 25.3302 5.41563Z" fill="#FCC947"/>
<path fill-rule="evenodd" clip-rule="evenodd" d="M28.6136 2.45117C28.6136 2.45117 29.16 3.43288 29.0122 3.98127C28.8643 4.53047 28.2142 4.3436 28.1693 3.97229C28.1235 3.60099 28.5679 2.99466 28.6136 2.45117Z" fill="#0C0C0E"/>
<path fill-rule="evenodd" clip-rule="evenodd" d="M17.0857 24.5806C17.0857 24.5806 16.3915 18.501 17.4124 16.4208C18.4334 14.3399 21.5779 13.075 21.5779 13.075L22.8676 13.2864C22.8676 13.2864 25.2126 15.0336 28.2746 14.7063C31.3375 14.3799 31.9811 12.605 31.9811 12.605C31.9811 12.605 35.5022 14.0535 36.6049 15.3592C37.7075 16.6648 39.1777 22.214 39.1777 22.214C39.1777 22.214 30.5616 29.1504 17.0857 24.5806Z" fill="#B7D3DB"/>
<path fill-rule="evenodd" clip-rule="evenodd" d="M21.3729 24.4774L21.618 19.8259L22.2011 23.9348C22.2011 23.9348 21.8377 24.7745 21.3729 24.4774ZM17.0857 24.5803C17.0857 24.5803 16.3915 18.5007 17.4124 16.4205C18.1483 14.9198 19.9893 13.8443 20.958 13.3604C20.1935 14.2613 17.9343 17.1395 17.7318 19.9149C17.6264 21.3528 17.8567 23.2126 18.2292 24.9434C17.8518 24.8308 17.4712 24.7108 17.0857 24.5803ZM34.032 17.9498C34.032 17.9498 34.8725 20.5947 35.1755 22.4381C35.4785 24.2816 36.0331 22.887 36.0331 22.887C36.0331 22.887 35.0938 18.9699 34.032 17.9498Z" fill="#B8BFC2"/>
<path fill-rule="evenodd" clip-rule="evenodd" d="M21.7409 24.9886C21.7409 24.9886 22.5577 23.2341 23.2928 21.0716C24.0279 18.909 24.5588 17.3585 24.5588 17.3585L32.3581 16.5425C32.3581 16.5425 35.3393 22.8261 35.8702 25.8447C36.4011 28.8641 37.0137 32.6587 37.177 36.0037C37.3404 39.3495 37.5446 55.3425 37.5446 57.5867C37.5446 59.8308 32.9707 59.5044 32.9707 59.5044L30.5204 42.6129C30.5204 42.6129 27.9067 56.3218 26.9266 58.3619C25.9464 60.402 22.516 58.1987 22.516 58.1987C22.516 58.1987 18.9222 40.9808 21.7401 24.9878L21.7409 24.9886Z" fill="#273A5B"/>
<path fill-rule="evenodd" clip-rule="evenodd" d="M25.7033 59.2149C24.336 59.3675 22.5171 58.1997 22.5171 58.1997C22.5171 58.1997 19.5432 43.9474 21.1286 29.3311L30.5002 34.9839C30.5002 34.9839 30.064 36.0717 28.1855 35.99C26.3069 35.9084 24.1833 34.8476 24.1833 34.8476C24.1833 34.8476 23.4482 53.2079 25.4901 58.5115C25.5881 58.7669 25.6584 59.0003 25.7025 59.2149H25.7033Z" fill="#134157"/>
<path fill-rule="evenodd" clip-rule="evenodd" d="M37.2001 36.5403C37.2156 36.95 37.2311 37.4584 37.2466 38.0419C36.7418 37.4853 35.6964 36.3453 35.3599 36.0858L35.8908 35.3105C35.8908 35.3105 36.7018 36.0621 37.2001 36.5403ZM20.6678 39.3378C20.6629 38.8579 20.6621 38.374 20.6646 37.8852L23.5992 36.249C23.783 36.147 24.2526 36.9223 24.2526 36.9223C24.2526 36.9223 21.893 38.7225 20.6678 39.3378Z" fill="#FCC947"/>
<path fill-rule="evenodd" clip-rule="evenodd" d="M17.0855 24.5801C17.0855 24.5801 18.1065 23.7836 19.495 23.4572C20.8835 23.1307 22.2018 23.9346 22.2018 23.9346C22.2018 23.9346 22.3945 26.599 22.5579 27.0886C22.7212 27.5782 27.1522 32.3317 27.7852 32.4541C28.4182 32.5766 28.5815 32.0869 29.0716 32.0257C29.5617 31.9645 30.5009 32.8418 30.5622 33.107C30.6235 33.3722 30.4193 33.5966 30.4193 33.5966L30.9093 33.8414C30.9093 33.8414 30.8685 34.5555 30.5009 34.9839C30.1334 35.4123 29.0103 35.4735 27.9281 35.0247C26.8459 34.5759 25.4778 34.1883 24.4364 33.8006C23.3951 33.413 19.6175 31.8421 18.8824 30.9444C18.1473 30.0468 17.1672 25.5993 17.0863 24.5809L17.0855 24.5801ZM35.2055 22.606C35.2055 22.606 35.9717 21.9679 37.0539 21.8863C38.1361 21.8047 39.1775 22.2135 39.1775 22.2135C39.1775 22.2135 39.7484 25.9257 39.5851 26.9042C39.4217 27.8834 37.6248 32.1269 37.4615 32.4941C37.2981 32.8614 36.8285 34.1874 36.0321 34.6363C35.2358 35.0851 34.6436 34.9423 34.4598 34.8199C34.2761 34.6975 33.786 33.657 33.786 33.657C33.786 33.657 33.8677 32.7389 34.174 32.4737C34.4802 32.2085 35.1132 32.5553 35.3787 31.8821C35.6441 31.2088 35.4808 27.251 35.4808 26.8226C35.4808 26.3941 35.2529 23.573 35.2055 22.606Z" fill="#FDBA76"/>
<path fill-rule="evenodd" clip-rule="evenodd" d="M35.8569 22.2112C35.8569 22.2161 36.7929 29.8535 35.3783 31.8847V31.8822C35.6445 31.209 35.4812 27.2511 35.4812 26.8227C35.4812 26.3943 35.2533 23.5732 35.2059 22.6062C35.2059 22.6062 35.4502 22.403 35.8569 22.2112ZM34.8613 32.3196C34.7485 32.3629 34.6391 32.3719 34.5321 32.3547C34.6383 32.3441 34.7518 32.34 34.8613 32.3196Z" fill="#E79D6C"/>
<path fill-rule="evenodd" clip-rule="evenodd" d="M17.0854 24.5804C17.0854 24.5804 17.4514 24.2948 18.0419 23.9961C18.5164 26.6491 19.3953 29.2368 20.0176 29.87C20.979 30.8477 28.2736 35.7799 30.4992 34.9842C30.1317 35.4127 29.0086 35.4739 27.9264 35.025C26.8442 34.5762 25.4761 34.1886 24.4347 33.801C23.3934 33.4133 19.6158 31.8424 18.8807 30.9448C18.1456 30.0471 17.1655 25.5996 17.0846 24.5812L17.0854 24.5804Z" fill="#E79D6C"/>
<path fill-rule="evenodd" clip-rule="evenodd" d="M32.3021 41.1845H33.1491V36.5558C33.1491 35.1351 34.2028 33.9836 35.5022 33.9836H29.949C31.2485 33.9836 32.3021 35.1351 32.3021 36.5558V41.1845Z" fill="#1E1E1E"/>
<path d="M35.5531 33.1265H29.8978C29.6046 33.1265 29.3669 33.3639 29.3669 33.6569C29.3669 33.9498 29.6046 34.1873 29.8978 34.1873H35.5531C35.8463 34.1873 36.084 33.9498 36.084 33.6569C36.084 33.3639 35.8463 33.1265 35.5531 33.1265Z" fill="#6A6A6A"/>
<path fill-rule="evenodd" clip-rule="evenodd" d="M25.5996 23.4157L32.3788 23.2524C32.3788 23.2524 33.8767 30.0396 29.6426 30.1881C25.4093 30.3374 25.4771 24.6797 25.5996 23.4157Z" fill="#FCC947"/>
<path fill-rule="evenodd" clip-rule="evenodd" d="M29.6012 25.2925C29.6012 25.2925 30.663 26.4962 30.6017 27.557C30.5404 28.6179 29.8258 28.5771 29.2744 28.2915C28.7231 28.0059 28.764 27.5366 28.8865 27.3326C29.009 27.1286 29.5807 26.1697 29.6012 25.2925Z" fill="#1E1E1E"/>
<path fill-rule="evenodd" clip-rule="evenodd" d="M21.2088 13.0732L22.8831 12.0327C22.8831 12.0327 23.6999 13.3588 24.4963 15.0317C25.2926 16.7046 25.5376 17.8879 25.2722 18.3163C25.0067 18.7447 24.0266 18.7651 23.8224 18.2551C23.6182 17.7451 22.3931 14.5217 21.2088 13.0732ZM31.8668 12.3485L33.5208 13.1132C33.5208 13.1132 33.5518 14.9493 33.3476 16.2754C33.1434 17.6015 32.6125 17.9075 32.1633 17.9279C31.7141 17.9483 31.5915 17.0098 31.8978 16.0306C32.2041 15.0513 32.0408 13.0724 31.8676 12.3477L31.8668 12.3485Z" fill="#FCC947"/>
<path d="M34.8489 40.7551H30.6017V42.428H34.8489V40.7551Z" fill="#505050"/>
<path d="M47.4761 57.1982H16.5221V62.869H47.4761V57.1982Z" fill="#333333"/>
<path d="M47.4761 57.8918H16.5221V61.2377H47.4761V57.8918Z" fill="#6A6A6A"/>
<path d="M47.4761 62.217H16.5221V63.4003H47.4761V62.217Z" fill="#1E1E1E"/>
<path fill-rule="evenodd" clip-rule="evenodd" d="M15.9513 56.7291C16.2331 56.7291 16.4618 56.4737 16.4618 56.1579C16.4618 55.8421 16.2331 55.5867 15.9513 55.5867C15.6696 55.5867 15.4409 55.8421 15.4409 56.1579C15.4409 56.4737 15.6696 56.7291 15.9513 56.7291ZM15.9513 64.4808C16.2331 64.4808 16.4618 64.2254 16.4618 63.9096C16.4618 63.5938 16.2331 63.3384 15.9513 63.3384C15.6696 63.3384 15.4409 63.5938 15.4409 63.9096C15.4409 64.2254 15.6696 64.4808 15.9513 64.4808Z" fill="#333333"/>
<path d="M17.5035 56.157H14.3998V63.9087H17.5035V56.157Z" fill="#949494"/>
<path fill-rule="evenodd" clip-rule="evenodd" d="M15.9513 61.4108C16.2331 61.4108 16.4618 61.6662 16.4618 61.982C16.4618 62.2979 16.2331 62.5533 15.9513 62.5533C15.6696 62.5533 15.4409 62.2979 15.4409 61.982C15.4409 61.6662 15.6696 61.4108 15.9513 61.4108ZM15.9513 57.5142C16.2331 57.5142 16.4618 57.7696 16.4618 58.0854C16.4618 58.4012 16.2331 58.6566 15.9513 58.6566C15.6696 58.6566 15.4409 58.4012 15.4409 58.0854C15.4409 57.7696 15.6696 57.5142 15.9513 57.5142Z" fill="#333333"/>
<path fill-rule="evenodd" clip-rule="evenodd" d="M48.048 56.7291C48.3298 56.7291 48.5585 56.4737 48.5585 56.1579C48.5585 55.8421 48.3298 55.5867 48.048 55.5867C47.7663 55.5867 47.5376 55.8421 47.5376 56.1579C47.5376 56.4737 47.7663 56.7291 48.048 56.7291ZM48.048 64.4808C48.3298 64.4808 48.5585 64.2254 48.5585 63.9096C48.5585 63.5938 48.3298 63.3384 48.048 63.3384C47.7663 63.3384 47.5376 63.5938 47.5376 63.9096C47.5376 64.2254 47.7663 64.4808 48.048 64.4808Z" fill="#333333"/>
<path d="M49.6002 56.157H46.4965V63.9087H49.6002V56.157Z" fill="#949494"/>
<path fill-rule="evenodd" clip-rule="evenodd" d="M48.048 61.4108C48.3298 61.4108 48.5585 61.6662 48.5585 61.982C48.5585 62.2979 48.3298 62.5533 48.048 62.5533C47.7663 62.5533 47.5376 62.2979 47.5376 61.982C47.5376 61.6662 47.7663 61.4108 48.048 61.4108ZM48.048 57.5142C48.3298 57.5142 48.5585 57.7696 48.5585 58.0854C48.5585 58.4012 48.3298 58.6566 48.048 58.6566C47.7663 58.6566 47.5376 58.4012 47.5376 58.0854C47.5376 57.7696 47.7663 57.5142 48.048 57.5142Z" fill="#333333"/>
<path fill-rule="evenodd" clip-rule="evenodd" d="M29.6017 41.8159H35.85V57.1977C35.85 57.8962 34.4517 58.4626 32.7258 58.4626C31 58.4626 29.6017 57.8962 29.6017 57.1977V41.8159Z" fill="#333333"/>
<path fill-rule="evenodd" clip-rule="evenodd" d="M30.0829 41.8159H32.9498V58.4593C32.8755 58.4618 32.8003 58.4626 32.7252 58.4626C31.6128 58.4626 30.6359 58.2267 30.0829 57.8726V41.8159Z" fill="#1E1E1E"/>
<path fill-rule="evenodd" clip-rule="evenodd" d="M34.3294 41.8158H35.4974V58.1507C35.2303 58.3588 34.8244 58.5326 34.3294 58.6526V41.8149V41.8158Z" fill="#6A6A6A"/>
</g>
<defs>
<clipPath id="clip0_1_672">
<rect width="64" height="64" fill="white" transform="translate(0 0.480713)"/>
</clipPath>
</defs>
</svg>
