<svg width="80" height="65" viewBox="0 0 80 65" fill="none" xmlns="http://www.w3.org/2000/svg">
<g clip-path="url(#clip0_1_717)">
<path d="M38.822 22.2725C40.8778 22.5868 41.8009 24.2085 43.1331 25.6156C44.625 27.1873 45.9373 28.8538 47.514 30.3956C48.7465 31.6031 48.991 32.9454 47.0799 33.2747C45.603 33.5292 44.0213 31.9724 42.9435 31.0942C41.6412 30.0314 40.0894 28.0405 38.4778 27.3669C36.8711 26.6933 34.7954 27.836 33.2336 28.0904C30.9334 28.4647 27.4955 28.9087 26.5874 27.1224C25.4398 24.8771 27.3359 22.981 27.755 22.6916C29.4714 21.5141 37.1355 22.018 38.827 22.2725H38.822Z" fill="#FF9549"/>
<path opacity="0.54" d="M47.5126 30.3944C47.2532 30.1399 47.0286 29.8754 46.7842 29.616C46.7043 29.7008 46.5995 29.7657 46.5446 29.8704C46.1006 30.7137 46.6893 31.8713 47.8669 32.4601C48.0016 32.5299 48.1363 32.5848 48.2761 32.6297C48.291 32.6297 48.301 32.6297 48.316 32.6297C48.6952 32.0459 48.326 31.1977 47.5176 30.4043L47.5126 30.3944Z" fill="#FFE7D2"/>
<path d="M40.7484 28.1137L26.2235 37.629C24.7815 38.562 24.1827 40.1937 24.8813 41.2764C25.5848 42.3642 27.3212 42.4839 28.7632 41.5459L38.8673 34.9944C38.9421 35.1591 39.0369 35.3288 39.1168 35.4834L26.6726 43.5467C25.2306 44.4848 24.6318 46.1164 25.3303 47.1942C26.0339 48.2819 27.7703 48.4016 29.2123 47.4636L41.432 39.545C41.4569 39.5899 41.4719 39.6199 41.5018 39.6598C41.5617 39.7446 41.6116 39.8194 41.6665 39.9093L30.3599 47.2341C28.9179 48.1671 28.3191 49.7988 29.0177 50.8815C29.7163 51.9693 31.4576 52.084 32.8997 51.1559L44.3858 43.7214C44.4557 43.8112 44.5305 43.906 44.6004 43.9958L36.1379 49.4744C35.2348 50.0632 35.0702 51.4104 35.7737 52.4932C36.4722 53.5859 37.7795 53.9801 38.6827 53.4013L54.3602 43.3621C54.415 43.3272 58.5415 40.1537 58.5914 40.1138C60.8617 38.1379 62.0792 36.3716 62.0792 36.3716C62.9773 35.0942 62.0642 33.1084 59.2301 28.4231C56.5855 24.0521 55.8421 22.6001 54.3951 22.4954C54.3951 22.4954 52.9082 22.6151 50.5181 22.685C45.5335 24.596 44.6204 25.3295 40.7434 28.1087L40.7484 28.1137Z" fill="#FFBA7F"/>
<path d="M56.4607 19.101L54.1019 20.4839L63.9836 37.3404L66.3425 35.9576L56.4607 19.101Z" fill="white"/>
<path d="M68.6759 11.2943L55.6617 18.9297L66.6123 37.5946L79.6265 29.9592L68.6759 11.2943Z" fill="#385775"/>
<path d="M39.5791 27.3049L54.568 36.0717C56.0549 36.93 56.7335 38.5316 56.0949 39.6493C55.4462 40.772 53.7198 40.9816 52.2279 40.1134L41.8045 34.0809C41.7346 34.2455 41.6498 34.4202 41.575 34.5848L54.4083 42.0094C55.8953 42.8676 56.5788 44.4693 55.9302 45.587C55.2815 46.7097 53.5551 46.9192 52.0632 46.056L39.4593 38.7612C39.4344 38.8061 39.4194 38.836 39.3945 38.8809C39.3446 38.9707 39.2947 39.0456 39.2398 39.1354L50.9006 45.8814C52.3875 46.7396 53.0711 48.3413 52.4225 49.454C51.7788 50.5767 50.0474 50.7812 48.5605 49.923L36.72 43.0722C36.6552 43.167 36.5853 43.2668 36.5154 43.3616L45.2423 48.4062C46.1754 48.95 46.4049 50.2873 45.7563 51.4C45.1126 52.5276 43.8303 52.9867 42.9022 52.4528L26.7357 43.2119C26.6808 43.182 22.3997 40.2181 22.3448 40.1832C19.9797 38.3271 18.6774 36.6206 18.6774 36.6206C17.7094 35.3882 18.5277 33.3624 21.1224 28.5423C23.5423 24.0467 24.2159 22.5647 25.653 22.3851C25.653 22.3851 27.1449 22.43 29.5349 22.3801C34.6094 24.0367 35.5624 24.7253 39.5741 27.3049H39.5791Z" fill="#FFA15B"/>
<path d="M23.4371 19.1023L14.4158 36.4364L16.8407 37.6987L25.867 20.3647L23.4371 19.1023Z" fill="white"/>
<path d="M10.8388 11.9161L0.839844 31.1077L14.2213 38.0795L24.2203 18.888L10.8388 11.9161Z" fill="#21384B"/>
<path opacity="0.54" d="M55.78 43.6184C56.0544 44.2321 56.0694 44.8958 55.75 45.4546C55.4057 46.0633 54.7371 46.3827 53.9986 46.4076C53.8639 46.3627 53.7342 46.3078 53.5995 46.238C52.4568 45.6492 51.878 44.4916 52.3121 43.6483C52.7462 42.8051 54.0236 42.6005 55.1662 43.1843C55.3957 43.3041 55.6003 43.4488 55.78 43.6134V43.6184Z" fill="#FFE7D2"/>
<path opacity="0.54" d="M55.9295 37.729C56.2039 38.3477 56.2189 39.0114 55.8995 39.5702C55.5552 40.179 54.8866 40.5033 54.1432 40.5232C54.0084 40.4783 53.8787 40.4284 53.744 40.3586C52.5964 39.7748 52.0226 38.6122 52.4567 37.7689C52.8908 36.9257 54.1681 36.7211 55.3107 37.3049C55.5403 37.4247 55.7448 37.5793 55.9245 37.729H55.9295Z" fill="#FFE7D2"/>
<path opacity="0.54" d="M52.2777 47.4502C52.5472 48.064 52.5671 48.7326 52.2478 49.2864C51.9035 49.8952 51.2349 50.2195 50.4964 50.2395C50.3617 50.1946 50.232 50.1397 50.0973 50.0698C48.9496 49.481 48.3758 48.3284 48.8099 47.4852C49.244 46.6469 50.5214 46.4373 51.664 47.0261C51.8935 47.1409 52.0981 47.2906 52.2827 47.4502H52.2777Z" fill="#FFE7D2"/>
<path opacity="0.54" d="M45.6912 49.4609C45.9606 50.0797 45.9756 50.7433 45.6612 51.2971C45.317 51.9009 44.6483 52.2302 43.9099 52.2551C43.7752 52.2052 43.6404 52.1504 43.5107 52.0855C42.3681 51.4967 41.7893 50.3391 42.2184 49.4959C42.6525 48.6576 43.9298 48.448 45.0725 49.0318C45.302 49.1466 45.5066 49.3013 45.6912 49.4609Z" fill="#FFE7D2"/>
<path d="M42.3816 22.0749C40.2111 22.6238 39.2182 24.42 37.8011 26.0167C36.2144 27.813 34.8173 29.6841 33.1458 31.4554C31.8335 32.8476 31.5691 34.2646 33.5899 34.3993C35.1466 34.5041 36.8331 32.7128 37.9758 31.685C39.3629 30.4326 41.0095 28.2022 42.7209 27.324C44.4224 26.4458 46.6129 27.4088 48.2594 27.5036C50.6944 27.6384 54.3169 27.7232 55.2949 25.7722C56.5223 23.3173 54.5265 21.551 54.0824 21.3015C52.2711 20.2636 44.1629 21.6308 42.3766 22.0749H42.3816Z" fill="#FFB984"/>
<g style="mix-blend-mode:multiply" opacity="0.22">
<path d="M53.5921 23.5425C53.9414 24.2809 54.106 25.209 53.632 26.2419C52.7938 28.0681 49.2661 27.7937 46.896 27.5292C45.2893 27.3546 43.1039 26.3117 41.5022 27.0652C39.8905 27.8186 38.4136 29.8793 37.1362 31.007C36.0834 31.9401 34.5466 33.5717 33.0297 33.3871C32.6306 33.3372 32.3462 33.2324 32.1116 33.1076C32.1067 33.6914 32.5308 34.1455 33.5886 34.2652C35.1054 34.4499 36.6423 32.8232 37.6951 31.8902C38.9674 30.7625 40.4494 28.7018 42.061 27.9483C43.6627 27.1949 45.8482 28.2377 47.4548 28.4174C49.8249 28.6768 53.3526 28.9513 54.1909 27.1251C54.8894 25.6132 54.2408 24.3308 53.5971 23.5425H53.5921Z" fill="#FFB984"/>
</g>
<path opacity="0.35" d="M34.3691 31.6859C34.3691 31.2768 34.1995 30.8976 33.9151 30.5732C33.6556 30.8676 33.4161 31.167 33.1466 31.4564C32.3583 32.2947 31.9641 33.1279 32.1986 33.7018C33.446 33.4672 34.3691 32.6589 34.3691 31.6859Z" fill="#FFE7D2"/>
</g>
<defs>
<clipPath id="clip0_1_717">
<rect width="78.7867" height="64" fill="white" transform="translate(0.839844 0.480713)"/>
</clipPath>
</defs>
</svg>
