<svg width="100" height="100" viewBox="0 0 100 100" fill="none" xmlns="http://www.w3.org/2000/svg">
<rect width="99.41" height="99.2944" fill="white"/>
<path fill-rule="evenodd" clip-rule="evenodd" d="M47.0829 0H0V99.2944H47.0829V79.4944L43.2469 78.7482L39.6526 77.4135L36.3736 75.5428L33.4414 73.1886L30.9297 70.4036L28.8803 67.2402L27.3459 63.751L26.3895 59.9991L26.0532 56.0265L26.4421 51.9067L27.514 48.2389L29.164 44.9494L31.266 41.9227L33.7147 39.0956L36.3946 36.3421L39.1902 33.5991L41.9752 30.751L44.6446 27.7242L47.0829 24.4137V0Z" fill="#002496"/>
<path fill-rule="evenodd" clip-rule="evenodd" d="M99.41 0H52.3376V24.4242L54.7759 27.7347L57.4453 30.7615L60.2303 33.6096L63.0154 36.3526L65.6953 39.0956L68.144 41.9332L70.246 44.9494L71.896 48.2494L72.9679 51.9067L73.3568 56.0265L73.0205 59.9991L72.0641 63.751L70.5297 67.2297L68.4803 70.3931L65.9686 73.1781L63.0364 75.5428L59.7574 77.4135L56.1736 78.7482L52.3376 79.4838V99.2944H99.41V0Z" fill="#00C268"/>
</svg>
