<svg width="128" height="56" viewBox="0 0 128 56" fill="none" xmlns="http://www.w3.org/2000/svg">
<path d="M2.88779 54.8136V48.3951H0.372559V47.6331H6.41321V48.3951H3.89798V54.8136H2.88779Z" fill="white"/>
<path d="M9.78228 54.9919C9.11156 54.9919 8.52671 54.8387 8.03185 54.5364C7.53698 54.2341 7.14844 53.7869 6.87852 53.203C6.60859 52.6191 6.46954 51.9566 6.46954 51.2195C6.46954 50.4824 6.60041 49.8612 6.86216 49.2773C7.12391 48.6935 7.50835 48.2421 8.01549 47.9274C8.52263 47.6127 9.11565 47.4512 9.79047 47.4512C10.4653 47.4512 11.0542 47.6085 11.5654 47.9274C12.0767 48.2462 12.457 48.6935 12.7188 49.2773C12.9805 49.8612 13.1114 50.5072 13.1114 51.2195C13.1114 51.9317 12.9846 52.5736 12.7269 53.1533C12.4693 53.733 12.0889 54.1844 11.5859 54.5074C11.0828 54.8304 10.4857 54.9919 9.79455 54.9919H9.78228ZM9.78228 54.23C10.498 54.23 11.0501 53.9608 11.4427 53.4183C11.8354 52.8759 12.0317 52.1429 12.0317 51.2112C12.0317 50.2795 11.8354 49.5507 11.4387 49.0165C11.0419 48.4823 10.4939 48.2131 9.78228 48.2131C9.07066 48.2131 8.52262 48.4823 8.12591 49.0165C7.7292 49.5507 7.53289 50.2836 7.53289 51.2112C7.53289 52.1388 7.7292 52.88 8.12182 53.4183C8.51444 53.9567 9.06657 54.23 9.78228 54.23Z" fill="white"/>
<path d="M15.6803 54.8136V48.3951H13.1651V47.6331H19.2057V48.3951H16.6905V54.8136H15.6803Z" fill="white"/>
<path d="M18.8378 54.8138L21.6556 47.6334H22.6495L25.4223 54.8138H24.3345L23.5615 52.8262H20.5514L19.7702 54.8138H18.8337H18.8378ZM20.8499 52.0642H23.2629L22.0605 48.9709L20.8499 52.0642Z" fill="white"/>
<path d="M25.9126 54.8138V47.6334H26.9187V54.0519H30.0678V54.8138H25.9126Z" fill="white"/>
<path d="M33.2106 47.6354H37.1818V48.3973H34.2167V50.7038H36.7033V51.4575H34.2167V54.058H37.3903V54.82H33.2106V47.6354Z" fill="white"/>
<path d="M38.666 54.8158V47.6354H39.6557L43.2138 53.176V47.6354H44.0809V54.8158H43.0952L39.533 49.2752V54.8158H38.666Z" fill="white"/>
<path d="M46.0657 47.6354H50.0369V48.3973H47.0717V50.7038H49.5583V51.4575H47.0717V54.058H50.2454V54.82H46.0657V47.6354Z" fill="white"/>
<path d="M51.5212 54.8158V47.6354H53.6684C54.4659 47.6354 55.0139 47.8176 55.3166 48.1778C55.6192 48.5381 55.7705 48.9522 55.7705 49.416C55.7705 49.6893 55.7174 49.9543 55.611 50.2235C55.5047 50.4926 55.3534 50.7245 55.153 50.9316C54.9526 51.1386 54.6867 51.3126 54.3432 51.4575L56.7112 54.82H55.4761L53.4557 51.7805H52.515V54.82H51.5171L51.5212 54.8158ZM52.5191 51.0144H52.8463C53.5907 51.0144 54.0937 50.857 54.3555 50.5423C54.6172 50.2276 54.7481 49.8839 54.7481 49.5071C54.7481 49.2835 54.699 49.0888 54.6008 48.9232C54.5027 48.7576 54.3514 48.6251 54.1469 48.534C53.9424 48.4429 53.6111 48.3932 53.1572 48.3932H52.5232V51.0144H52.5191Z" fill="white"/>
<path d="M63.1762 54.621C62.5546 54.8032 62.1047 54.9109 61.8184 54.944C61.5322 54.9771 61.2377 54.9937 60.9309 54.9937C60.0803 54.9937 59.4136 54.8363 58.9269 54.5299C58.4403 54.2235 58.0681 53.7721 57.8145 53.1841C57.5609 52.5961 57.4342 51.9459 57.4342 51.2254C57.4342 50.1239 57.7204 49.217 58.2971 48.5131C58.8738 47.8091 59.749 47.4571 60.9268 47.4571C61.6385 47.4571 62.3828 47.5648 63.164 47.7843V48.7243C62.4442 48.4758 61.9534 48.3267 61.6835 48.2853C61.4135 48.2398 61.16 48.2191 60.9187 48.2191C60.068 48.2191 59.4504 48.5131 59.0701 49.1011C58.6897 49.6891 58.5016 50.3972 58.5016 51.2337C58.5016 51.7513 58.5834 52.2358 58.7429 52.683C58.9024 53.1303 59.1764 53.503 59.5527 53.797C59.933 54.091 60.4443 54.24 61.0864 54.24C61.25 54.24 61.4013 54.2318 61.5444 54.2152C61.6876 54.1986 61.8961 54.1448 62.1702 54.062V51.7223H63.1762V54.6293V54.621Z" fill="white"/>
<path d="M66.6209 54.8158V51.8178L64.2529 47.6354H65.4021L67.2426 50.8777L69.222 47.6354H70.1627L67.627 51.797V54.8158H66.6209Z" fill="white"/>
<path d="M73.7265 54.6772V53.6668C74.2991 53.9318 74.7163 54.0933 74.978 54.1471C75.2398 54.201 75.4852 54.23 75.7101 54.23C76.1191 54.23 76.4422 54.1182 76.6753 53.8945C76.9125 53.6709 77.0311 53.4018 77.0311 53.0871C77.0311 52.851 76.9698 52.6315 76.8471 52.4328C76.7203 52.234 76.4095 51.9938 75.9105 51.7081L75.4197 51.4224C74.7654 51.0455 74.3237 50.706 74.1028 50.3954C73.8779 50.0848 73.7674 49.7411 73.7674 49.3602C73.7674 49.0206 73.8574 48.7018 74.0333 48.4036C74.2091 48.1054 74.4504 47.8736 74.749 47.7038C75.0476 47.534 75.4279 47.4512 75.8819 47.4512C76.4299 47.4512 77.0107 47.5423 77.62 47.7286V48.6603C77.0884 48.4491 76.7244 48.3208 76.5281 48.2794C76.3318 48.2338 76.1314 48.2131 75.935 48.2131C75.522 48.2131 75.2193 48.3208 75.0189 48.5403C74.8185 48.7597 74.7204 48.9792 74.7204 49.2069C74.7204 49.3643 74.7654 49.5217 74.8594 49.679C74.9535 49.8405 75.0803 49.9772 75.2357 50.0931C75.3911 50.2091 75.6119 50.3457 75.886 50.5031L76.3972 50.7929C77.0597 51.1698 77.5014 51.5176 77.7223 51.8323C77.9431 52.1512 78.0536 52.5115 78.0536 52.9256C78.0536 53.4846 77.8409 53.9691 77.4196 54.3832C76.9984 54.7973 76.3767 55.0002 75.5547 55.0002C75.3011 55.0002 75.0557 54.9836 74.8185 54.9505C74.5813 54.9174 74.2132 54.8304 73.7143 54.6855L73.7265 54.6772Z" fill="white"/>
<path d="M82.4218 54.9919C81.7511 54.9919 81.1662 54.8387 80.6713 54.5364C80.1765 54.2341 79.7879 53.7869 79.518 53.203C79.2481 52.6191 79.109 51.9566 79.109 51.2195C79.109 50.4824 79.2399 49.8612 79.5017 49.2773C79.7634 48.6935 80.1479 48.2421 80.655 47.9274C81.1621 47.6127 81.7551 47.4512 82.43 47.4512C83.1048 47.4512 83.6937 47.6085 84.2049 47.9274C84.7162 48.2462 85.0965 48.6935 85.3583 49.2773C85.62 49.8612 85.7509 50.5072 85.7509 51.2195C85.7509 51.9317 85.6241 52.5736 85.3664 53.1533C85.1088 53.733 84.7284 54.1844 84.2254 54.5074C83.7223 54.8304 83.1252 54.9919 82.4341 54.9919H82.4218ZM82.4218 54.23C83.1375 54.23 83.6896 53.9608 84.0822 53.4183C84.4749 52.8759 84.6712 52.1429 84.6712 51.2112C84.6712 50.2795 84.4749 49.5507 84.0782 49.0165C83.6814 48.4823 83.1334 48.2131 82.4218 48.2131C81.7102 48.2131 81.1621 48.4823 80.7654 49.0165C80.3687 49.5507 80.1724 50.2836 80.1724 51.2112C80.1724 52.1388 80.3687 52.88 80.7613 53.4183C81.1539 53.9567 81.7061 54.23 82.4218 54.23Z" fill="white"/>
<path d="M87.2442 54.8138V47.6334H88.2503V54.0519H91.3995V54.8138H87.2442Z" fill="white"/>
<path d="M92.4981 47.6294H93.5042V52.1638C93.5042 52.9547 93.6515 53.4931 93.9418 53.7912C94.2322 54.0894 94.6371 54.2343 95.1606 54.2343C95.4878 54.2343 95.7659 54.1763 95.9949 54.0604C96.2239 53.9444 96.3957 53.7581 96.5225 53.5013C96.6493 53.2446 96.7106 52.8098 96.7106 52.2011V47.6336H97.594V52.1845C97.594 52.963 97.5 53.5262 97.3078 53.8699C97.1155 54.2136 96.8497 54.4869 96.5021 54.6898C96.1544 54.8927 95.6964 54.9921 95.1238 54.9921C94.5144 54.9921 94.0195 54.8886 93.6433 54.6774C93.267 54.4662 92.9807 54.1805 92.7885 53.8119C92.5963 53.4434 92.5022 52.8926 92.5022 52.1514V47.6294H92.4981Z" fill="white"/>
<path d="M101.136 54.8138V48.3953H98.6205V47.6334H104.661V48.3953H102.146V54.8138H101.136Z" fill="white"/>
<path d="M105.739 54.8138V47.6334H106.745V54.8138H105.739Z" fill="white"/>
<path d="M111.545 54.9919C110.875 54.9919 110.29 54.8387 109.795 54.5364C109.3 54.2341 108.911 53.7869 108.642 53.203C108.372 52.6191 108.233 51.9566 108.233 51.2195C108.233 50.4824 108.363 49.8612 108.625 49.2773C108.887 48.6935 109.271 48.2421 109.778 47.9274C110.286 47.6127 110.879 47.4512 111.553 47.4512C112.228 47.4512 112.817 47.6085 113.328 47.9274C113.84 48.2462 114.22 48.6935 114.482 49.2773C114.743 49.8612 114.874 50.5072 114.874 51.2195C114.874 51.9317 114.748 52.5736 114.49 53.1533C114.232 53.733 113.852 54.1844 113.349 54.5074C112.846 54.8304 112.249 54.9919 111.558 54.9919H111.545ZM111.545 54.23C112.261 54.23 112.813 53.9608 113.206 53.4183C113.598 52.8759 113.795 52.1429 113.795 51.2112C113.795 50.2795 113.598 49.5507 113.202 49.0165C112.805 48.4823 112.257 48.2131 111.545 48.2131C110.834 48.2131 110.286 48.4823 109.889 49.0165C109.492 49.5507 109.296 50.2836 109.296 51.2112C109.296 52.1388 109.492 52.88 109.885 53.4183C110.277 53.9567 110.83 54.23 111.545 54.23Z" fill="white"/>
<path d="M116.372 54.8138V47.6334H117.361L120.919 53.174V47.6334H121.787V54.8138H120.801L117.239 49.2732V54.8138H116.372Z" fill="white"/>
<path d="M123.3 54.6772V53.6668C123.873 53.9318 124.29 54.0933 124.552 54.1471C124.814 54.201 125.059 54.23 125.284 54.23C125.693 54.23 126.016 54.1182 126.249 53.8945C126.486 53.6709 126.605 53.4018 126.605 53.0871C126.605 52.851 126.544 52.6315 126.421 52.4328C126.294 52.234 125.983 51.9938 125.484 51.7081L124.994 51.4224C124.339 51.0455 123.898 50.706 123.677 50.3954C123.452 50.0848 123.341 49.7411 123.341 49.3602C123.341 49.0206 123.431 48.7018 123.607 48.4036C123.783 48.1054 124.024 47.8736 124.323 47.7038C124.621 47.534 125.002 47.4512 125.456 47.4512C126.004 47.4512 126.585 47.5423 127.194 47.7286V48.6603C126.662 48.4491 126.298 48.3208 126.102 48.2794C125.906 48.2338 125.705 48.2131 125.509 48.2131C125.096 48.2131 124.793 48.3208 124.593 48.5403C124.392 48.7597 124.294 48.9792 124.294 49.2069C124.294 49.3643 124.339 49.5217 124.433 49.679C124.527 49.8405 124.654 49.9772 124.81 50.0931C124.965 50.2091 125.186 50.3457 125.46 50.5031L125.971 50.7929C126.634 51.1698 127.075 51.5176 127.296 51.8323C127.517 52.1512 127.627 52.5115 127.627 52.9256C127.627 53.4846 127.415 53.9691 126.994 54.3832C126.572 54.7973 125.951 55.0002 125.129 55.0002C124.875 55.0002 124.63 54.9836 124.392 54.9505C124.155 54.9174 123.787 54.8304 123.288 54.6855L123.3 54.6772Z" fill="white"/>
<path d="M2.88779 54.8136V48.3951H0.372559V47.6331H6.41321V48.3951H3.89798V54.8136H2.88779Z" stroke="white" stroke-width="0.431373" stroke-linejoin="round"/>
<path d="M9.78228 54.9919C9.11156 54.9919 8.52671 54.8387 8.03185 54.5364C7.53698 54.2341 7.14844 53.7869 6.87852 53.203C6.60859 52.6191 6.46954 51.9566 6.46954 51.2195C6.46954 50.4824 6.60041 49.8612 6.86216 49.2773C7.12391 48.6935 7.50835 48.2421 8.01549 47.9274C8.52263 47.6127 9.11565 47.4512 9.79047 47.4512C10.4653 47.4512 11.0542 47.6085 11.5654 47.9274C12.0767 48.2462 12.457 48.6935 12.7188 49.2773C12.9805 49.8612 13.1114 50.5072 13.1114 51.2195C13.1114 51.9317 12.9846 52.5736 12.7269 53.1533C12.4693 53.733 12.0889 54.1844 11.5859 54.5074C11.0828 54.8304 10.4857 54.9919 9.79455 54.9919H9.78228ZM9.78228 54.23C10.498 54.23 11.0501 53.9608 11.4427 53.4183C11.8354 52.8759 12.0317 52.1429 12.0317 51.2112C12.0317 50.2795 11.8354 49.5507 11.4387 49.0165C11.0419 48.4823 10.4939 48.2131 9.78228 48.2131C9.07066 48.2131 8.52262 48.4823 8.12591 49.0165C7.7292 49.5507 7.53289 50.2836 7.53289 51.2112C7.53289 52.1388 7.7292 52.88 8.12182 53.4183C8.51444 53.9567 9.06657 54.23 9.78228 54.23Z" stroke="white" stroke-width="0.431373" stroke-linejoin="round"/>
<path d="M15.6803 54.8136V48.3951H13.1651V47.6331H19.2057V48.3951H16.6905V54.8136H15.6803Z" stroke="white" stroke-width="0.431373" stroke-linejoin="round"/>
<path d="M18.8378 54.8138L21.6556 47.6334H22.6495L25.4223 54.8138H24.3345L23.5615 52.8262H20.5514L19.7702 54.8138H18.8337H18.8378ZM20.8499 52.0642H23.2629L22.0605 48.9709L20.8499 52.0642Z" stroke="white" stroke-width="0.431373" stroke-linejoin="round"/>
<path d="M25.9126 54.8138V47.6334H26.9187V54.0519H30.0678V54.8138H25.9126Z" stroke="white" stroke-width="0.431373" stroke-linejoin="round"/>
<path d="M33.2106 47.6354H37.1818V48.3973H34.2167V50.7038H36.7033V51.4575H34.2167V54.058H37.3903V54.82H33.2106V47.6354Z" stroke="white" stroke-width="0.431373" stroke-linejoin="round"/>
<path d="M38.666 54.8158V47.6354H39.6557L43.2138 53.176V47.6354H44.0809V54.8158H43.0952L39.533 49.2752V54.8158H38.666Z" stroke="white" stroke-width="0.431373" stroke-linejoin="round"/>
<path d="M46.0657 47.6354H50.0369V48.3973H47.0717V50.7038H49.5583V51.4575H47.0717V54.058H50.2454V54.82H46.0657V47.6354Z" stroke="white" stroke-width="0.431373" stroke-linejoin="round"/>
<path d="M51.5212 54.8158V47.6354H53.6684C54.4659 47.6354 55.0139 47.8176 55.3166 48.1778C55.6192 48.5381 55.7705 48.9522 55.7705 49.416C55.7705 49.6893 55.7174 49.9543 55.611 50.2235C55.5047 50.4926 55.3534 50.7245 55.153 50.9316C54.9526 51.1386 54.6867 51.3126 54.3432 51.4575L56.7112 54.82H55.4761L53.4557 51.7805H52.515V54.82H51.5171L51.5212 54.8158ZM52.5191 51.0144H52.8463C53.5907 51.0144 54.0937 50.857 54.3555 50.5423C54.6172 50.2276 54.7481 49.8839 54.7481 49.5071C54.7481 49.2835 54.699 49.0888 54.6008 48.9232C54.5027 48.7576 54.3514 48.6251 54.1469 48.534C53.9424 48.4429 53.6111 48.3932 53.1572 48.3932H52.5232V51.0144H52.5191Z" stroke="white" stroke-width="0.431373" stroke-linejoin="round"/>
<path d="M63.1762 54.621C62.5546 54.8032 62.1047 54.9109 61.8184 54.944C61.5322 54.9771 61.2377 54.9937 60.9309 54.9937C60.0803 54.9937 59.4136 54.8363 58.9269 54.5299C58.4403 54.2235 58.0681 53.7721 57.8145 53.1841C57.5609 52.5961 57.4342 51.9459 57.4342 51.2254C57.4342 50.1239 57.7204 49.217 58.2971 48.5131C58.8738 47.8091 59.749 47.4571 60.9268 47.4571C61.6385 47.4571 62.3828 47.5648 63.164 47.7843V48.7243C62.4442 48.4758 61.9534 48.3267 61.6835 48.2853C61.4135 48.2398 61.16 48.2191 60.9187 48.2191C60.068 48.2191 59.4504 48.5131 59.0701 49.1011C58.6897 49.6891 58.5016 50.3972 58.5016 51.2337C58.5016 51.7513 58.5834 52.2358 58.7429 52.683C58.9024 53.1303 59.1764 53.503 59.5527 53.797C59.933 54.091 60.4443 54.24 61.0864 54.24C61.25 54.24 61.4013 54.2318 61.5444 54.2152C61.6876 54.1986 61.8961 54.1448 62.1702 54.062V51.7223H63.1762V54.6293V54.621Z" stroke="white" stroke-width="0.431373" stroke-linejoin="round"/>
<path d="M66.6209 54.8158V51.8178L64.2529 47.6354H65.4021L67.2426 50.8777L69.222 47.6354H70.1627L67.627 51.797V54.8158H66.6209Z" stroke="white" stroke-width="0.431373" stroke-linejoin="round"/>
<path d="M73.7265 54.6772V53.6668C74.2991 53.9318 74.7163 54.0933 74.978 54.1471C75.2398 54.201 75.4852 54.23 75.7101 54.23C76.1191 54.23 76.4422 54.1182 76.6753 53.8945C76.9125 53.6709 77.0311 53.4018 77.0311 53.0871C77.0311 52.851 76.9698 52.6315 76.8471 52.4328C76.7203 52.234 76.4095 51.9938 75.9105 51.7081L75.4197 51.4224C74.7654 51.0455 74.3237 50.706 74.1028 50.3954C73.8779 50.0848 73.7674 49.7411 73.7674 49.3602C73.7674 49.0206 73.8574 48.7018 74.0333 48.4036C74.2091 48.1054 74.4504 47.8736 74.749 47.7038C75.0476 47.534 75.4279 47.4512 75.8819 47.4512C76.4299 47.4512 77.0107 47.5423 77.62 47.7286V48.6603C77.0884 48.4491 76.7244 48.3208 76.5281 48.2794C76.3318 48.2338 76.1314 48.2131 75.935 48.2131C75.522 48.2131 75.2193 48.3208 75.0189 48.5403C74.8185 48.7597 74.7204 48.9792 74.7204 49.2069C74.7204 49.3643 74.7654 49.5217 74.8594 49.679C74.9535 49.8405 75.0803 49.9772 75.2357 50.0931C75.3911 50.2091 75.6119 50.3457 75.886 50.5031L76.3972 50.7929C77.0597 51.1698 77.5014 51.5176 77.7223 51.8323C77.9431 52.1512 78.0536 52.5115 78.0536 52.9256C78.0536 53.4846 77.8409 53.9691 77.4196 54.3832C76.9984 54.7973 76.3767 55.0002 75.5547 55.0002C75.3011 55.0002 75.0557 54.9836 74.8185 54.9505C74.5813 54.9174 74.2132 54.8304 73.7143 54.6855L73.7265 54.6772Z" stroke="white" stroke-width="0.431373" stroke-linejoin="round"/>
<path d="M82.4218 54.9919C81.7511 54.9919 81.1662 54.8387 80.6713 54.5364C80.1765 54.2341 79.7879 53.7869 79.518 53.203C79.2481 52.6191 79.109 51.9566 79.109 51.2195C79.109 50.4824 79.2399 49.8612 79.5017 49.2773C79.7634 48.6935 80.1479 48.2421 80.655 47.9274C81.1621 47.6127 81.7551 47.4512 82.43 47.4512C83.1048 47.4512 83.6937 47.6085 84.2049 47.9274C84.7162 48.2462 85.0965 48.6935 85.3583 49.2773C85.62 49.8612 85.7509 50.5072 85.7509 51.2195C85.7509 51.9317 85.6241 52.5736 85.3664 53.1533C85.1088 53.733 84.7284 54.1844 84.2254 54.5074C83.7223 54.8304 83.1252 54.9919 82.4341 54.9919H82.4218ZM82.4218 54.23C83.1375 54.23 83.6896 53.9608 84.0822 53.4183C84.4749 52.8759 84.6712 52.1429 84.6712 51.2112C84.6712 50.2795 84.4749 49.5507 84.0782 49.0165C83.6814 48.4823 83.1334 48.2131 82.4218 48.2131C81.7102 48.2131 81.1621 48.4823 80.7654 49.0165C80.3687 49.5507 80.1724 50.2836 80.1724 51.2112C80.1724 52.1388 80.3687 52.88 80.7613 53.4183C81.1539 53.9567 81.7061 54.23 82.4218 54.23Z" stroke="white" stroke-width="0.431373" stroke-linejoin="round"/>
<path d="M87.2442 54.8138V47.6334H88.2503V54.0519H91.3995V54.8138H87.2442Z" stroke="white" stroke-width="0.431373" stroke-linejoin="round"/>
<path d="M92.4981 47.6294H93.5042V52.1638C93.5042 52.9547 93.6515 53.4931 93.9418 53.7912C94.2322 54.0894 94.6371 54.2343 95.1606 54.2343C95.4878 54.2343 95.7659 54.1763 95.9949 54.0604C96.2239 53.9444 96.3957 53.7581 96.5225 53.5013C96.6493 53.2446 96.7106 52.8098 96.7106 52.2011V47.6336H97.594V52.1845C97.594 52.963 97.5 53.5262 97.3078 53.8699C97.1155 54.2136 96.8497 54.4869 96.5021 54.6898C96.1544 54.8927 95.6964 54.9921 95.1238 54.9921C94.5144 54.9921 94.0195 54.8886 93.6433 54.6774C93.267 54.4662 92.9807 54.1805 92.7885 53.8119C92.5963 53.4434 92.5022 52.8926 92.5022 52.1514V47.6294H92.4981Z" stroke="white" stroke-width="0.431373" stroke-linejoin="round"/>
<path d="M101.136 54.8138V48.3953H98.6205V47.6334H104.661V48.3953H102.146V54.8138H101.136Z" stroke="white" stroke-width="0.431373" stroke-linejoin="round"/>
<path d="M105.739 54.8138V47.6334H106.745V54.8138H105.739Z" stroke="white" stroke-width="0.431373" stroke-linejoin="round"/>
<path d="M111.545 54.9919C110.875 54.9919 110.29 54.8387 109.795 54.5364C109.3 54.2341 108.911 53.7869 108.642 53.203C108.372 52.6191 108.233 51.9566 108.233 51.2195C108.233 50.4824 108.363 49.8612 108.625 49.2773C108.887 48.6935 109.271 48.2421 109.778 47.9274C110.286 47.6127 110.879 47.4512 111.553 47.4512C112.228 47.4512 112.817 47.6085 113.328 47.9274C113.84 48.2462 114.22 48.6935 114.482 49.2773C114.743 49.8612 114.874 50.5072 114.874 51.2195C114.874 51.9317 114.748 52.5736 114.49 53.1533C114.232 53.733 113.852 54.1844 113.349 54.5074C112.846 54.8304 112.249 54.9919 111.558 54.9919H111.545ZM111.545 54.23C112.261 54.23 112.813 53.9608 113.206 53.4183C113.598 52.8759 113.795 52.1429 113.795 51.2112C113.795 50.2795 113.598 49.5507 113.202 49.0165C112.805 48.4823 112.257 48.2131 111.545 48.2131C110.834 48.2131 110.286 48.4823 109.889 49.0165C109.492 49.5507 109.296 50.2836 109.296 51.2112C109.296 52.1388 109.492 52.88 109.885 53.4183C110.277 53.9567 110.83 54.23 111.545 54.23Z" stroke="white" stroke-width="0.431373" stroke-linejoin="round"/>
<path d="M116.372 54.8138V47.6334H117.361L120.919 53.174V47.6334H121.787V54.8138H120.801L117.239 49.2732V54.8138H116.372Z" stroke="white" stroke-width="0.431373" stroke-linejoin="round"/>
<path d="M123.3 54.6772V53.6668C123.873 53.9318 124.29 54.0933 124.552 54.1471C124.814 54.201 125.059 54.23 125.284 54.23C125.693 54.23 126.016 54.1182 126.249 53.8945C126.486 53.6709 126.605 53.4018 126.605 53.0871C126.605 52.851 126.544 52.6315 126.421 52.4328C126.294 52.234 125.983 51.9938 125.484 51.7081L124.994 51.4224C124.339 51.0455 123.898 50.706 123.677 50.3954C123.452 50.0848 123.341 49.7411 123.341 49.3602C123.341 49.0206 123.431 48.7018 123.607 48.4036C123.783 48.1054 124.024 47.8736 124.323 47.7038C124.621 47.534 125.002 47.4512 125.456 47.4512C126.004 47.4512 126.585 47.5423 127.194 47.7286V48.6603C126.662 48.4491 126.298 48.3208 126.102 48.2794C125.906 48.2338 125.705 48.2131 125.509 48.2131C125.096 48.2131 124.793 48.3208 124.593 48.5403C124.392 48.7597 124.294 48.9792 124.294 49.2069C124.294 49.3643 124.339 49.5217 124.433 49.679C124.527 49.8405 124.654 49.9772 124.81 50.0931C124.965 50.2091 125.186 50.3457 125.46 50.5031L125.971 50.7929C126.634 51.1698 127.075 51.5176 127.296 51.8323C127.517 52.1512 127.627 52.5115 127.627 52.9256C127.627 53.4846 127.415 53.9691 126.994 54.3832C126.572 54.7973 125.951 55.0002 125.129 55.0002C124.875 55.0002 124.63 54.9836 124.392 54.9505C124.155 54.9174 123.787 54.8304 123.288 54.6855L123.3 54.6772Z" stroke="white" stroke-width="0.431373" stroke-linejoin="round"/>
<path d="M49.9967 41.3717V0.683594H67.29C71.6363 0.683594 74.7957 1.05136 76.7682 1.77853C78.7408 2.51406 80.3122 3.80959 81.499 5.68184C82.6859 7.55409 83.271 9.68545 83.271 12.0926C83.271 15.1434 82.3766 17.6676 80.5796 19.6569C78.7826 21.6461 76.0996 22.8999 72.5306 23.4181C74.3025 24.4545 75.7736 25.5912 76.9271 26.8283C78.0805 28.0653 79.6435 30.2719 81.5993 33.4313L86.5641 41.3717H76.7432L70.8004 32.5203C68.6942 29.3525 67.2482 27.3632 66.4708 26.5357C65.6935 25.7166 64.8661 25.1483 63.9968 24.839C63.1275 24.5297 61.7484 24.3793 59.8595 24.3793H58.1962V41.3633H49.98L49.9967 41.3717ZM58.2129 17.8933H64.2893C68.2261 17.8933 70.6918 17.7261 71.6697 17.3918C72.6476 17.0574 73.4166 16.4891 73.9766 15.67C74.5282 14.8592 74.8124 13.8395 74.8124 12.6192C74.8124 11.2484 74.4446 10.1452 73.7175 9.30097C72.9819 8.45679 71.9539 7.93022 70.6249 7.70454C69.9562 7.6126 67.9586 7.56245 64.632 7.56245H58.2212V17.8849L58.2129 17.8933Z" fill="white"/>
<path d="M109.423 26.4121V19.5584H127.126V35.765C125.404 37.4283 122.913 38.8994 119.645 40.1615C116.377 41.432 113.076 42.0588 109.724 42.0588C105.47 42.0588 101.759 41.1645 98.5992 39.3842C95.4314 37.5955 93.0576 35.0462 91.4696 31.728C89.8815 28.4098 89.0791 24.799 89.0791 20.8873C89.0791 16.6497 89.9651 12.8885 91.7454 9.5953C93.5173 6.30214 96.1168 3.77794 99.5436 2.0227C102.151 0.668662 105.403 0 109.281 0C114.329 0 118.275 1.0615 121.116 3.17614C123.958 5.29914 125.78 8.22454 126.599 11.9607L118.442 13.4902C117.865 11.4926 116.787 9.91291 115.207 8.75947C113.627 7.60603 111.646 7.02095 109.281 7.02095C105.695 7.02095 102.837 8.15767 100.722 10.4311C98.5992 12.7046 97.546 16.0813 97.546 20.5613C97.546 25.3924 98.6159 29.0116 100.764 31.4271C102.912 33.8426 105.72 35.0462 109.197 35.0462C110.919 35.0462 112.641 34.7119 114.371 34.0349C116.101 33.3579 117.589 32.5387 118.826 31.5775V26.4121H109.415H109.423Z" fill="white"/>
<path fill-rule="evenodd" clip-rule="evenodd" d="M20.1025 0.450684H0.372559V42.0597H20.1025V33.7626L18.4951 33.4499L16.9889 32.8906L15.6148 32.1067L14.3861 31.1202L13.3336 29.9531L12.4748 28.6275L11.8318 27.1654L11.431 25.5932L11.2901 23.9284L11.453 22.2021L11.9023 20.6651L12.5937 19.2866L13.4745 18.0183L14.5006 16.8336L15.6236 15.6797L16.7951 14.5303L17.9622 13.3368L19.0808 12.0685L20.1025 10.6812V0.450684Z" fill="white"/>
<path fill-rule="evenodd" clip-rule="evenodd" d="M41.9804 0.450684H22.2549V10.6856L23.2766 12.0729L24.3952 13.3412L25.5623 14.5347L26.7294 15.6841L27.8524 16.8336L28.8785 18.0227L29.7593 19.2866L30.4507 20.6695L30.9 22.2021L31.0629 23.9284L30.922 25.5932L30.5212 27.1654L29.8782 28.6231L29.0194 29.9487L27.9669 31.1158L26.7382 32.1067L25.3641 32.8906L23.8623 33.4499L22.2549 33.7582V42.0597H41.9804V0.450684Z" fill="white"/>
</svg>
